<svg width="26" height="22" viewBox="0 0 26 22" fill="none" xmlns="http://www.w3.org/2000/svg">
<path d="M5.60872 1.77441V10.0428C5.60872 10.4245 5.15936 10.7354 4.60039 10.7354C4.62231 10.7954 4.63327 10.8609 4.63327 10.9263V19.331C4.63327 19.8928 3.90991 20.3291 3.07694 20.2309C2.42481 20.1546 1.97545 19.7346 1.97545 19.2765V10.9209C1.97545 10.8554 1.98641 10.79 2.00833 10.73C1.44936 10.73 1 10.4191 1 10.0373V1.77441" stroke="#F2BB45" stroke-width="1.5" stroke-linecap="round" stroke-linejoin="round"/>
<path d="M3.30859 1.77441V8.42836" stroke="#F2BB45" stroke-width="1.5" stroke-linecap="round" stroke-linejoin="round"/>
<path d="M24.5485 1.77441V19.331C24.5485 19.8928 23.8251 20.3291 22.9921 20.2309C22.34 20.1546 21.8906 19.7346 21.8906 19.2765V12.8625" stroke="#F2BB45" stroke-width="1.5" stroke-linecap="round" stroke-linejoin="round"/>
<path d="M22.4664 1.72534H24.5433V12.868H19.8359V4.33783C19.8359 2.89251 21.0141 1.72534 22.4609 1.72534H22.4664Z" stroke="#F2BB45" stroke-width="1.5" stroke-linecap="round" stroke-linejoin="round"/>
<path d="M12.7481 17.084C15.3812 17.084 17.5158 14.9596 17.5158 12.339C17.5158 9.71841 15.3812 7.59399 12.7481 7.59399C10.115 7.59399 7.98047 9.71841 7.98047 12.339C7.98047 14.9596 10.115 17.084 12.7481 17.084Z" stroke="#F2BB45" stroke-width="1.5" stroke-linecap="round" stroke-linejoin="round"/>
<path d="M18.3951 17.9512C16.9539 19.3856 14.9591 20.2746 12.7562 20.2746C10.5532 20.2746 8.55844 19.3856 7.11719 17.9512" stroke="#F2BB45" stroke-width="1.5" stroke-linecap="round" stroke-linejoin="round"/>
<path d="M8.66797 5.51603C9.86262 4.807 11.26 4.39795 12.7561 4.39795C14.2521 4.39795 15.5948 4.79064 16.7784 5.47785" stroke="#F2BB45" stroke-width="1.5" stroke-linecap="round" stroke-linejoin="round"/>
</svg>
