<svg width="38" height="36" viewBox="0 0 38 36" fill="none" xmlns="http://www.w3.org/2000/svg">
<path d="M26.0364 34.2968H1.74119C1.16992 34.2968 0.816883 33.689 1.09931 33.1963L7.17152 22.7095L13.2437 12.2226C13.5262 11.7364 14.2322 11.7364 14.5211 12.2226L17.7754 17.834L20.5997 22.7095L26.6719 33.1963C26.9543 33.6826 26.6013 34.2968 26.0364 34.2968Z" stroke="#FDB913" stroke-width="1.75" stroke-linecap="round" stroke-linejoin="round"/>
<path d="M36.2917 34.2968H26.0345C26.5993 34.2968 26.9524 33.689 26.6699 33.1963L20.5977 22.7095L17.7734 17.834L20.9957 13.5407C21.291 13.144 21.8815 13.144 22.1768 13.5407L29.6675 23.5221L36.8759 33.1195C37.2353 33.5994 36.8951 34.2904 36.2853 34.2904L36.2917 34.2968Z" stroke="#FDB913" stroke-width="1.75" stroke-linecap="round" stroke-linejoin="round"/>
<path d="M7.82422 21.5898L11.0786 19.7407C11.6755 19.4016 12.4265 19.5231 12.8887 20.0222L13.4728 20.662C13.9606 21.1931 14.763 21.2827 15.3599 20.8732C15.8028 20.5661 16.3869 20.5277 16.8683 20.7772L20.6041 22.7095" stroke="#FDB913" stroke-width="1.75" stroke-linecap="round" stroke-linejoin="round"/>
<path d="M20.8125 23.0742L23.0077 21.8969C23.5148 21.6282 24.1054 21.5706 24.651 21.7433L29.4779 23.2597" stroke="#FDB913" stroke-width="1.75" stroke-linecap="round" stroke-linejoin="round"/>
<path d="M13.8834 11.5252V1.88937C13.8834 1.3967 14.2813 1 14.7756 1H23.0045C23.1393 1 23.2035 1.16636 23.1008 1.25593L20.7194 3.39297C20.36 3.71288 20.3728 4.27594 20.7451 4.57666L23.0687 6.48975C23.1778 6.57933 23.1136 6.75208 22.9724 6.75208H13.877" stroke="#FDB913" stroke-width="1.75" stroke-linecap="round" stroke-linejoin="round"/>
</svg>
