<svg width="43" height="28" viewBox="0 0 43 28" fill="none" xmlns="http://www.w3.org/2000/svg">
<path d="M34.6266 16.1411C35.0024 15.9375 35.1433 15.46 34.9397 15.0763C34.7362 14.6927 34.2586 14.5596 33.875 14.7632L23.9792 20.1651C23.2512 19.3901 22.2334 18.9047 21.0904 18.9047C18.8983 18.9047 17.1133 20.6897 17.1133 22.8818C17.1133 25.0739 18.8983 26.8589 21.0904 26.8589C23.2825 26.8589 25.0675 25.0739 25.0675 22.8818C25.0675 22.3964 24.9657 21.9345 24.8091 21.5039L34.6266 16.1411ZM21.0904 25.2931C19.7595 25.2931 18.6791 24.2127 18.6791 22.8818C18.6791 21.5509 19.7595 20.4705 21.0904 20.4705C22.4213 20.4705 23.5017 21.5509 23.5017 22.8818C23.5017 24.2127 22.4213 25.2931 21.0904 25.2931Z" fill="#FDB913" stroke="#FDB913" stroke-width="0.5"/>
<path d="M36.0266 7.03609C36.0266 7.03609 36.0031 7.02044 35.9953 7.01261C32.2843 3.29387 27.1564 1 21.4961 1C21.363 1 21.2377 1 21.1047 1.00783C21.1047 1.00783 21.089 1.00783 21.0812 1.00783C21.0733 1.00783 21.0655 1.00783 21.0577 1.00783C15.5774 1.12526 10.6217 3.38782 7.00478 7.00478C6.98912 7.02044 6.97346 7.02044 6.96563 7.03609C6.9578 7.05175 6.94998 7.06741 6.94215 7.07524C3.27039 10.7861 1 15.8828 1 21.5039C1 21.9345 1.3523 22.2868 1.78289 22.2868H8.48444C8.91503 22.2868 9.26733 21.9345 9.26733 21.5039C9.26733 14.7632 14.7554 9.27516 21.4961 9.27516C25.2148 9.27516 28.6909 10.9427 31.0239 13.8394C31.2979 14.1761 31.7833 14.2309 32.1278 13.9569C32.4644 13.6828 32.5192 13.1896 32.2452 12.853C32.0651 12.6338 31.8694 12.4302 31.6815 12.2267L35.4237 8.68017C38.3674 11.8744 40.2307 16.0785 40.4186 20.7132H35.2672C35.228 20.0478 35.1419 19.3901 35.0166 18.7403C34.9305 18.3176 34.5234 18.0436 34.0928 18.1297C33.6701 18.2158 33.3961 18.6307 33.4822 19.0535C33.6466 19.852 33.7249 20.6819 33.7249 21.4961C33.7249 21.9267 34.0772 22.279 34.5078 22.279H41.2171C41.6477 22.279 42 21.9267 42 21.4961C42 15.8671 39.7218 10.7705 36.0422 7.05958C36.0344 7.05175 36.0344 7.03609 36.0266 7.02827V7.03609ZM20.3139 2.60493V7.76418C17.3076 8.02254 14.5832 9.25168 12.438 11.1306L8.68799 7.57629C11.7882 4.71874 15.8436 2.87894 20.3139 2.60493ZM7.72504 20.721H2.58144C2.76933 16.0863 4.63262 11.8822 7.57629 8.688L11.3107 12.2267C9.24385 14.4971 7.91293 17.4564 7.72504 20.721ZM30.5698 11.1384C28.1663 9.03247 25.1209 7.81899 21.8797 7.73287V2.57361C26.671 2.66756 31.0317 4.5465 34.3199 7.57629L30.5698 11.1306V11.1384Z" fill="#FDB913" stroke="#FDB913" stroke-width="0.5"/>
</svg>
