<svg width="32" height="36" viewBox="0 0 32 36" fill="none" xmlns="http://www.w3.org/2000/svg">
<path d="M13.5191 7.37215C13.5191 3.74792 10.543 0.826426 6.93909 1.00803C3.71498 1.17385 1.0954 3.90584 1.00239 7.19844C0.963641 8.6434 1.39766 9.97781 2.15718 11.0596L6.76859 17.6684C7.00885 18.0159 7.51261 18.0159 7.75287 17.6684L12.3643 11.0596C13.0928 10.0173 13.5191 8.74604 13.5191 7.37215Z" stroke="#FDB913" stroke-width="2" stroke-linecap="round" stroke-linejoin="round"/>
<path d="M7.25624 9.93044C8.70728 9.93044 9.88358 8.73203 9.88358 7.25372C9.88358 5.7754 8.70728 4.577 7.25624 4.577C5.80521 4.577 4.62891 5.7754 4.62891 7.25372C4.62891 8.73203 5.80521 9.93044 7.25624 9.93044Z" stroke="#FDB913" stroke-width="2" stroke-linecap="round" stroke-linejoin="round"/>
<path d="M30.3551 20.2416C30.3551 16.6095 27.379 13.6959 23.7828 13.8775C20.5587 14.0433 17.9391 16.7753 17.8461 20.0679C17.8074 21.5129 18.2414 22.8473 19.0009 23.929L23.6123 30.5379C23.8526 30.8853 24.3564 30.8853 24.5966 30.5379L29.208 23.929C29.9366 22.8868 30.3628 21.6155 30.3628 20.2416H30.3551Z" stroke="#FDB913" stroke-width="2" stroke-linecap="round" stroke-linejoin="round"/>
<path d="M24.1 22.7999C25.551 22.7999 26.7273 21.6015 26.7273 20.1232C26.7273 18.6449 25.551 17.4465 24.1 17.4465C22.649 17.4465 21.4727 18.6449 21.4727 20.1232C21.4727 21.6015 22.649 22.7999 24.1 22.7999Z" stroke="#FDB913" stroke-width="2" stroke-linecap="round" stroke-linejoin="round"/>
<path d="M7.25781 21.0609C7.25781 21.0609 7.35857 24.3772 11.1329 24.8509C17.8369 25.6879 15.7133 34.9262 24.0914 34.9262" stroke="#FDB913" stroke-width="2" stroke-linecap="round" stroke-linejoin="round"/>
</svg>
