<svg width="27" height="33" viewBox="0 0 27 33" fill="none" xmlns="http://www.w3.org/2000/svg">
<path d="M11.1102 1H2.85838C1.83359 1 1 1.8336 1 2.85838V30.7571C1 31.7819 1.83359 32.6155 2.85838 32.6155H11.1102C12.135 32.6155 12.9686 31.7819 12.9686 30.7571V2.85838C12.9686 1.8336 12.135 1 11.1102 1ZM11.4391 30.7571C11.4391 30.9406 11.2938 31.0859 11.1102 31.0859H2.85838C2.67483 31.0859 2.52953 30.9406 2.52953 30.7571V27.3309H7.92114C8.34177 27.3309 8.68591 26.9868 8.68591 26.5662C8.68591 26.1455 8.34177 25.8014 7.92114 25.8014H2.52953V22.4517H5.68803C6.10865 22.4517 6.45279 22.1076 6.45279 21.6869C6.45279 21.2663 6.10865 20.9222 5.68803 20.9222H2.52953V17.5725H7.92114C8.34177 17.5725 8.68591 17.2284 8.68591 16.8077C8.68591 16.3871 8.34177 16.043 7.92114 16.043H2.52953V12.6933H5.68803C6.10865 12.6933 6.45279 12.3491 6.45279 11.9285C6.45279 11.5079 6.10865 11.1638 5.68803 11.1638H2.52953V7.81407H7.92114C8.34177 7.81407 8.68591 7.46993 8.68591 7.04931C8.68591 6.62869 8.34177 6.28454 7.92114 6.28454H2.52953V2.85838C2.52953 2.67484 2.67483 2.52953 2.85838 2.52953H11.1102C11.2938 2.52953 11.4391 2.67484 11.4391 2.85838V30.7571Z" fill="#FDB913" stroke="#FDB913" stroke-width="0.5"/>
<path d="M24.7499 26.528L21.339 29.9006V3.71501L24.7499 7.08763C25.0482 7.38589 25.5376 7.37824 25.8282 7.08763C26.1265 6.78937 26.1188 6.29992 25.8282 6.00931L21.1096 1.34423C21.1096 1.34423 21.0943 1.32894 21.0867 1.32129C21.0561 1.29835 21.0255 1.2754 20.9949 1.25246C20.9643 1.22952 20.9337 1.20657 20.8955 1.19128C20.8878 1.19128 20.8802 1.17598 20.8649 1.17598C20.8419 1.16833 20.8113 1.16833 20.7884 1.16069C20.7502 1.15304 20.7196 1.13774 20.6813 1.1301C20.6431 1.1301 20.6049 1.1301 20.5743 1.1301C20.536 1.1301 20.4978 1.1301 20.4672 1.1301C20.429 1.1301 20.3907 1.14539 20.3601 1.16069C20.3372 1.16069 20.3066 1.16833 20.2837 1.17598C20.276 1.17598 20.2684 1.19128 20.2531 1.19128C20.2225 1.20657 20.1919 1.22952 20.1536 1.25246C20.1231 1.2754 20.0925 1.2907 20.0619 1.32129C20.0542 1.32129 20.0466 1.32894 20.0389 1.34423L15.3203 6.00931C15.0221 6.30757 15.0144 6.78937 15.3203 7.08763C15.6186 7.38589 16.1004 7.39354 16.3986 7.08763L19.8095 3.71501V29.9006L16.3986 26.528C16.1004 26.2298 15.6109 26.2374 15.3203 26.528C15.0221 26.8263 15.0297 27.3157 15.3203 27.6063L20.0389 32.2714C20.0389 32.2714 20.0542 32.2791 20.0619 32.2867C20.1231 32.3479 20.1995 32.4014 20.2837 32.432C20.3754 32.4703 20.4748 32.4932 20.5743 32.4932C20.6737 32.4932 20.7731 32.4703 20.8649 32.432C20.949 32.3938 21.0178 32.3479 21.0867 32.2867C21.0867 32.2867 21.102 32.2791 21.1096 32.2714L25.8282 27.6063C26.1265 27.3081 26.1341 26.8263 25.8282 26.528C25.53 26.2298 25.0482 26.2221 24.7499 26.528Z" fill="#FDB913" stroke="#FDB913" stroke-width="0.5"/>
</svg>
