<svg width="25" height="24" viewBox="0 0 25 24" fill="none" xmlns="http://www.w3.org/2000/svg">
<path d="M24.1573 20.3428L21.8371 18.0226C21.692 17.8775 21.4907 17.803 21.286 17.8187L19.454 17.9597L17.7082 16.2138C21.0447 12.695 22.7359 8.98045 23.4604 7.02717C24.3769 4.55606 24.9922 1.55147 23.9705 0.529641C22.9486 -0.492188 19.944 0.123141 17.4729 1.03969C15.5196 1.76419 11.8051 3.45539 8.28622 6.79191L6.54041 5.04609L6.68131 3.21408C6.69706 3.00942 6.62258 2.80809 6.47745 2.66297L4.15723 0.342703C3.7003 -0.114234 2.95686 -0.114234 2.49997 0.342703L0.842703 1.99997C0.385766 2.45691 0.385766 3.20034 0.842703 3.65723L3.16287 5.97741C3.308 6.12253 3.50933 6.19702 3.71398 6.18127L5.546 6.04036L7.29181 7.78617C3.95534 11.305 2.26414 15.0195 1.53964 16.9728C0.623047 19.444 0.00776541 22.4486 1.02959 23.4704C2.05142 24.4922 5.05602 23.8769 7.52717 22.9604C9.4805 22.2358 13.195 20.5447 16.7138 17.2082L18.4596 18.954L18.3187 20.786C18.303 20.9907 18.3775 21.192 18.5226 21.3371L20.8428 23.6573C21.2997 24.1143 22.0431 24.1143 22.5 23.6573L24.1573 22.0001C24.6142 21.5431 24.6142 20.7997 24.1573 20.3428ZM15.4831 13.9887L16.3118 13.1601C17.5123 11.9595 17.6613 10.0997 16.7589 8.73544L18.8576 6.63675C19.6426 7.28344 20.5476 7.75266 21.5305 8.02191C20.6665 9.93492 19.1584 12.631 16.7128 15.2184L15.4831 13.9887ZM9.68262 14.8174C8.8602 13.995 8.86016 12.6567 9.68262 11.8343L10.5113 11.0056L13.4944 13.9887L12.6658 14.8174C11.8433 15.6398 10.5051 15.6398 9.68262 14.8174ZM11.5056 10.0113L12.3343 9.18262C13.1568 8.36016 14.495 8.3602 15.3174 9.18262C16.1399 10.0051 16.1399 11.3433 15.3174 12.1658L14.4888 12.9944L11.5056 10.0113ZM21.3924 1.46011C22.4186 1.33397 22.8726 1.45927 22.9751 1.52489C23.0407 1.62736 23.166 2.08144 23.0399 3.10767C22.9135 4.13639 22.5839 5.37333 22.0869 6.68484C22.0838 6.69286 22.0805 6.70153 22.0774 6.70959C21.0341 6.45741 20.0924 5.93236 19.33 5.16998C18.5676 4.40761 18.0421 3.46608 17.7899 2.42283C17.7982 2.41969 17.807 2.41622 17.8152 2.41313C19.1267 1.91611 20.3637 1.58653 21.3924 1.46011ZM16.4785 2.96934C16.7477 3.95227 17.2164 4.85756 17.8631 5.64253L15.7646 7.74108C14.4003 6.83873 12.5405 6.9877 11.3399 8.18827L10.5113 9.01692L9.28161 7.7872C11.8692 5.34141 14.5654 3.8333 16.4785 2.96934ZM2.00281 2.82863L3.32863 1.50281L5.25444 3.42862L5.1597 4.65975L3.92858 4.75448L2.00281 2.82863ZM9.51692 10.0113L8.68827 10.8399C7.48775 12.0404 7.33878 13.9003 8.24113 15.2645L6.14234 17.3633C5.35733 16.7166 4.45203 16.248 3.46916 15.9788C4.33306 14.0658 5.84122 11.3693 8.2872 8.78156L9.51692 10.0113ZM3.60767 22.5399C2.58144 22.666 2.12741 22.5407 2.02489 22.4751C1.95927 22.3726 1.83397 21.9186 1.96011 20.8924C2.08658 19.8637 2.41611 18.6267 2.91313 17.3152C2.91627 17.3069 2.91978 17.298 2.92292 17.2897C3.96608 17.542 4.90756 18.0676 5.66994 18.8301C6.43231 19.5925 6.95797 20.534 7.21034 21.5771C7.202 21.5803 7.19309 21.5838 7.1848 21.5869C5.87333 22.0839 4.63639 22.4135 3.60767 22.5399ZM8.52228 21.0303C8.25303 20.0474 7.78428 19.1418 7.13755 18.3569L9.23548 16.2589C10.5998 17.1613 12.4596 17.0123 13.6601 15.8118L14.4888 14.9831L15.7184 16.2128C13.1312 18.6583 10.4353 20.1663 8.52228 21.0303ZM21.6714 22.4972L19.7456 20.5715L19.8403 19.3403L21.0714 19.2457L22.9972 21.1714L21.6714 22.4972Z" fill="#FDB913"/>
</svg>
