<svg width="22" height="20" viewBox="0 0 22 20" fill="none" xmlns="http://www.w3.org/2000/svg">
<path d="M3.14843 19.1996C2.49645 19.1996 1.91898 18.9206 1.52158 18.4719C1.1987 18.102 1 17.6229 1 17.1014V0.806641H15.0269V3.35364" stroke="#F2BB45" stroke-width="1.5" stroke-linecap="round" stroke-linejoin="round"/>
<path d="M18.7587 15.4578V17.1012C18.7587 18.2595 17.8025 19.1994 16.6165 19.1994H3.14844C4.32821 19.1994 5.29066 18.2595 5.29066 17.1012V15.4578H18.7587Z" stroke="#F2BB45" stroke-width="1.5" stroke-linecap="round" stroke-linejoin="round"/>
<path d="M3.50391 5.22753L4.95689 6.42825L6.98114 4.09351" stroke="#F2BB45" stroke-width="1.5" stroke-linecap="round" stroke-linejoin="round"/>
<path d="M3.50391 9.51492L4.95689 10.7217L6.98114 8.38696" stroke="#F2BB45" stroke-width="1.5" stroke-linecap="round" stroke-linejoin="round"/>
<path d="M9.21094 4.48145H12.6323" stroke="#F2BB45" stroke-width="1.5" stroke-linecap="round" stroke-linejoin="round"/>
<path d="M10.0545 12.729L10.5947 10.0668L17.3877 3.85087C17.872 3.40817 18.6358 3.43849 19.0891 3.91757L20.0391 4.93031C20.48 5.40332 20.4551 6.13104 19.977 6.56766L13.3578 12.6805L10.5636 13.2262C10.2594 13.2869 9.99859 13.0261 10.0545 12.729Z" stroke="#F2BB45" stroke-width="1.5" stroke-linecap="round" stroke-linejoin="round"/>
<path d="M16.5625 5.04541L18.9655 7.50144" stroke="#F2BB45" stroke-width="1.5" stroke-linecap="round" stroke-linejoin="round"/>
<path d="M15.0234 14.0813V14.9303" stroke="#F2BB45" stroke-width="1.5" stroke-linecap="round" stroke-linejoin="round"/>
</svg>
