<svg width="24" height="24" viewBox="0 0 24 24" fill="none" xmlns="http://www.w3.org/2000/svg">
<path d="M23.2785 22.5938H20.7996V6.32812C20.7996 5.93981 20.4848 5.625 20.0965 5.625H17.6524V3.51562C17.6524 3.12731 17.3376 2.8125 16.9493 2.8125H15.5828V0.703125C15.5828 0.314812 15.268 0 14.8796 0H9.11758C8.72927 0 8.41446 0.314812 8.41446 0.703125V2.8125H7.04791C6.6596 2.8125 6.34478 3.12731 6.34478 3.51562V5.625H3.90077C3.51246 5.625 3.19764 5.93981 3.19764 6.32812V22.5938H0.71875C0.330437 22.5938 0.015625 22.9086 0.015625 23.2969C0.015625 23.6852 0.330437 24 0.71875 24H23.2784C23.6667 24 23.9816 23.6852 23.9816 23.2969C23.9816 22.9086 23.6668 22.5938 23.2785 22.5938ZM9.82071 1.40625H14.1765V2.8125H9.82071V1.40625ZM7.75103 4.21875H16.2462V5.625H7.75103V4.21875ZM11.2955 22.5938H8.48299V18.3871H11.2955V22.5938ZM15.5142 22.5938H12.7017V18.3871H15.5142V22.5938ZM19.3933 22.5938H16.9205V17.684C16.9205 17.2957 16.6057 16.9809 16.2174 16.9809H7.77986C7.39155 16.9809 7.07674 17.2957 7.07674 17.684V22.5938H4.60389V7.03125H19.3933V22.5938Z" fill="#FDB913"/>
<path d="M16.2188 15.2226C16.6071 15.2226 16.9219 14.9078 16.9219 14.5195V13.5C16.9219 13.1117 16.6071 12.7969 16.2188 12.7969C15.8304 12.7969 15.5156 13.1117 15.5156 13.5V14.5195C15.5156 14.9078 15.8304 15.2226 16.2188 15.2226Z" fill="#FDB913"/>
<path d="M13.4062 15.2226C13.7946 15.2226 14.1094 14.9078 14.1094 14.5195V13.5C14.1094 13.1117 13.7946 12.7969 13.4062 12.7969C13.0179 12.7969 12.7031 13.1117 12.7031 13.5V14.5195C12.7031 14.9078 13.0179 15.2226 13.4062 15.2226Z" fill="#FDB913"/>
<path d="M10.5938 15.2226C10.9821 15.2226 11.2969 14.9078 11.2969 14.5195V13.5C11.2969 13.1117 10.9821 12.7969 10.5938 12.7969C10.2054 12.7969 9.89062 13.1117 9.89062 13.5V14.5195C9.89062 14.9078 10.2054 15.2226 10.5938 15.2226Z" fill="#FDB913"/>
<path d="M7.78125 15.2226C8.16956 15.2226 8.48438 14.9078 8.48438 14.5195V13.5C8.48438 13.1117 8.16956 12.7969 7.78125 12.7969C7.39294 12.7969 7.07812 13.1117 7.07812 13.5V14.5195C7.07812 14.9078 7.39294 15.2226 7.78125 15.2226Z" fill="#FDB913"/>
<path d="M16.2188 11.4726C16.6071 11.4726 16.9219 11.1578 16.9219 10.7695V9.75C16.9219 9.36169 16.6071 9.04688 16.2188 9.04688C15.8304 9.04688 15.5156 9.36169 15.5156 9.75V10.7695C15.5156 11.1578 15.8304 11.4726 16.2188 11.4726Z" fill="#FDB913"/>
<path d="M13.4062 11.4726C13.7946 11.4726 14.1094 11.1578 14.1094 10.7695V9.75C14.1094 9.36169 13.7946 9.04688 13.4062 9.04688C13.0179 9.04688 12.7031 9.36169 12.7031 9.75V10.7695C12.7031 11.1578 13.0179 11.4726 13.4062 11.4726Z" fill="#FDB913"/>
<path d="M10.5938 11.4726C10.9821 11.4726 11.2969 11.1578 11.2969 10.7695V9.75C11.2969 9.36169 10.9821 9.04688 10.5938 9.04688C10.2054 9.04688 9.89062 9.36169 9.89062 9.75V10.7695C9.89062 11.1578 10.2054 11.4726 10.5938 11.4726Z" fill="#FDB913"/>
<path d="M7.78125 11.4726C8.16956 11.4726 8.48438 11.1578 8.48438 10.7695V9.75C8.48438 9.36169 8.16956 9.04688 7.78125 9.04688C7.39294 9.04688 7.07812 9.36169 7.07812 9.75V10.7695C7.07812 11.1578 7.39294 11.4726 7.78125 11.4726Z" fill="#FDB913"/>
</svg>
