<svg width="24" height="24" viewBox="0 0 24 24" fill="none" xmlns="http://www.w3.org/2000/svg">
<path d="M7.82 2.03888C6.9 2.21888 6.18 2.95888 5.7 3.73888C4.88 5.07888 4.5 6.73888 4.5 8.29888C4.5 8.97888 4.52 9.61888 4.82 10.2389C5.08 10.8189 5.5 11.3389 6.02 11.6989C6.22 11.8389 6.8 12.0389 6.86 12.2589C7.02 12.8189 6.82 13.6189 6.8 14.1989C6.74 15.7589 6.68 17.3189 6.6 18.8789C6.54 20.0189 6.36 21.7189 7.92 21.9389C8.12 21.9589 8.38 21.9789 8.58 21.9389C9.28 21.8189 9.78 21.2389 9.88 20.5589C9.94 20.1789 9.86 19.7989 9.86 19.4189C9.84 18.4389 9.74 17.4589 9.74 16.4989C9.74 15.4389 9.64 14.3989 9.62 13.3389C9.62 12.9989 9.52 12.6389 9.58 12.2789C9.62 12.0189 10.3 11.7789 10.52 11.6189C11.04 11.2189 11.46 10.6589 11.72 10.0589C11.96 9.45888 11.98 8.85888 11.98 8.21888C11.98 6.59888 11.56 4.69888 10.58 3.37888C9.94 2.55888 8.96 1.79888 7.82 2.03888Z" fill="#FDB913"/>
<path d="M13.4386 2.01854C13.4386 3.57854 13.3186 5.13854 13.2786 6.69854C13.2586 7.29854 13.1586 7.93853 13.2586 8.53853C13.3586 9.21853 13.6786 9.85853 14.1786 10.3385C14.3786 10.5385 14.9986 10.7785 15.0586 11.0385C15.0986 11.1985 15.0386 11.4185 15.0386 11.5785C15.0386 12.1385 14.9986 12.6985 14.9586 13.2585C14.8786 14.5185 14.8386 15.8185 14.7986 17.0785C14.7786 17.8785 14.7386 18.6985 14.7186 19.4985C14.6986 19.9185 14.6386 20.3385 14.7186 20.7385C14.8786 21.3985 15.4586 21.9585 16.1586 21.9785C17.0386 22.0185 17.8186 21.5585 17.9986 20.6585C18.0786 20.2785 18.0186 19.8985 17.9986 19.5185C17.9586 18.7185 17.9186 17.9385 17.9186 17.1385C17.9186 15.8585 17.8386 14.5185 17.7586 13.2385C17.7186 12.6785 17.6786 12.1185 17.6786 11.5585C17.6786 11.3985 17.6186 11.1785 17.6586 11.0185C17.7186 10.7585 18.2586 10.5585 18.4586 10.3785C18.8786 10.0185 19.1986 9.47853 19.3586 8.93853C19.5786 8.19853 19.4586 7.41853 19.4386 6.67853C19.3986 5.11853 19.2786 3.55854 19.2786 1.99854H18.1986L17.9986 7.99854H17.2186L17.0186 1.99854H15.6986L15.4986 7.99854H14.7186L14.5186 1.99854H13.4386V2.01854Z" fill="#FDB913"/>
</svg>
