<svg width="24" height="24" viewBox="0 0 24 24" fill="none" xmlns="http://www.w3.org/2000/svg">
<path d="M18.1635 2.02067C17.7035 2.08067 17.2635 2.24067 16.8835 2.48067C16.5635 2.68067 16.2835 2.92067 16.0635 3.20067C14.4235 5.24067 16.0035 7.64067 17.2035 9.44067C17.5035 9.88067 17.9635 10.3607 18.1835 10.8407C18.3035 11.1207 18.1635 11.4607 18.2835 11.7407C18.3635 11.9207 18.5635 12.0007 18.7635 11.9607C19.2635 11.8607 19.0435 11.2407 19.1435 10.9207C19.2835 10.4807 19.7635 10.0207 20.0235 9.64067C20.8035 8.48067 21.8235 7.08067 22.0035 5.66067C22.2635 3.50067 20.2635 1.72067 18.1635 2.02067ZM18.8635 6.10067C17.8635 6.36067 17.4235 4.80067 18.4435 4.54067C19.4435 4.30067 19.8835 5.84067 18.8635 6.10067Z" fill="#FDB913"/>
<path d="M10.2039 9.74084C7.76391 7.80084 3.7439 8.50084 2.4639 11.4808C2.1439 12.2008 2.00391 12.9208 2.00391 13.7008C2.00391 14.6808 2.28391 15.6608 2.72391 16.5408C3.40391 17.9408 4.30391 19.2208 5.32391 20.4008C5.66391 20.7808 5.98391 21.1808 6.34391 21.5408C6.50391 21.7008 6.66391 21.9208 6.88391 21.9608C7.16391 22.0208 7.80391 22.0408 8.04391 21.9008C8.32391 21.7208 8.28391 21.3008 8.00391 21.1608C9.08391 20.0808 9.9839 18.8208 10.7639 17.5208C11.3239 16.5808 11.7639 15.5408 11.9239 14.4808C12.2239 12.7408 11.6039 10.8608 10.2039 9.74084ZM8.32391 15.7408C8.02391 15.9408 7.66391 16.0608 7.30391 16.1008C4.82391 16.4208 3.50391 13.0808 5.54391 11.6208C5.90391 11.3608 6.3039 11.2208 6.7639 11.1608C9.3239 10.8408 10.4039 14.4008 8.32391 15.7408Z" fill="#FDB913"/>
<path d="M18.1223 12.9015C17.9023 12.9615 17.7823 13.2215 17.5823 13.3415C17.2423 13.5415 16.6423 13.4815 16.3823 13.7615C16.1823 14.0015 16.2623 14.3615 16.5623 14.4615C16.8023 14.5415 17.1023 14.4615 17.3423 14.4015C17.8223 14.2815 18.3423 14.0415 18.6023 13.6015C18.8223 13.2215 18.5623 12.7815 18.1223 12.9015ZM14.7623 13.9615C14.1823 14.1615 13.6623 14.9015 13.4623 15.4615C13.3423 15.8015 13.5223 16.2615 13.9423 16.1415C14.3423 16.0215 14.5823 15.2615 14.8823 14.9815C15.0423 14.8415 15.2623 14.7415 15.3423 14.5415C15.5023 14.1615 15.1223 13.8615 14.7623 13.9615Z" fill="#FDB913"/>
<path d="M13.0823 16.9601C12.9023 16.9801 12.7823 17.1201 12.7023 17.2801C12.4823 17.7401 12.0423 18.4201 11.9623 18.9201C11.9223 19.2201 12.1623 19.4601 12.4623 19.4201C12.7023 19.3801 12.8223 19.1601 12.9223 18.9601C13.1623 18.5201 13.4823 17.9801 13.5623 17.4801C13.6223 17.2001 13.4023 16.9201 13.0823 16.9601ZM11.0623 19.9801C10.7623 20.0801 10.5023 20.3401 10.2023 20.4801C9.9423 20.6201 9.5423 20.6801 9.3223 20.9001C9.0023 21.2401 9.3623 21.7001 9.7623 21.6001C10.3223 21.4801 11.1223 21.1001 11.5023 20.6801C11.8223 20.3401 11.5023 19.8401 11.0623 19.9801Z" fill="#FDB913"/>
</svg>
