<svg width="25" height="24" viewBox="0 0 25 24" fill="none" xmlns="http://www.w3.org/2000/svg">
<path d="M21.683 10.8508H19.0179V8.71402C19.0179 8.32514 18.7025 8.00986 18.3135 8.00986H14.5067C14.1537 6.93248 13.137 6.15961 11.9551 6.15961H10.7332V0.704156C10.7332 0.315281 10.4179 0 10.0289 0H5.11077C4.7218 0 4.40642 0.315281 4.40642 0.704156V6.15966H3.18458C1.70431 6.15966 0.5 7.36359 0.5 8.84348V21.3161C0.5 22.796 1.70431 24 3.18458 24H21.683C23.2363 24 24.5 22.7366 24.5 21.1838V13.667C24.5 12.1141 23.2363 10.8508 21.683 10.8508ZM23.0914 13.667V18.1203H9.16423V13.667C9.16423 12.8907 9.79602 12.259 10.5726 12.259H21.683C22.4596 12.259 23.0914 12.8906 23.0914 13.667ZM17.6092 10.8508H14.6464V9.41817H17.6092V10.8508ZM5.81506 1.40827H9.32459V6.15961H5.81506V1.40827ZM1.90864 21.3161V8.84348C1.90864 8.14012 2.48103 7.56792 3.18458 7.56792H11.9551C12.6261 7.56792 13.1855 8.09147 13.2283 8.75986C13.23 8.78592 13.2333 8.81147 13.2377 8.83659V10.8508H10.5725C9.01925 10.8508 7.75555 12.1141 7.75555 13.667V21.1838C7.75555 21.6965 7.89397 22.1772 8.13444 22.5917H3.18458C2.48103 22.5917 1.90864 22.0195 1.90864 21.3161ZM21.683 22.5917H11.9551H10.5726C9.79602 22.5917 9.16423 21.9601 9.16423 21.1838V19.5286H23.0914V21.1838C23.0914 21.9601 22.4596 22.5917 21.683 22.5917Z" fill="#FDB913"/>
</svg>
