<svg width="18" height="24" viewBox="0 0 18 24" fill="none" xmlns="http://www.w3.org/2000/svg">
<path d="M17.6719 11.0625V0.703125C17.6719 0.314812 17.3571 0 16.9688 0H1.03125C0.642937 0 0.328125 0.314812 0.328125 0.703125V11.0625C0.328125 11.249 0.402234 11.4278 0.534094 11.5597L0.974391 12L0.534094 12.4403C0.402234 12.5722 0.328125 12.751 0.328125 12.9375V23.2969C0.328125 23.6852 0.642937 24 1.03125 24H16.9688C17.3571 24 17.6719 23.6852 17.6719 23.2969V12.9375C17.6719 12.751 17.5978 12.5722 17.4659 12.4403L17.0256 12L17.466 11.5597C17.5978 11.4278 17.6719 11.249 17.6719 11.0625ZM16.2656 10.7713L15.5341 11.5028C15.2595 11.7774 15.2595 12.2226 15.5341 12.4972L16.2656 13.2287V22.5938H1.73438V13.2287L2.46591 12.4972C2.7405 12.2226 2.7405 11.7774 2.46591 11.5028L1.73438 10.7713V1.40625H16.2656V10.7713Z" fill="#FDB913"/>
<path d="M4.32646 7.58274L5.43553 8.56618C5.66198 8.76699 5.99151 8.80032 6.25359 8.64901L9.58125 6.72779L9.44826 8.78991C9.42328 9.17743 9.71718 9.51183 10.1047 9.53687C10.4922 9.5619 10.8266 9.26794 10.8517 8.88043L11.045 5.88277L13.5607 4.4303C13.897 4.23615 14.0122 3.80612 13.818 3.46983C13.6238 3.13351 13.1939 3.01833 12.8576 3.21249L10.3418 4.66496L7.64911 3.33357C7.30096 3.16149 6.87932 3.30413 6.70715 3.65222C6.53503 4.00032 6.67771 4.42205 7.02581 4.59418L8.87812 5.51007L5.98935 7.17788L5.25946 6.53063C4.96893 6.27305 4.52456 6.29968 4.26689 6.59021C4.00926 6.88069 4.03593 7.32507 4.32646 7.58274Z" fill="#FDB913"/>
<path d="M3.84376 15.5625H14.1562C14.5446 15.5625 14.8594 15.2477 14.8594 14.8594C14.8594 14.4711 14.5446 14.1562 14.1562 14.1562H3.84376C3.45545 14.1562 3.14062 14.4711 3.14062 14.8594C3.14062 15.2477 3.45545 15.5625 3.84376 15.5625Z" fill="#FDB913"/>
<path d="M3.84376 18.375H9C9.38831 18.375 9.70312 18.0602 9.70312 17.6719C9.70312 17.2836 9.38831 16.9688 9 16.9688H3.84376C3.45545 16.9688 3.14062 17.2836 3.14062 17.6719C3.14062 18.0602 3.45545 18.375 3.84376 18.375Z" fill="#FDB913"/>
<path d="M3.84376 21.1875H9C9.38831 21.1875 9.70312 20.8727 9.70312 20.4844C9.70312 20.0961 9.38831 19.7812 9 19.7812H3.84376C3.45545 19.7812 3.14062 20.0961 3.14062 20.4844C3.14062 20.8727 3.45545 21.1875 3.84376 21.1875Z" fill="#FDB913"/>
<path d="M4.78125 12.7031H5.71875C6.10706 12.7031 6.42188 12.3883 6.42188 12C6.42188 11.6117 6.10706 11.2969 5.71875 11.2969H4.78125C4.39294 11.2969 4.07812 11.6117 4.07812 12C4.07812 12.3883 4.39294 12.7031 4.78125 12.7031Z" fill="#FDB913"/>
<path d="M9.46875 11.2969H8.53125C8.14294 11.2969 7.82812 11.6117 7.82812 12C7.82812 12.3883 8.14294 12.7031 8.53125 12.7031H9.46875C9.85706 12.7031 10.1719 12.3883 10.1719 12C10.1719 11.6117 9.85706 11.2969 9.46875 11.2969Z" fill="#FDB913"/>
<path d="M13.2188 11.2969H12.2812C11.8929 11.2969 11.5781 11.6117 11.5781 12C11.5781 12.3883 11.8929 12.7031 12.2812 12.7031H13.2188C13.6071 12.7031 13.9219 12.3883 13.9219 12C13.9219 11.6117 13.6071 11.2969 13.2188 11.2969Z" fill="#FDB913"/>
<path d="M12.75 16.9688C11.5869 16.9688 10.6406 17.915 10.6406 19.0781C10.6406 20.2412 11.5869 21.1875 12.75 21.1875C13.9131 21.1875 14.8594 20.2412 14.8594 19.0781C14.8594 17.915 13.9131 16.9688 12.75 16.9688ZM12.75 19.7812C12.3623 19.7812 12.0469 19.4658 12.0469 19.0781C12.0469 18.6904 12.3623 18.375 12.75 18.375C13.1377 18.375 13.4531 18.6904 13.4531 19.0781C13.4531 19.4658 13.1377 19.7812 12.75 19.7812Z" fill="#FDB913"/>
</svg>
