<svg width="24" height="24" viewBox="0 0 24 24" fill="none" xmlns="http://www.w3.org/2000/svg">
<circle cx="12" cy="12" r="12" fill="#006AFE"/>
<path fill-rule="evenodd" clip-rule="evenodd" d="M12 19.4949C16.4183 19.4949 20 16.0262 20 11.7474C20 7.46864 16.4183 4 12 4C7.58172 4 4 7.46864 4 11.7474C4 14.0746 5.0595 16.1621 6.73684 17.5822V19.15C6.73684 19.7628 7.36098 20.1738 7.91747 19.9274L9.65722 19.1574C10.3982 19.3768 11.1849 19.4949 12 19.4949Z" fill="white"/>
<path fill-rule="evenodd" clip-rule="evenodd" d="M12.4457 11.2665V11.0434H13.1412V14.3028H12.726C12.6274 14.3028 12.4571 14.2125 12.4405 14.0174C12.143 14.2475 11.3381 14.5748 10.4994 14.0433C9.45095 13.379 9.76756 12.1229 9.94403 11.8427C10.1205 11.5624 10.5669 10.9395 11.4544 10.9551C11.9787 10.9643 12.1929 11.11 12.3254 11.2001C12.3724 11.2321 12.4091 11.257 12.4457 11.2665ZM11.4493 13.6332C11.9997 13.6332 12.4459 13.1871 12.4459 12.6367C12.4459 12.0863 11.9997 11.6402 11.4493 11.6402C10.899 11.6402 10.4528 12.0863 10.4528 12.6367C10.4528 13.1871 10.899 13.6332 11.4493 13.6332Z" fill="#006AFE"/>
<path fill-rule="evenodd" clip-rule="evenodd" d="M16.6658 14.3496C17.6204 14.3496 18.3942 13.5758 18.3942 12.6213C18.3942 11.6668 17.6204 10.8929 16.6658 10.8929C15.7113 10.8929 14.9375 11.6668 14.9375 12.6213C14.9375 13.5758 15.7113 14.3496 16.6658 14.3496ZM16.6607 13.6124C17.2111 13.6124 17.6572 13.1663 17.6572 12.6159C17.6572 12.0655 17.2111 11.6194 16.6607 11.6194C16.1103 11.6194 15.6642 12.0655 15.6642 12.6159C15.6642 13.1663 16.1103 13.6124 16.6607 13.6124Z" fill="#006AFE"/>
<path d="M6.1038 10V10.737H8.50688C7.79236 11.6194 6.32698 13.4297 6.18166 13.6124C6.03633 13.7951 6 13.9619 6 14.0224V14.3027H9.28023C9.49199 14.3027 9.56223 14.1193 9.57088 14.0276V13.6124H7.04843C7.73873 12.7456 9.16396 10.9571 9.34251 10.737C9.52105 10.5169 9.56915 10.282 9.57088 10.192V10H6.1038Z" fill="#006AFE"/>
<path d="M14.4746 10.0001H13.7324V14.0589C13.7324 14.2291 13.895 14.2924 13.9764 14.3028H14.4746V10.0001Z" fill="#006AFE"/>
</svg>
