<svg width="170" height="60" viewBox="0 0 170 60" fill="none" xmlns="http://www.w3.org/2000/svg">
  <path d="M52.904 13.5842L29.172 0.456066C28.628 0.130304 27.982 0 27.336 0C26.69 0 26.078 0.162881 25.5 0.456066L1.836 13.5842C0.68 14.2032 0 15.3759 0 16.6138V42.8376C0 44.0755 0.68 45.2482 1.836 45.8672L25.534 58.9953C26.112 59.2885 26.724 59.4514 27.37 59.4514C28.016 59.4514 28.628 59.2885 29.206 58.9953L52.904 45.8672C54.026 45.2482 54.74 44.0755 54.74 42.8376V16.6138C54.74 15.3759 54.026 14.2032 52.904 13.5842ZM28.39 57.6597C28.084 57.8226 27.744 57.9203 27.37 57.9203C26.996 57.9203 26.656 57.8226 26.35 57.6597L22.236 55.3794C22.508 54.5976 22.746 53.7506 23.086 53.0013C24.072 50.8839 23.97 48.799 23.222 46.6164C21.964 42.9353 20.91 39.2216 19.822 35.508C19.652 34.9542 19.652 34.2375 19.788 33.6837C21.148 28.1783 22.474 22.673 23.97 17.2002C24.378 15.7343 25.262 14.3986 25.942 13.0304C26.112 13.063 26.282 13.063 26.452 13.0956C30.056 21.1745 33.66 29.2859 37.264 37.3974C37.808 37.2345 38.216 37.1042 38.794 36.9413C39.202 38.961 39.644 40.9807 40.052 42.9679C40.528 45.4762 40.936 47.9846 41.446 50.493L28.39 57.6597ZM53.108 42.8376C53.108 43.5217 52.7 44.1732 52.088 44.5315L46.988 47.3331C45.934 46.5513 44.812 45.2156 44.846 44.5315C45.118 39.9383 45.39 35.3125 45.696 30.7193C45.696 30.6541 45.798 30.589 46.036 30.1981C46.954 31.664 47.804 32.967 48.62 34.3352C50.15 36.8762 51.612 39.4171 53.108 41.958V42.8376ZM53.108 37.7231C52.224 36.2572 51.374 34.889 50.558 33.4882C49.266 31.3056 47.94 29.123 46.716 26.9079C46.138 25.8654 45.662 25.8654 44.88 26.7124C42.942 28.8299 40.902 30.8821 38.93 32.967C38.726 33.1951 38.488 33.3579 38.012 33.7488C34.136 25.051 30.328 16.5487 26.35 7.62281C25.364 9.4145 24.582 10.7827 23.834 12.216C21.59 16.5487 19.38 20.9139 17.102 25.2139C16.898 25.6048 16.422 25.9306 15.98 26.0935C13.566 26.973 11.118 27.7548 8.738 28.6996C8.058 28.9602 7.344 29.6117 7.004 30.2632C5.61 32.967 4.386 35.736 2.992 38.4072C2.652 39.0588 2.108 39.6451 1.598 40.2315V16.6138C1.598 15.9297 2.006 15.2782 2.618 14.9199L26.35 1.79169C26.656 1.62881 26.996 1.53108 27.37 1.53108C27.71 1.53108 28.084 1.62881 28.39 1.79169L52.088 14.9199C52.734 15.2782 53.108 15.8971 53.108 16.6138V37.7231Z" fill="#FDB913"/>
  <path d="M53.1085 41.9907V42.8702C53.1085 43.5543 52.7005 44.2059 52.0885 44.5642L46.9885 47.3657C45.9345 46.5839 44.8125 45.2483 44.8465 44.5642C45.1185 39.971 45.3905 35.3452 45.6965 30.7519C45.6965 30.6868 45.7985 30.6216 46.0365 30.2307C46.9545 31.6966 47.8045 32.9997 48.6205 34.3679C50.1505 36.8762 51.6125 39.4172 53.1085 41.9907Z" fill="black"/>
  <path d="M41.4125 50.4604L28.3905 57.6598C28.0845 57.8226 27.7445 57.9204 27.3705 57.9204C26.9965 57.9204 26.6565 57.8226 26.3505 57.6598L22.2365 55.3794C22.5085 54.5976 22.7465 53.7506 23.0865 53.0014C24.0725 50.8839 23.9705 48.7991 23.2225 46.6165C21.9645 42.9354 20.9105 39.2217 19.8225 35.508C19.6525 34.9542 19.6525 34.2376 19.7885 33.6838C21.1485 28.1784 22.4745 22.673 23.9705 17.2003C24.3785 15.7343 25.2625 14.3987 25.9425 13.0305C26.1125 13.0631 26.2825 13.0631 26.4525 13.0957C30.0565 21.1745 33.6605 29.286 37.2645 37.3974C37.8085 37.2346 38.2165 37.1042 38.7945 36.9414C39.2025 38.9611 39.6445 40.9808 40.0525 42.9679C40.4945 45.4111 40.9025 47.9521 41.4125 50.4604Z" fill="black"/>
  <path d="M53.1077 16.6143V37.7562C52.2237 36.2903 51.3737 34.9221 50.5577 33.5213C49.2657 31.3387 47.9397 29.1561 46.7157 26.9409C46.1377 25.8985 45.6617 25.8985 44.8797 26.7455C42.9417 28.8629 40.9017 30.9152 38.9297 33.0001C38.7257 33.2281 38.4877 33.391 38.0117 33.7819C34.1357 25.0841 30.3277 16.5817 26.3497 7.65586C25.3637 9.44755 24.5817 10.8157 23.8337 12.2491C21.5897 16.5817 19.3797 20.9469 17.1017 25.247C16.8977 25.6379 16.4217 25.9636 15.9797 26.1265C13.5657 27.0061 11.1177 27.7879 8.73766 28.7326C8.05766 28.9932 7.34366 29.6447 7.00366 30.2963C5.60966 33.0001 4.38566 35.769 2.99166 38.4403C2.65166 39.0918 2.10766 39.6782 1.59766 40.2645V16.6143C1.59766 15.9302 2.00566 15.2787 2.61766 14.9203L26.3497 1.79216C26.6557 1.62928 26.9957 1.53156 27.3697 1.53156C27.7097 1.53156 28.0837 1.62928 28.3897 1.79216L52.0877 14.9203C52.7337 15.2787 53.1077 15.8976 53.1077 16.6143Z" fill="black"/>
  <path d="M60.5205 24.7577V9.93555H64.0565V24.7577H60.5205Z" fill="#FDB913"/>
  <path d="M77.8601 9.93555H81.2941V24.7577H78.1321L71.2641 15.5712V24.7577H67.8301V9.93555H70.9921L77.8601 19.122V9.93555Z" fill="#FDB913"/>
  <path d="M90.1009 24.9205C88.1969 24.9205 86.7349 24.5296 85.6809 23.7478C84.6269 22.966 84.0489 21.8258 83.8789 20.2947L87.2109 19.8387C87.3129 20.5553 87.5849 21.1091 88.0949 21.5001C88.6049 21.891 89.3189 22.0864 90.2029 22.0864C90.9849 22.0864 91.5629 21.9561 91.9709 21.6955C92.3789 21.4349 92.5829 21.0766 92.5829 20.5879C92.5829 20.1644 92.3789 19.8061 91.9369 19.5781C91.4949 19.3175 90.7809 19.0894 89.7949 18.8614C88.7069 18.6008 87.8229 18.3076 87.0749 17.9493C86.3269 17.5909 85.7829 17.1349 85.4089 16.5485C85.0349 15.9621 84.8309 15.2454 84.8309 14.3659C84.8309 13.4538 85.0689 12.6394 85.5789 11.9227C86.0889 11.206 86.7689 10.6522 87.6529 10.2613C88.5369 9.87038 89.5569 9.67493 90.7129 9.67493C92.2089 9.67493 93.4669 10.0333 94.4189 10.7825C95.3709 11.5318 95.9149 12.5416 96.0849 13.8121L92.9569 14.3007C92.8549 13.7144 92.5829 13.2909 92.1409 12.9651C91.7329 12.6394 91.1889 12.509 90.5429 12.509C89.8969 12.509 89.3869 12.6394 89.0129 12.9325C88.6049 13.2257 88.4349 13.6166 88.4349 14.1053C88.4349 14.5613 88.6389 14.9197 89.0129 15.1803C89.3869 15.4409 90.0669 15.7015 91.0869 15.9295C92.1409 16.1901 93.0589 16.4508 93.8409 16.7765C94.6229 17.1023 95.2009 17.5258 95.6089 18.047C96.0169 18.6008 96.2209 19.3175 96.2209 20.2622C96.2209 21.1743 95.9829 21.9561 95.4729 22.6728C94.9629 23.3569 94.2489 23.9107 93.3309 24.3016C92.3789 24.7251 91.2909 24.9205 90.1009 24.9205Z" fill="#FDB913"/>
  <path d="M102.443 24.7577H98.9746V9.93555H104.653C106.829 9.93555 108.461 10.3265 109.549 11.1409C110.637 11.9553 111.18 13.128 111.18 14.6591C111.18 16.1902 110.568 17.3955 109.345 18.275C108.121 19.1546 106.387 19.5781 104.177 19.5781H102.443V24.7577ZM104.653 12.7045H102.443V16.744H104.347C105.469 16.744 106.285 16.5811 106.829 16.2553C107.373 15.9296 107.645 15.4083 107.645 14.6591C107.645 13.9098 107.407 13.4212 106.931 13.128C106.455 12.8674 105.673 12.7045 104.653 12.7045Z" fill="#FDB913"/>
  <path d="M113.799 24.7577V9.93555H117.335V24.7577H113.799Z" fill="#FDB913"/>
  <path d="M134.029 21.5652L134.845 24.2039C134.539 24.4319 134.131 24.6274 133.621 24.7577C133.111 24.888 132.601 24.9531 132.091 24.9531C131.139 24.9531 130.323 24.7577 129.609 24.3993C128.895 24.041 128.317 23.4872 127.841 22.7705L126.005 19.9364C125.801 19.6106 125.563 19.3826 125.359 19.2523C125.155 19.122 124.917 19.0569 124.645 19.0243V24.7577H121.177V9.93555H126.243C128.385 9.93555 129.983 10.359 131.037 11.1734C132.091 11.9878 132.635 13.128 132.635 14.5614C132.635 15.7015 132.261 16.6462 131.547 17.3629C130.799 18.0796 129.881 18.5682 128.725 18.7962C129.201 19.0243 129.609 19.3826 129.983 19.9038L130.731 20.9788C131.207 21.6304 131.819 21.9887 132.567 21.9887C132.839 21.9887 133.111 21.9561 133.349 21.891C133.553 21.8258 133.791 21.6955 134.029 21.5652ZM126.005 12.7045H124.611V16.3856H125.971C127.059 16.3856 127.841 16.2227 128.317 15.9295C128.793 15.6364 129.031 15.1477 129.031 14.5288C129.031 13.8773 128.759 13.4212 128.215 13.128C127.705 12.8348 126.957 12.7045 126.005 12.7045Z" fill="#FDB913"/>
  <path d="M147.016 12.8674H139.91V15.7992H146.54V18.7311H139.91V21.7932H147.22L147.016 24.7251H136.442V9.93555H147.016V12.8674Z" fill="#FDB913"/>
  <path d="M78.098 31.2081L77.248 36.1271H71.06V51.3401H65.144V36.1597H58.582V31.2081H78.098Z" fill="#FDB913"/>
  <path d="M98.6343 46.128L99.9943 50.4932C99.5183 50.8515 98.8723 51.1447 98.0903 51.3727C97.3083 51.6008 96.4923 51.6985 95.6763 51.6985C94.1123 51.6985 92.8203 51.4379 91.8003 50.8841C90.7803 50.3303 89.9303 49.5485 89.3183 48.5712L87.3803 45.4113C87.1423 45.0204 86.9043 44.7598 86.7003 44.5643C86.4963 44.3689 86.2243 44.2386 85.8843 44.206V51.3727H80.0703V31.2081H87.1763C90.4063 31.2081 92.8203 31.7945 94.3503 32.9672C95.9143 34.14 96.6623 35.7688 96.6623 37.8537C96.6623 39.3196 96.2203 40.5575 95.3363 41.5348C94.4523 42.512 93.2623 43.1961 91.8003 43.5871C92.5483 43.8151 93.1263 44.2386 93.5683 44.8575L94.1123 45.6393C94.6223 46.3886 95.3703 46.7469 96.3903 46.7469C96.7643 46.7469 97.1383 46.7144 97.5123 46.6166C97.9203 46.5189 98.2943 46.356 98.6343 46.128ZM87.1423 35.7688H85.8843V39.7756H87.3803C88.6723 39.7756 89.5563 39.6128 90.0663 39.287C90.5763 38.9612 90.8143 38.44 90.8143 37.7559C90.8143 37.0067 90.4743 36.4855 89.7943 36.2248C89.1483 35.8991 88.2643 35.7688 87.1423 35.7688Z" fill="#FDB913"/>
  <path d="M101.116 51.3401L110.398 31.2081H115.328L124.27 51.3401H118.286L116.79 47.7242H108.664L107.134 51.3401H101.116ZM110.636 43.0658H114.818L112.778 38.1468L110.636 43.0658Z" fill="#FDB913"/>
  <path d="M126.174 51.3401V31.2081H132.09V51.3401H126.174Z" fill="#FDB913"/>
  <path d="M136.816 51.3401V31.2081H142.732V46.4212H151.504L151.164 51.3401H136.816Z" fill="#FDB913"/>
  <path d="M161.126 51.6334C158.474 51.6334 156.434 51.0796 154.938 50.0046C153.442 48.9296 152.626 47.3659 152.422 45.2811L157.896 44.4993C157.93 45.2159 158.27 45.8023 158.882 46.2584C159.494 46.7144 160.31 46.9099 161.296 46.9099C163.098 46.9099 164.016 46.4538 164.016 45.5417C164.016 45.1182 163.778 44.7924 163.268 44.5318C162.758 44.2712 161.942 44.0106 160.786 43.75C158.338 43.1962 156.536 42.4144 155.414 41.4697C154.258 40.525 153.714 39.1893 153.714 37.4628C153.748 36.1598 154.088 35.0196 154.802 34.0097C155.516 33.0325 156.502 32.2506 157.76 31.6968C159.018 31.143 160.514 30.8499 162.248 30.8499C164.356 30.8499 166.09 31.3711 167.484 32.3809C168.844 33.3908 169.626 34.7916 169.83 36.5507L164.662 37.3977C164.56 36.8439 164.254 36.3878 163.744 36.062C163.234 35.7037 162.622 35.5408 161.908 35.5408C161.228 35.5408 160.684 35.6711 160.31 35.9317C159.902 36.1923 159.698 36.5181 159.698 36.9742C159.698 37.3651 159.902 37.7234 160.31 38.0166C160.718 38.3098 161.466 38.603 162.588 38.8636C164.22 39.2545 165.546 39.678 166.668 40.1666C167.756 40.6553 168.606 41.2742 169.15 42.0235C169.728 42.7727 170 43.7826 170 44.9879C170 46.2909 169.626 47.4311 168.878 48.441C168.13 49.4182 167.11 50.2001 165.784 50.7539C164.458 51.3402 162.894 51.6334 161.126 51.6334Z" fill="#FDB913"/>
</svg>
