<svg width="20" height="20" viewBox="0 0 20 20" fill="none" xmlns="http://www.w3.org/2000/svg">
  <path d="M10.195 17.8904H3.09366C2.65811 17.8904 2.30464 17.5369 2.30464 17.1014V2.89869C2.30464 2.46314 2.65814 2.10967 3.09366 2.10967H10.195C10.6314 2.10967 10.984 1.75698 10.984 1.32065C10.984 0.884317 10.6314 0.531555 10.195 0.531555H3.09366C1.7886 0.531555 0.726562 1.59363 0.726562 2.89869V17.1013C0.726562 18.4064 1.7886 19.4684 3.09366 19.4684H10.195C10.6314 19.4684 10.984 19.1157 10.984 18.6794C10.984 18.2431 10.6314 17.8904 10.195 17.8904Z" fill="#121212"/>
  <path d="M19.4916 9.43822L14.6943 4.704C14.385 4.39784 13.8847 4.40181 13.5786 4.7119C13.2724 5.02199 13.2756 5.52144 13.5865 5.82759L17.0148 9.21097H7.82808C7.39175 9.21097 7.03906 9.56365 7.03906 9.99999C7.03906 10.4363 7.39175 10.789 7.82808 10.789H17.0148L13.5865 14.1724C13.2756 14.4786 13.2732 14.978 13.5786 15.2881C13.7332 15.4443 13.9368 15.5232 14.1404 15.5232C14.3408 15.5232 14.5412 15.4475 14.6943 15.296L19.4916 10.5617C19.6415 10.4134 19.7268 10.2114 19.7268 9.99995C19.7268 9.78857 19.6423 9.58737 19.4916 9.43822Z" fill="#121212"/>
</svg>
