<svg width="60" height="60" viewBox="0 0 60 60" fill="none" xmlns="http://www.w3.org/2000/svg">
<circle cx="30" cy="30" r="30" fill="#FDB913"/>
<path d="M30 10C18.735 10 10 18.2548 10 29.3995C10 35.2293 12.39 40.2692 16.28 43.7491C16.605 44.0391 16.805 44.4491 16.815 44.889L16.925 48.4489C16.933 48.7109 17.0052 48.9668 17.1353 49.1943C17.2654 49.4218 17.4494 49.6138 17.6711 49.7536C17.8928 49.8933 18.1454 49.9764 18.4068 49.9957C18.6681 50.0149 18.9302 49.9697 19.17 49.8639L23.14 48.114C23.475 47.964 23.855 47.939 24.21 48.034C26.035 48.5339 27.975 48.8039 30 48.8039C41.265 48.8039 50 40.5492 50 29.4045C50 18.2598 41.265 10 30 10Z" fill="black"/>
<path d="M17.9909 35.0722L23.8659 25.7525C24.0869 25.4016 24.3782 25.1004 24.7215 24.8677C25.0649 24.6351 25.4527 24.4762 25.8605 24.4011C26.2683 24.3259 26.6873 24.3361 27.091 24.431C27.4947 24.5259 27.8743 24.7035 28.2059 24.9525L32.8809 28.4574C33.0896 28.6137 33.3435 28.6977 33.6042 28.6968C33.8649 28.6959 34.1183 28.6101 34.3259 28.4524L40.6359 23.6625C41.4759 23.0226 42.5759 24.0325 42.0159 24.9275L36.1359 34.2423C35.9149 34.5931 35.6235 34.8944 35.2802 35.127C34.9369 35.3596 34.5491 35.5185 34.1413 35.5937C33.7334 35.6689 33.3145 35.6587 32.9108 35.5637C32.5071 35.4688 32.1275 35.2913 31.7959 35.0422L27.1209 31.5373C26.9122 31.3811 26.6583 31.2971 26.3975 31.298C26.1368 31.2989 25.8835 31.3846 25.6759 31.5423L19.3659 36.3322C18.5259 36.9722 17.4259 35.9672 17.9909 35.0722Z" fill="#FDB913"/>
</svg>
