<svg width="335" height="81" viewBox="0 0 335 81" fill="none" xmlns="http://www.w3.org/2000/svg">
<circle cx="73" cy="33" r="16" fill="#E2E2E2"/>
<path d="M70.316 38V36.222H72.556V30.958L71.002 32.036L69.966 30.482L73.508 28.06H74.768V36.222H76.854V38H70.316Z" fill="black"/>
<circle cx="258" cy="33" r="16" fill="#FDB913"/>
<path d="M254.896 38V36.502C256.389 35.4473 257.472 34.4533 258.144 33.52C258.816 32.5867 259.152 31.7793 259.152 31.098C259.152 30.706 259.045 30.4027 258.83 30.188C258.615 29.9733 258.317 29.866 257.934 29.866C257.505 29.866 257.141 29.9967 256.842 30.258C256.543 30.51 256.324 30.846 256.184 31.266L254.574 30.398C254.733 29.9127 254.985 29.4833 255.33 29.11C255.675 28.7367 256.091 28.4473 256.576 28.242C257.071 28.0273 257.612 27.92 258.2 27.92C258.844 27.92 259.404 28.046 259.88 28.298C260.356 28.5407 260.725 28.886 260.986 29.334C261.247 29.7727 261.373 30.2813 261.364 30.86C261.364 31.728 261.084 32.61 260.524 33.506C259.973 34.3927 259.049 35.298 257.752 36.222H261.602V38H254.896Z" fill="black"/>
<path d="M73 17V1H258V17" stroke="#E2E2E2" stroke-width="2"/>
<path d="M1.07277 71V61.06H4.29277C6.25277 61.06 7.7321 61.4753 8.73077 62.306C9.72943 63.1367 10.2288 64.3687 10.2288 66.002C10.2288 66.9913 10.0048 67.8593 9.55677 68.606C9.10877 69.3527 8.48343 69.9407 7.68077 70.37C6.8781 70.79 5.94943 71 4.89477 71H1.07277ZM3.35477 68.97H4.79677C5.8141 68.97 6.5841 68.7273 7.10677 68.242C7.63877 67.7473 7.90477 67.024 7.90477 66.072C7.90477 65.064 7.62943 64.3173 7.07877 63.832C6.53743 63.3373 5.7021 63.09 4.57277 63.09H3.35477V68.97ZM0.330766 66.758V65.162H5.73477V66.758H0.330766ZM10.121 71L14.433 61.06H16.351L20.495 71H18.171L17.373 68.97H13.271L12.445 71H10.121ZM14.055 67.066H16.617L15.357 63.86L14.055 67.066ZM16.505 57.658L17.877 57.826C17.8304 58.5727 17.5784 59.1607 17.121 59.59C16.6637 60.0193 16.071 60.234 15.343 60.234C14.615 60.234 14.0224 60.0193 13.565 59.59C13.1077 59.1607 12.8557 58.5727 12.809 57.826L14.181 57.658C14.3117 58.4327 14.699 58.82 15.343 58.82C15.987 58.82 16.3744 58.4327 16.505 57.658ZM27.5968 61.06H29.7948V71H27.7648L23.3548 64.826V71H21.1568V61.06H23.1868L27.5968 67.234V61.06ZM36.6124 65.596H40.8544V71H39.0484L38.8804 70.076C38.5631 70.4587 38.1524 70.734 37.6484 70.902C37.1538 71.0607 36.6311 71.14 36.0804 71.14C35.0911 71.14 34.2324 70.944 33.5044 70.552C32.7858 70.16 32.2258 69.6 31.8244 68.872C31.4324 68.1347 31.2364 67.2527 31.2364 66.226C31.2364 65.1807 31.4604 64.2613 31.9084 63.468C32.3658 62.6653 33.0098 62.04 33.8404 61.592C34.6711 61.144 35.6464 60.92 36.7664 60.92C37.7091 60.92 38.5024 61.088 39.1464 61.424C39.7998 61.7507 40.3458 62.25 40.7844 62.922L39.0344 64.196C38.8011 63.776 38.4791 63.4727 38.0684 63.286C37.6578 63.09 37.2238 62.992 36.7664 62.992C36.1131 62.992 35.5531 63.1273 35.0864 63.398C34.6198 63.6593 34.2558 64.0327 33.9944 64.518C33.7424 64.994 33.6164 65.5493 33.6164 66.184C33.6164 67.108 33.8591 67.822 34.3444 68.326C34.8298 68.83 35.4971 69.082 36.3464 69.082C36.6824 69.082 37.0184 69.026 37.3544 68.914C37.6904 68.7927 37.9751 68.6107 38.2084 68.368C38.4511 68.1253 38.5958 67.822 38.6424 67.458H36.6124V65.596ZM45.9439 71V61.06H48.2259V65.358L52.0899 61.06H54.8339L50.3119 66.03C50.5265 66.142 50.7179 66.2867 50.8859 66.464C51.0632 66.6413 51.2219 66.8373 51.3619 67.052L52.2159 68.438C52.3745 68.69 52.5425 68.872 52.7199 68.984C52.9065 69.0867 53.1305 69.138 53.3919 69.138C53.5692 69.138 53.7372 69.1193 53.8959 69.082C54.0545 69.0353 54.2132 68.9607 54.3719 68.858L54.8899 70.622C54.6939 70.7807 54.4325 70.9067 54.1059 71C53.7885 71.0933 53.4572 71.14 53.1119 71.14C51.8892 71.14 50.9792 70.6547 50.3819 69.684L49.1919 67.78C49.0519 67.556 48.9119 67.388 48.7719 67.276C48.6319 67.1547 48.4499 67.0753 48.2259 67.038V71H45.9439ZM64.0671 61.06L60.6511 66.562V71H58.3551V66.646L54.8271 61.06H57.3891L59.5871 64.574L61.6731 61.06H64.0671ZM58.5931 60.164L60.3011 57.686L62.4851 58.232L60.4691 60.164H58.5931ZM75.887 61.06L75.593 63.062H72.583V71H70.287V63.062H67.137V61.06H75.887ZM76.5142 71V61.06H78.7962V64.994H82.9542V61.06H85.2502V71H82.9542V66.996H78.7962V71H76.5142ZM91.7015 71.14C90.6562 71.1493 89.7602 70.958 89.0135 70.566C88.2669 70.174 87.6929 69.6093 87.2915 68.872C86.8902 68.1347 86.6895 67.248 86.6895 66.212C86.6895 65.176 86.8995 64.2613 87.3195 63.468C87.7489 62.6653 88.3509 62.04 89.1255 61.592C89.9002 61.144 90.8195 60.92 91.8835 60.92C92.8262 60.92 93.6522 61.1253 94.3615 61.536C95.0709 61.9467 95.6215 62.5207 96.0135 63.258C96.4149 63.986 96.6155 64.8447 96.6155 65.834C96.6155 66.898 96.4055 67.8267 95.9855 68.62C95.5655 69.4133 94.9822 70.0293 94.2355 70.468C93.4982 70.9067 92.6535 71.1307 91.7015 71.14ZM91.6175 69.11C92.4109 69.11 93.0549 68.8253 93.5495 68.256C94.0442 67.6773 94.2915 66.8793 94.2915 65.862C94.2915 64.9753 94.0675 64.2707 93.6195 63.748C93.1715 63.216 92.5695 62.95 91.8135 62.95C91.2629 62.95 90.7775 63.0853 90.3575 63.356C89.9375 63.6267 89.6062 64.0047 89.3635 64.49C89.1302 64.966 89.0135 65.526 89.0135 66.17C89.0135 67.1033 89.2422 67.8267 89.6995 68.34C90.1662 68.8533 90.8055 69.11 91.6175 69.11ZM94.4035 60.164H92.4155L91.6595 59.142L90.9035 60.164H88.9155L90.7775 57.826H92.5415L94.4035 60.164ZM104.501 61.06H106.699V71H104.669L100.259 64.826V71H98.061V61.06H100.091L104.501 67.234V61.06ZM113.517 65.596H117.759V71H115.953L115.785 70.076C115.467 70.4587 115.057 70.734 114.553 70.902C114.058 71.0607 113.535 71.14 112.985 71.14C111.995 71.14 111.137 70.944 110.409 70.552C109.69 70.16 109.13 69.6 108.729 68.872C108.337 68.1347 108.141 67.2527 108.141 66.226C108.141 65.1807 108.365 64.2613 108.813 63.468C109.27 62.6653 109.914 62.04 110.745 61.592C111.575 61.144 112.551 60.92 113.671 60.92C114.613 60.92 115.407 61.088 116.051 61.424C116.704 61.7507 117.25 62.25 117.689 62.922L115.939 64.196C115.705 63.776 115.383 63.4727 114.973 63.286C114.562 63.09 114.128 62.992 113.671 62.992C113.017 62.992 112.457 63.1273 111.991 63.398C111.524 63.6593 111.16 64.0327 110.899 64.518C110.647 64.994 110.521 65.5493 110.521 66.184C110.521 67.108 110.763 67.822 111.249 68.326C111.734 68.83 112.401 69.082 113.251 69.082C113.587 69.082 113.923 69.026 114.259 68.914C114.595 68.7927 114.879 68.6107 115.113 68.368C115.355 68.1253 115.5 67.822 115.547 67.458H113.517V65.596ZM130.506 61.06L130.212 63.062H127.202V71H124.906V63.062H121.756V61.06H130.506ZM131.133 71V61.06H133.415V71H131.133ZM141.73 61.06H143.928V71H141.898L137.488 64.826V71H135.29V61.06H137.32L141.73 67.234V61.06Z" fill="#E2E2E2"/>
<path d="M182.744 71H180.224L183.514 65.974L180.406 61.06H182.982L184.83 64.042L186.664 61.06H189.114L185.992 65.862L189.24 71H186.622L184.732 67.85L182.744 71ZM189.283 71L193.595 61.06H195.513L199.657 71H197.333L196.535 68.97H192.433L191.607 71H189.283ZM193.217 67.066H195.779L194.519 63.86L193.217 67.066ZM193.567 60.164L195.275 57.686L197.459 58.232L195.443 60.164H193.567ZM208.809 69.054C208.399 69.726 207.834 70.244 207.115 70.608C206.397 70.9627 205.599 71.14 204.721 71.14C203.648 71.14 202.729 70.944 201.963 70.552C201.207 70.16 200.624 69.6 200.213 68.872C199.812 68.1347 199.611 67.2527 199.611 66.226C199.611 65.1713 199.835 64.2473 200.283 63.454C200.731 62.6607 201.352 62.04 202.145 61.592C202.948 61.144 203.872 60.92 204.917 60.92C205.832 60.92 206.602 61.088 207.227 61.424C207.862 61.76 208.394 62.2687 208.823 62.95L207.073 64.196C206.849 63.7667 206.541 63.454 206.149 63.258C205.757 63.062 205.337 62.964 204.889 62.964C204.301 62.964 203.788 63.0993 203.349 63.37C202.911 63.6407 202.565 64.0187 202.313 64.504C202.071 64.9893 201.949 65.5493 201.949 66.184C201.949 67.108 202.192 67.8267 202.677 68.34C203.163 68.8533 203.849 69.11 204.735 69.11C205.211 69.11 205.659 68.998 206.079 68.774C206.509 68.5407 206.854 68.1907 207.115 67.724L208.809 69.054ZM219.528 61.06H221.726V71H219.696L215.286 64.826V71H213.088V61.06H215.118L219.528 67.234V61.06ZM223.602 71V61.06H225.884V64.994H230.042V61.06H232.338V71H230.042V66.996H225.884V71H223.602ZM232.937 71L237.249 61.06H239.167L243.311 71H240.987L240.189 68.97H236.087L235.261 71H232.937ZM236.871 67.066H239.433L238.173 63.86L236.871 67.066ZM238.159 74.332C237.749 74.332 237.422 74.206 237.179 73.954C236.937 73.7113 236.815 73.4173 236.815 73.072C236.815 72.7173 236.937 72.414 237.179 72.162C237.422 71.9193 237.749 71.798 238.159 71.798C238.579 71.798 238.906 71.9193 239.139 72.162C239.382 72.414 239.503 72.7173 239.503 73.072C239.503 73.4173 239.382 73.7113 239.139 73.954C238.906 74.206 238.579 74.332 238.159 74.332ZM240.903 60.164H238.915L238.159 59.142L237.403 60.164H235.415L237.277 57.826H239.041L240.903 60.164ZM250.413 61.06H252.611V71H250.581L246.171 64.826V71H243.973V61.06H246.003L250.413 67.234V61.06ZM265.672 61.06L265.378 63.062H262.368V71H260.072V63.062H256.922V61.06H265.672ZM266.299 71V61.06H268.581V64.994H272.739V61.06H275.035V71H272.739V66.996H268.581V71H266.299ZM281.487 71.14C280.441 71.1493 279.545 70.958 278.799 70.566C278.052 70.174 277.478 69.6093 277.077 68.872C276.675 68.1347 276.475 67.248 276.475 66.212C276.475 65.176 276.685 64.2613 277.105 63.468C277.534 62.6653 278.136 62.04 278.911 61.592C279.685 61.144 280.605 60.92 281.669 60.92C282.611 60.92 283.437 61.1253 284.147 61.536C284.856 61.9467 285.407 62.5207 285.799 63.258C286.2 63.986 286.401 64.8447 286.401 65.834C286.401 66.898 286.191 67.8267 285.771 68.62C285.351 69.4133 284.767 70.0293 284.021 70.468C283.283 70.9067 282.439 71.1307 281.487 71.14ZM281.403 69.11C282.196 69.11 282.84 68.8253 283.335 68.256C283.829 67.6773 284.077 66.8793 284.077 65.862C284.077 64.9753 283.853 64.2707 283.405 63.748C282.957 63.216 282.355 62.95 281.599 62.95C281.048 62.95 280.563 63.0853 280.143 63.356C279.723 63.6267 279.391 64.0047 279.149 64.49C278.915 64.966 278.799 65.526 278.799 66.17C278.799 67.1033 279.027 67.8267 279.485 68.34C279.951 68.8533 280.591 69.11 281.403 69.11ZM284.189 60.164H282.201L281.445 59.142L280.689 60.164H278.701L280.563 57.826H282.327L284.189 60.164ZM294.286 61.06H296.484V71H294.454L290.044 64.826V71H287.846V61.06H289.876L294.286 67.234V61.06ZM303.302 65.596H307.544V71H305.738L305.57 70.076C305.253 70.4587 304.842 70.734 304.338 70.902C303.843 71.0607 303.321 71.14 302.77 71.14C301.781 71.14 300.922 70.944 300.194 70.552C299.475 70.16 298.915 69.6 298.514 68.872C298.122 68.1347 297.926 67.2527 297.926 66.226C297.926 65.1807 298.15 64.2613 298.598 63.468C299.055 62.6653 299.699 62.04 300.53 61.592C301.361 61.144 302.336 60.92 303.456 60.92C304.399 60.92 305.192 61.088 305.836 61.424C306.489 61.7507 307.035 62.25 307.474 62.922L305.724 64.196C305.491 63.776 305.169 63.4727 304.758 63.286C304.347 63.09 303.913 62.992 303.456 62.992C302.803 62.992 302.243 63.1273 301.776 63.398C301.309 63.6593 300.945 64.0327 300.684 64.518C300.432 64.994 300.306 65.5493 300.306 66.184C300.306 67.108 300.549 67.822 301.034 68.326C301.519 68.83 302.187 69.082 303.036 69.082C303.372 69.082 303.708 69.026 304.044 68.914C304.38 68.7927 304.665 68.6107 304.898 68.368C305.141 68.1253 305.285 67.822 305.332 67.458H303.302V65.596ZM320.291 61.06L319.997 63.062H316.987V71H314.691V63.062H311.541V61.06H320.291ZM320.918 71V61.06H323.2V71H320.918ZM331.515 61.06H333.713V71H331.683L327.273 64.826V71H325.075V61.06H327.105L331.515 67.234V61.06Z" fill="#FDB913"/>
</svg>
