<svg width="28" height="18" viewBox="0 0 28 18" fill="none" xmlns="http://www.w3.org/2000/svg">
<path d="M25.305 0C26.793 0 28 1.207 28 2.695V15.305C28 16.793 26.793 18 25.305 18H2.695C1.207 18 0 16.793 0 15.305V2.695C0 1.207 1.207 0 2.695 0H25.305ZM25.305 1H2.695C1.808 1 1.08 1.681 1.006 2.549L1 2.695V15.305C1 16.192 1.681 16.92 2.549 16.994L2.695 17H25.305C26.192 17 26.92 16.319 26.994 15.451L27 15.305V2.695C27 1.808 26.319 1.08 25.451 1.006L25.305 1Z" fill="#242424"/>
<path d="M6.146 14.214L6.676 12.608H8.962L9.492 14.214H10.663L8.458 8H7.205L5 14.214H6.146ZM8.699 11.751H6.934L7.804 9.098H7.834L8.699 11.751ZM13.954 14.214V8.94H15.81V8H10.986V8.939H12.846V14.214H13.954ZM17.571 14.214V9.804H17.601L19.397 14.214H20.155L21.951 9.804H21.981V14.214H22.981V8H21.697L19.793 12.742H19.759L17.855 8H16.568V14.214H17.571Z" fill="black"/>
<path d="M24 3H21C20.4477 3 20 3.44772 20 4V5C20 5.55228 20.4477 6 21 6H24C24.5523 6 25 5.55228 25 5V4C25 3.44772 24.5523 3 24 3Z" fill="#0D5CB6"/>
</svg>
