<svg width="25" height="25" viewBox="0 0 25 25" fill="none" xmlns="http://www.w3.org/2000/svg">
<circle cx="12.5" cy="12.5" r="11.75" fill="white" stroke="#FDB913" stroke-width="1.5"/>
<path fill-rule="evenodd" clip-rule="evenodd" d="M8.77952 8.06636C9.05847 7.78741 9.51073 7.78741 9.78967 8.06636L12.856 11.1327L15.9224 8.06636C16.2013 7.78741 16.6536 7.78741 16.9325 8.06636C17.2115 8.3453 17.2115 8.79756 16.9325 9.07651L13.8662 12.1429L16.9325 15.2092C17.2115 15.4882 17.2115 15.9404 16.9325 16.2194C16.6536 16.4983 16.2013 16.4983 15.9224 16.2194L12.856 13.153L9.78967 16.2194C9.51073 16.4983 9.05847 16.4983 8.77952 16.2194C8.50058 15.9404 8.50058 15.4882 8.77952 15.2092L11.8459 12.1429L8.77952 9.07651C8.50058 8.79756 8.50058 8.3453 8.77952 8.06636Z" fill="#FDB913"/>
</svg>
