<svg width="32" height="32" viewBox="0 0 32 32" fill="none" xmlns="http://www.w3.org/2000/svg">
  <path d="M16.0002 2.66666C23.3606 2.67474 29.3254 8.63954 29.3335 16L29.3335 16.2667C29.1869 23.5939 23.154 29.4294 15.8259 29.3321C8.49782 29.2349 2.6219 23.2415 2.66978 15.9129C2.71767 8.58427 8.67141 2.66812 16.0002 2.66666ZM16.0002 26.6667C21.8912 26.6667 26.6668 21.891 26.6668 16C26.6668 10.1089 21.8912 5.33332 16.0002 5.33332C10.1091 5.33332 5.3335 10.1089 5.3335 16C5.34011 21.8883 10.1119 26.66 16.0002 26.6667ZM16.0002 9.33332L17.8802 11.2133L14.4402 14.6667L22.6668 14.6667L22.6668 17.3333L14.4402 17.3333L17.8802 20.7867L16.0002 22.6667L9.3335 16L16.0002 9.33332Z" fill="#FDB913"/>
</svg>
