<svg width="14" height="14" viewBox="0 0 14 14" fill="none" xmlns="http://www.w3.org/2000/svg">
  <path d="M6.99943 13.6667C3.31921 13.6626 0.336805 10.6802 0.332764 7V6.86667C0.406051 3.20302 3.42249 0.285304 7.08654 0.33392C10.7506 0.382536 13.6886 3.37926 13.6646 7.04356C13.6407 10.7079 10.6638 13.6659 6.99943 13.6667ZM6.99943 1.66667C4.05391 1.66667 1.6661 4.05448 1.6661 7C1.6661 9.94552 4.05391 12.3333 6.99943 12.3333C9.94495 12.3333 12.3328 9.94552 12.3328 7C12.3295 4.05585 9.94358 1.66997 6.99943 1.66667ZM6.99943 10.3333L6.05943 9.39333L7.77943 7.66667H3.6661V6.33333H7.77943L6.05943 4.60667L6.99943 3.66667L10.3328 7L6.99943 10.3333Z" fill="#121212"/>
</svg>
