<svg width="40" height="40" viewBox="0 0 40 40" fill="none" xmlns="http://www.w3.org/2000/svg">
  <path d="M20.0002 36.6667C10.7996 36.6566 3.3436 29.2006 3.3335 20V19.6667C3.51672 10.5076 11.0578 3.21327 20.2179 3.33481C29.3781 3.45635 36.723 10.9482 36.6631 20.1089C36.6033 29.2697 29.1611 36.6648 20.0002 36.6667ZM20.0002 6.66668C12.6364 6.66668 6.66683 12.6362 6.66683 20C6.66683 27.3638 12.6364 33.3333 20.0002 33.3333C27.364 33.3333 33.3335 27.3638 33.3335 20C33.3252 12.6396 27.3605 6.67494 20.0002 6.66668ZM17.5835 28.3333L15.2268 25.975L21.1185 20.0833L15.2268 14.1917L17.5835 11.8333L25.8335 20.0833L17.5852 28.3333H17.5835Z" fill="#FDB913"/>
</svg>
