<svg width="34" height="34" viewBox="0 0 34 34" fill="none" xmlns="http://www.w3.org/2000/svg">
  <path d="M17.0002 33.6667C7.79961 33.6566 0.3436 26.2006 0.333496 17V16.6667C0.516715 7.50756 8.05781 0.21327 17.2179 0.33481C26.3781 0.45635 33.723 7.94815 33.6631 17.1089C33.6033 26.2697 26.1611 33.6648 17.0002 33.6667ZM17.0002 3.66668C9.63637 3.66668 3.66683 9.63621 3.66683 17C3.66683 24.3638 9.63637 30.3333 17.0002 30.3333C24.364 30.3333 30.3335 24.3638 30.3335 17C30.3252 9.63964 24.3605 3.67494 17.0002 3.66668ZM14.5835 25.3333L12.2268 22.975L18.1185 17.0833L12.2268 11.1917L14.5835 8.83334L22.8335 17.0833L14.5852 25.3333H14.5835Z" fill="#FDB913"/>
</svg>
