<svg width="82" height="65" viewBox="0 0 82 65" fill="none" xmlns="http://www.w3.org/2000/svg">
  <path d="M73.2649 63.0253C73.9252 63.3428 74.628 63.5016 75.3792 63.5016C76.5363 63.5016 77.5601 63.239 78.4385 62.7077C79.3352 62.1887 80.0864 61.407 80.6922 60.3566C80.9285 59.9719 81.1223 59.5933 81.2677 59.2208C81.4252 58.8361 81.5646 58.4269 81.6797 57.9873C81.7705 57.5231 81.819 57.059 81.819 56.5949C81.8432 56.1308 81.8069 55.7156 81.6978 55.3431L78.6991 55.8194L75.7003 56.3568L75.5791 58.9643C76.1728 58.8055 76.6635 58.6834 77.0573 58.604L78.6566 58.3048C78.4991 58.9399 78.1962 59.4468 77.7479 59.8193C77.2754 60.2284 76.7302 60.4482 76.1062 60.4788C75.3671 60.5215 74.7915 60.3383 74.3675 59.9414C74.01 59.6116 73.7738 59.1231 73.6587 58.488C73.4769 57.3094 73.7132 56.1797 74.3675 55.1049C74.9491 54.1523 75.6094 53.5416 76.3606 53.2729C77.2148 52.992 77.966 53.2424 78.6142 54.0118L80.5892 51.8989C80.1167 51.2088 79.5714 50.6898 78.9474 50.3478C78.3295 50.018 77.6268 49.8532 76.8331 49.8532C75.9365 49.8532 75.1126 50.0547 74.3675 50.4516C73.6163 50.8485 72.9317 51.4592 72.3138 52.2836C71.8533 52.9187 71.4596 53.621 71.1264 54.3965C70.8598 55.0988 70.6781 55.8682 70.5751 56.7049C70.5327 57.2117 70.5205 57.6575 70.5327 58.0605C70.5569 58.5246 70.6054 58.946 70.672 59.3124C70.775 59.7215 70.8962 60.1185 71.0294 60.4849C71.1506 60.723 71.3505 61.0833 71.6413 61.5597C72.1017 62.2009 72.6409 62.6955 73.2649 63.0253ZM60.8033 63.6237L64.0989 62.8054C63.9959 61.4253 63.9414 60.0635 63.9414 58.7262C63.9959 58.83 64.1655 59.1109 64.4563 59.5628L66.1526 62.1703C66.4313 62.5428 66.5767 62.7566 66.5888 62.8054L69.8844 62.0116C69.5936 58.6407 69.7027 54.5431 70.1995 49.7127L66.5464 50.3112V57.1751C66.298 56.7781 66.0617 56.2285 65.8376 55.5202C65.468 54.3416 65.0924 52.9309 64.7108 51.3004C64.5775 50.6531 64.4806 50.1218 64.4139 49.7066L60.779 50.3234L60.8033 63.6237ZM56.1627 63.184L57.8408 62.8054L59.5008 62.3657C59.3675 60.723 59.3251 58.8422 59.3614 56.7354C59.3978 54.6774 59.5371 52.4668 59.7734 50.1096L56.1385 50.6898L56.1627 63.184ZM46.2334 63.1657L49.4927 62.3474C49.3715 60.5276 49.3352 58.659 49.3715 56.7354L52.3521 63.4039L55.9446 61.7123L51.9583 54.4881L55.6114 51.4226L52.5096 49.9692C51.6797 50.7814 50.7104 51.6424 49.6078 52.5584C49.632 51.8684 49.6987 51.044 49.8077 50.0913L46.1546 50.6653L46.2334 63.1657ZM41.6898 63.184L43.3679 62.8054L45.0278 62.3657C44.8945 60.723 44.8521 58.8422 44.8885 56.7354C44.9248 54.6774 45.0642 52.4668 45.3004 50.1096L41.6655 50.6898L41.6898 63.184ZM34.3049 52.8576C34.8198 52.7111 35.2439 52.6622 35.5892 52.7172C36.51 52.8088 36.7766 53.279 36.3768 54.1278C36.1405 54.5797 35.5104 54.9156 34.4805 55.1415L34.3049 52.8576ZM34.7168 57.9873C35.3893 57.7491 36.0314 57.743 36.6494 57.9689C37.2915 58.1827 37.546 58.5979 37.4006 59.2208C37.2976 59.6971 36.9402 60.0208 36.3343 60.1979C35.8982 60.3017 35.3893 60.3383 34.7956 60.2956L34.7168 57.9873ZM31.7968 56.3385C31.9422 58.9277 31.9846 61.2177 31.9361 63.2085C33.7415 63.3795 35.2318 63.3733 36.4192 63.1901C37.9882 62.8848 39.2544 62.1948 40.2298 61.12C40.6659 60.6437 40.9204 60.0941 40.9991 59.4651C41.09 58.946 41.0052 58.4147 40.7447 57.8712C40.2419 56.7293 39.3513 56.082 38.0609 55.9232C39.115 55.0072 39.6118 54.0423 39.5634 53.0347C39.4846 52.1309 39.006 51.4165 38.1215 50.8852C37.2552 50.3783 36.189 50.1341 34.9228 50.1463C33.6566 50.1707 32.5359 50.3966 31.5484 50.8241C31.5908 51.6607 31.6817 53.4988 31.7968 56.3385ZM8.72733 1.72029C8.81214 1.69586 8.90301 1.67754 8.98783 1.64701C11.9987 0.511165 14.4462 0.773753 16.7726 3.17368C17.239 3.65611 17.1906 3.94312 16.5666 4.21181C16.1486 4.39502 15.7124 4.52326 15.3489 4.6515C15.3792 4.90187 15.464 5.14003 15.4155 5.34155C15.3428 5.64688 15.4216 5.80566 15.6578 6.00718C16.1061 6.37969 16.0153 6.68502 15.5003 6.9415C15.3065 7.03921 15.1005 7.24073 15.0339 7.43614C14.9248 7.78422 14.9066 8.16894 14.8703 8.53535C14.7976 9.20708 13.9252 9.8605 13.2831 9.6834C13.0286 9.61623 12.9135 9.66508 12.7742 9.90324C12.6167 10.1903 12.3986 10.4712 12.1441 10.6605C11.7685 10.9414 11.6049 11.2772 11.7503 11.6986C11.8836 12.0711 12.1199 12.407 12.2774 12.7734C12.4531 13.1581 12.6833 13.555 12.7257 13.9642C12.7802 14.5138 12.7621 15.0939 12.6348 15.6252C12.3562 16.7549 12.0048 17.8664 11.6473 18.9717C11.508 19.4113 11.5383 19.79 11.817 20.1564C12.3864 20.9197 13.1982 21.1456 14.0706 20.7792C14.1978 20.7243 14.3311 20.651 14.4644 20.651C14.7249 20.6571 15.0096 20.651 15.2338 20.7609C15.7548 21.0052 16.2213 21.3838 16.7604 21.5853C17.76 21.9639 18.275 22.8738 19.0262 23.5272C19.0868 23.5822 19.1171 23.6921 19.1292 23.7837C19.1534 23.9303 19.1474 24.083 19.1534 24.2295C18.9959 24.2295 18.8142 24.2784 18.6748 24.2234C18.3356 24.0891 18.0145 23.9059 17.6449 23.7227C17.6631 24.486 17.1724 24.8463 16.6029 25.1211C16.8756 25.6035 19.947 27.118 21.5343 27.5821C21.9402 27.1485 22.1037 27.1058 22.6732 27.3134C23.3941 27.5821 24.109 27.8569 24.7633 28.1073C25.363 27.1485 25.9325 28.0034 26.4777 28.0401C29.2705 22.8983 35.2863 21.1456 40.1449 23.4601C44.9127 25.7318 47.2572 31.3377 45.5246 36.3207C43.7314 41.4809 38.5759 44.3205 33.2205 43.0931C28.1982 41.945 23.9636 36.449 25.6599 29.9942C24.6784 29.6034 23.691 29.2126 22.7035 28.8278C22.6247 28.7973 22.5096 28.7973 22.4369 28.834C22.0189 29.0538 21.6251 28.9378 21.2374 28.7607C21.0012 28.6508 20.7891 28.4859 20.5528 28.376C20.1045 28.1744 19.8561 28.3393 19.8986 28.834C20.0621 30.6904 19.947 32.5651 20.6074 34.3849C21.0436 35.5818 21.1526 36.9009 21.4919 38.1405C21.7705 39.1542 22.1159 40.1496 22.5399 41.1084C22.8186 41.7435 23.3517 41.9145 24.0181 41.7129C24.4361 41.5847 24.8178 41.3343 25.2237 41.145C25.5872 40.9801 25.9385 40.7725 26.3202 40.6748C26.7746 40.5588 27.0351 40.7847 26.9624 41.2488C26.817 42.1587 26.6049 43.032 25.7932 43.6366C25.363 43.9541 24.9995 44.3694 24.636 44.7663C24.1574 45.2915 23.7455 45.8777 23.2427 46.3785C23.0306 46.5922 22.8489 46.7693 22.7762 47.0746C22.649 47.5937 22.3158 47.9601 21.8553 48.241C21.3646 48.5402 20.9224 48.9127 20.4438 49.2547C20.7104 49.7005 20.9709 50.0852 21.1889 50.4944C23.067 54.0607 22.861 57.5354 20.6619 60.8818C20.2439 61.5169 19.6684 62.0543 19.1655 62.6344C18.693 62.9825 18.2144 63.3306 17.7419 63.6726C17.5601 63.7581 17.3844 63.8375 17.2027 63.9291C12.4107 66.3046 6.94622 64.6191 4.30486 59.9536C2.02094 55.9171 3.15381 50.4699 6.83717 47.6792C8.07909 46.7388 9.46642 46.1464 11.0476 45.7983C10.8961 44.7419 10.7326 43.7037 10.5993 42.6595C10.5629 42.3603 10.4297 42.2015 10.157 42.0793C8.49711 41.3343 6.83112 40.6015 5.19541 39.8077C4.66229 39.5512 4.26851 39.539 3.84444 39.9542C3.61423 40.1802 3.33555 40.3634 3.05082 40.516C2.39048 40.8763 1.71197 41.2122 1.03346 41.5359C0.760843 41.6641 0.579095 41.4992 0.500339 41.2549C0.433699 41.0595 0.336766 40.742 0.42158 40.6565C1.74226 39.3375 2.80245 37.8291 3.72935 36.2108C4.02014 35.704 4.51084 35.307 4.94703 34.904C5.17118 34.6964 5.49832 34.6597 5.74064 34.9223C5.99509 35.2032 5.72854 35.3986 5.58314 35.6002C5.28024 36.0215 4.91068 36.4123 4.66836 36.8703C4.12918 37.9024 4.3715 38.513 5.41956 38.9772C6.75841 39.5695 8.09728 40.168 9.44219 40.7603C10.2055 41.0962 10.9749 41.432 11.714 41.7557C11.7261 40.4672 11.7201 39.2092 11.7503 37.9573C11.7625 37.4627 11.8655 36.9681 11.8897 36.4734C11.9139 36.0276 11.823 35.6307 11.3747 35.3681C10.4357 34.8124 9.50277 34.2445 8.59405 33.6338C6.82507 32.443 5.40745 30.782 3.43855 29.8355C2.03912 29.1637 1.36666 27.9057 1.39089 26.2997C1.39695 25.9821 1.36666 25.6096 1.20915 25.3593C0.875953 24.8219 1.03346 24.5226 1.44541 24.0952C1.57263 23.9608 1.70592 23.8265 1.83314 23.6921C2.0997 23.4173 2.19663 23.112 2.07546 22.7151C1.98459 22.4097 1.93007 22.0616 1.9846 21.7563C2.20269 20.5533 2.4753 19.3564 2.71763 18.1534C2.86302 17.4084 3.08111 16.6633 3.09323 15.9122C3.12352 14.2146 3.67481 12.7123 4.5896 11.3322C5.44985 10.0376 6.60697 9.12159 8.13969 8.75519C8.82426 8.59031 9.37554 8.02849 9.44823 7.37508C9.52093 6.76441 9.11504 6.19038 8.50316 5.79955C8.15785 5.58582 7.72773 5.24995 7.64898 4.89576C7.45512 4.01029 7.23096 3.05154 7.97006 2.25768C8.2245 2.08669 8.47894 1.90349 8.72733 1.72029ZM28.9919 28.4676L29.0706 28.5164C29.0161 28.8156 28.9313 29.121 28.9192 29.4202C28.9131 29.5545 29.004 29.7683 29.113 29.8232C30.3004 30.4095 31.4999 30.9713 32.7358 31.5575C33.1962 30.6843 33.8747 30.1164 34.8259 29.9393C35.5165 29.811 36.1768 29.9271 36.7887 30.2751C38.0185 30.9774 38.5516 32.4735 38.067 33.817C37.6308 35.0322 36.2556 36.0765 34.5109 35.6368C34.4624 35.7895 34.4079 35.9421 34.3594 36.0887C34.2019 36.0215 34.0141 35.9849 33.8869 35.875C33.2386 35.307 32.5965 34.7208 31.9725 34.1284C31.7665 33.933 31.609 33.6827 31.4272 33.4567C31.8392 32.9804 32.1239 33.5788 32.4935 33.4811C32.4874 33.2613 32.4814 33.0354 32.4692 32.7972C30.8032 32.1499 29.1554 31.5026 27.5016 30.8614C26.3263 34.8307 28.5072 39.6916 33.0084 41.2305C37.4369 42.745 42.3562 40.2535 43.8222 35.7467C45.2883 31.2217 42.8045 26.318 38.3275 24.8829C33.6445 23.3868 29.3493 26.2508 28.0771 29.3836L28.1922 29.5057C28.4587 29.1637 28.7253 28.8156 28.9919 28.4676ZM18.0629 51.6791C17.966 51.6974 17.8509 51.7462 17.7843 51.8134C16.9482 52.6378 16.1062 53.4561 15.3004 54.311C15.149 54.4759 15.0581 54.769 15.0642 55.0011C15.0944 56.3629 14.1736 57.5476 12.8711 57.7674C11.508 57.9934 10.2479 57.2239 9.84807 55.9049C9.44824 54.5919 10.0359 53.2668 11.2596 52.6744C11.3869 52.6134 11.5322 52.4119 11.5201 52.2897C11.399 50.7264 11.2536 49.1692 11.1082 47.612C9.13928 47.7891 5.95874 49.8837 5.09848 53.3828C4.2261 56.9552 5.90423 60.7169 9.16352 62.4268C12.4289 64.1428 16.3606 63.3978 18.7536 60.6192C21.0012 58.0056 21.3404 53.8836 19.5533 51.3859C19.0444 51.4897 18.5536 51.5813 18.0629 51.6791ZM21.2616 45.9388C20.9345 44.8151 20.5771 43.7953 20.3408 42.7511C20.0318 41.3954 19.3715 40.2168 18.6566 39.0504C17.5298 37.2001 16.6514 35.2521 16.2516 33.1025C16.2394 33.0476 16.2152 32.9987 16.1667 32.846C15.8638 33.6827 15.5912 34.4155 15.3247 35.1544C15.2944 35.2338 15.3004 35.3376 15.3125 35.4292C15.6821 37.5726 15.4882 39.6977 15.1247 41.8168C15.052 42.2442 14.9612 42.6656 14.8764 43.1175C17.0088 44.064 19.0928 44.98 21.2616 45.9388ZM8.54557 24.3761C8.41229 24.3761 8.27901 24.5104 8.14573 24.5837C8.24872 24.7119 8.35172 24.9501 8.46077 24.9562C11.09 25.0845 13.1498 26.5317 15.2338 27.9241C15.5185 28.1134 15.7911 28.3149 16.0698 28.5042C16.1183 28.5408 16.1728 28.5714 16.2819 28.6508C16.4515 28.1683 16.609 27.7042 16.7847 27.2035C16.5181 27.0813 16.2637 26.9836 16.0274 26.8493C15.7487 26.6905 15.4519 26.5378 15.2277 26.318C14.8521 25.9516 14.8642 25.7073 15.1914 24.9745C15.1005 24.9318 15.0157 24.8585 14.9188 24.8524C14.4462 24.8219 14.0706 24.657 13.798 24.2295C13.689 24.0585 13.4284 23.9547 13.2164 23.8875C12.1078 23.5273 10.987 23.1853 9.88442 22.8433C10.0843 23.7898 9.58152 24.37 8.54557 24.3761ZM34.1837 32.3514C34.2988 32.3942 34.4684 32.3392 34.6017 32.2903C34.8865 32.1865 35.1591 32.0155 35.4499 31.9484C36.0072 31.8201 36.3828 32.1377 36.3889 32.7117C36.3949 33.2247 36.4373 33.8292 35.9285 34.0918C35.3832 34.3788 34.8259 34.0796 34.323 33.7804C33.9353 33.5483 33.5537 33.304 33.1296 33.0415C32.9842 34.2139 34.0625 35.1055 34.941 35.2399C36.1405 35.4231 37.3339 34.6414 37.6066 33.4628C37.8913 32.2354 37.1825 30.9835 36.0072 30.6415C34.8804 30.3118 33.6566 30.8675 33.275 31.9056C33.5779 32.0583 33.8687 32.2293 34.1837 32.3514ZM14.737 44.2839C14.8037 44.8518 14.84 45.3098 14.9248 45.7556C14.943 45.8472 15.1066 45.951 15.2217 45.9815C16.7302 46.3968 18.063 47.1296 19.214 48.2105C19.2988 48.2898 19.5411 48.3265 19.632 48.2654C20.1046 47.954 20.5589 47.6059 21.0981 47.209C18.9474 46.2136 16.9058 45.2731 14.737 44.2839ZM16.7362 51.2394C16.397 51.2272 16.1546 51.1783 15.9184 51.2088C15.464 51.2699 15.0157 51.4348 14.5613 51.4531C14.0343 51.4775 13.5072 51.3859 12.9256 51.3432C12.962 51.6729 13.0044 52.0943 13.0347 52.3508C13.6768 52.8088 14.216 53.1935 14.7613 53.5782C15.3489 52.8821 15.9971 52.1187 16.7362 51.2394ZM10.2479 55.3797C10.3448 56.2835 11.0658 57.1201 11.9321 57.3216C12.8105 57.5293 13.7071 57.1751 14.1797 56.4178L14.0464 56.4728C13.0044 57.4377 12.0108 57.2728 11.3323 56.0087C10.9628 55.3186 11.0052 54.653 11.4474 53.9935C11.5868 53.7798 11.6231 53.4988 11.7019 53.2485C11.6473 53.224 11.5868 53.2057 11.5322 53.1813C10.6477 53.5965 10.151 54.4454 10.2479 55.3797ZM12.7802 45.6579C12.4955 44.7235 12.2168 43.8136 11.9321 42.9099L11.7806 42.9465C11.9078 43.8503 12.029 44.748 12.1562 45.664C12.3925 45.664 12.5682 45.6579 12.7802 45.6579ZM14.9915 32.5163C14.5492 32.2354 14.1675 31.8384 13.4345 32.0888C13.8586 32.559 14.2281 32.9682 14.6522 33.4384C14.7734 33.1086 14.8764 32.8216 14.9915 32.5163ZM13.2467 47.4227C12.9923 47.4105 12.7318 47.3983 12.4167 47.3799C12.4834 47.9112 12.544 48.412 12.6167 48.9677C13.2588 48.4486 13.3436 48.2288 13.2467 47.4227ZM13.8041 54.0607C13.9737 54.0668 14.1312 54.1706 14.3311 54.1828C14.1251 53.6393 13.7556 53.2973 13.174 53.1202C13.1316 53.6637 13.2164 54.0362 13.8041 54.0607ZM12.6712 54.0484C12.5318 53.682 12.7015 53.2302 12.2835 52.9126C12.1199 53.7553 12.2108 54.0362 12.6712 54.0484ZM11.9684 51.0073C12.0048 51.5142 12.0351 52.0149 12.0714 52.5218C12.1381 52.5157 12.2108 52.5096 12.2774 52.5096C12.3138 51.9905 12.1441 51.4959 11.9684 51.0073Z" fill="#C9CCCF"/>
</svg>
