<svg width="117" height="61" viewBox="0 0 117 61" fill="none" xmlns="http://www.w3.org/2000/svg">
  <path d="M107.66 60.3778C108.347 60.708 109.077 60.873 109.858 60.873C111.061 60.873 112.126 60.6 113.039 60.0477C113.971 59.5081 114.752 58.6955 115.382 57.6035C115.627 57.2035 115.829 56.8099 115.98 56.4227C116.144 56.0227 116.289 55.5973 116.408 55.1402C116.503 54.6577 116.553 54.1752 116.553 53.6927C116.578 53.2103 116.541 52.7785 116.427 52.3913L113.31 52.8865L110.192 53.4452L110.066 56.156C110.683 55.9909 111.193 55.864 111.603 55.7814L113.265 55.4704C113.102 56.1306 112.787 56.6576 112.321 57.0448C111.83 57.4702 111.263 57.6987 110.614 57.7305C109.846 57.7749 109.247 57.5844 108.806 57.1718C108.435 56.829 108.189 56.3211 108.07 55.6608C107.881 54.4355 108.126 53.261 108.806 52.1437C109.411 51.1533 110.098 50.5184 110.879 50.2391C111.767 49.9471 112.548 50.2074 113.221 51.0073L115.275 48.8107C114.783 48.0933 114.217 47.5536 113.568 47.1981C112.925 46.8553 112.195 46.6839 111.37 46.6839C110.438 46.6839 109.581 46.8934 108.806 47.306C108.025 47.7187 107.314 48.3536 106.671 49.2106C106.193 49.8709 105.783 50.601 105.437 51.4072C105.16 52.1373 104.971 52.9373 104.864 53.807C104.82 54.334 104.807 54.7974 104.82 55.2164C104.845 55.6989 104.895 56.137 104.965 56.5179C105.072 56.9432 105.198 57.3559 105.336 57.7368C105.462 57.9844 105.67 58.359 105.972 58.8542C106.457 59.5208 107.018 60.035 107.66 60.3778ZM94.7111 61L98.1374 60.1493C98.0303 58.7145 97.9736 57.2988 97.9736 55.9084C98.0303 56.0163 98.2066 56.3084 98.5089 56.7782L100.272 59.489C100.562 59.8763 100.713 60.0985 100.726 60.1493L104.152 59.324C103.85 55.8195 103.963 51.5596 104.48 46.5379L100.682 47.16V54.2959C100.424 53.8832 100.178 53.3118 99.9449 52.5754C99.5608 51.3501 99.1702 49.8836 98.7734 48.1885C98.6349 47.5156 98.5341 46.9632 98.4648 46.5315L94.6859 47.1727L94.7111 61ZM89.8867 60.5429L91.6313 60.1493L93.357 59.6922C93.2185 57.9844 93.1744 56.029 93.2122 53.8388C93.25 51.6993 93.3949 49.4011 93.6405 46.9505L89.8616 47.5536L89.8867 60.5429ZM82.2093 49.8074C82.7447 49.655 83.1855 49.6042 83.5445 49.6614C84.5018 49.7566 84.7789 50.2455 84.3632 51.1279C84.1176 51.5977 83.4627 51.9469 82.392 52.1818L82.2093 49.8074ZM82.6375 55.1466C83.3366 54.899 84.0043 54.8926 84.6467 55.1275C85.3143 55.3497 85.5788 55.7814 85.4277 56.429C85.3206 56.9242 84.949 57.2607 84.3192 57.4448C83.8657 57.5527 83.3366 57.5908 82.7194 57.5464L82.6375 55.1466ZM79.6019 53.4261C79.753 56.1179 79.7971 58.4986 79.7467 60.5683C81.6236 60.7461 83.1729 60.7397 84.4074 60.5493C86.0386 60.2318 87.3549 59.5144 88.3689 58.3971C88.8224 57.9019 89.0869 57.3305 89.1687 56.6766C89.2632 56.137 89.1751 55.5846 88.9043 55.0196C88.3815 53.8324 87.4556 53.1595 86.1141 52.9944C87.21 52.0421 87.7265 51.039 87.6761 49.9915C87.5942 49.0519 87.0966 48.3091 86.1771 47.7568C85.2765 47.2299 84.1681 46.9759 82.8517 46.9886C81.5354 47.014 80.3702 47.2489 79.3436 47.6933C79.3877 48.5631 79.4759 50.474 79.6019 53.4261ZM68.7249 61L69.8334 53.7181L70.6522 60.8159L73.6501 60.5683L74.4688 54.1308L75.7851 60.9365L79.4192 60.1937C77.9958 55.5465 77.0259 51.1089 76.5031 46.887L73.2407 47.1537L72.3149 53.5658L71.2883 46.8807L67.8621 47.5854C67.2764 52.2326 66.382 56.4607 65.1917 60.2699L68.7249 61ZM61.1482 60.5429L62.8928 60.1493L64.6185 59.6922C64.48 57.9844 64.4359 56.029 64.4737 53.8388C64.5115 51.6993 64.6564 49.4011 64.902 46.9505L61.1231 47.5536L61.1482 60.5429ZM53.0362 60.5619C56.0215 59.8446 58.5471 59.4255 60.6129 59.2986L60.2413 55.864L56.3176 56.3592C56.2798 53.4515 56.4246 50.3153 56.771 46.9632L53.0174 47.5663L53.0362 60.5619ZM44.666 57.4384C45.1888 58.5558 45.9005 59.4192 46.8011 60.0223C47.7458 60.6572 48.7094 60.8857 49.6982 60.708C50.8634 60.4731 51.8962 59.7366 52.7969 58.4923L51.0082 56.1941C49.8745 57.0512 48.9425 57.1337 48.2182 56.4417C47.601 55.8767 47.2608 54.9815 47.1916 53.7499C47.1664 52.4802 47.4623 51.566 48.0922 51.0009C48.829 50.3089 49.7801 50.3661 50.9452 51.166L52.8536 48.6393C51.6507 47.5092 50.4855 46.8743 49.3644 46.7347C48.3378 46.595 47.3868 46.8426 46.5113 47.4775C45.7178 48.0679 45.0817 48.9313 44.603 50.0613C44.1118 51.1914 43.8598 52.3722 43.8409 53.5975C43.8283 54.9053 44.0992 56.1878 44.666 57.4384ZM115.993 30.7997C115.646 29.1998 114.834 28.4316 113.555 28.4888C112.252 28.5649 110.879 29.4284 109.436 31.079C108.044 32.6915 107.396 34.1009 107.478 35.3072C107.49 35.9166 107.811 36.361 108.435 36.6467C108.718 36.8308 109.109 36.9261 109.619 36.9261C110.028 36.9261 110.564 36.8435 111.244 36.6848C111.911 36.5578 112.447 36.5007 112.85 36.5007C113.417 36.5007 113.725 36.6467 113.776 36.9451C113.839 37.1927 113.631 37.4276 113.146 37.6498C112.762 37.8212 112.39 37.9482 112.018 38.0244C111.798 38.1133 111.578 38.1577 111.351 38.1577C110.872 38.1577 110.387 38.0244 109.89 37.745C109.411 38.9894 109.071 39.9734 108.876 40.7035C109.613 41.0146 110.349 41.1669 111.074 41.1669C111.874 41.1669 112.617 40.9765 113.31 40.5892C114.676 39.8718 115.665 38.9703 116.282 37.8911C116.786 37.0594 116.963 36.3039 116.818 35.6183C116.767 35.4341 116.679 35.2183 116.559 34.9834C116.251 34.3358 115.527 34.0184 114.38 34.0184C113.952 34.0184 113.423 34.0692 112.793 34.1644C112.39 34.2279 112.075 34.2597 111.848 34.2597C111.345 34.2597 111.049 34.1581 110.96 33.9613C110.847 33.6375 110.929 33.301 111.2 32.9582C111.628 32.5138 112.081 32.2852 112.547 32.2852C112.944 32.2852 113.19 32.5392 113.284 33.0471L116.163 32.0948C116.112 31.5551 116.056 31.1234 115.993 30.7997ZM104.045 28.4126C102.729 28.4126 101.041 28.6856 98.9876 29.2316C99.208 31.2314 99.2332 35.2373 99.0632 41.2558L102.111 40.4749C102.011 39.11 101.973 37.745 101.979 36.3801L105.172 41.0717C106.167 40.2273 107.081 39.4274 107.906 38.6719C106.205 36.634 105.198 35.3707 104.876 34.8755C106.615 33.7581 107.414 32.3297 107.276 30.5965C107.005 29.1427 105.928 28.4126 104.045 28.4126ZM102.03 32.5455C102.03 32.1837 102.048 31.8027 102.086 31.3901C102.64 31.2568 103.081 31.1996 103.415 31.225C103.812 31.2377 104.032 31.3837 104.083 31.6694C104.158 32.044 103.869 32.482 103.214 32.9899C102.867 33.2502 102.458 33.4978 101.979 33.7327L102.03 32.5455ZM94.8497 40.9257L96.4179 40.5702L97.9673 40.1639C97.8414 38.6275 97.8035 36.8689 97.835 34.8945C97.8728 32.9709 97.9987 30.9076 98.2255 28.6983L94.8308 29.2379L94.8497 40.9257ZM88.7531 36.6975L89.4899 32.2471L90.2458 36.6785L88.7531 36.6975ZM88.1484 41.2177L88.5389 39.1163L90.737 38.8751L91.1779 40.9574L94.5411 40.1766C93.1618 35.7071 92.2297 31.8091 91.7321 28.4697L87.3171 29.0855C86.7251 32.882 85.8496 36.6721 84.6971 40.4559L88.1484 41.2177ZM84.527 28.5078L76.3269 29.2887L76.1064 32.4693L77.5676 32.3043C77.914 32.2535 78.3296 32.2027 78.8209 32.1583L78.8398 41.351L82.4423 40.6083C82.0393 36.1642 81.8818 33.2502 81.9826 31.8599C82.4361 31.8218 83.4627 31.7583 85.0687 31.6758L84.527 28.5078ZM75.2184 30.7997C74.872 29.1998 74.0595 28.4316 72.781 28.4888C71.4773 28.5649 70.1042 29.4284 68.662 31.079C67.2701 32.6915 66.6214 34.1009 66.7032 35.3072C66.7159 35.9166 67.0371 36.361 67.6606 36.6467C67.944 36.8308 68.3345 36.9261 68.8446 36.9261C69.254 36.9261 69.7893 36.8435 70.4695 36.6848C71.1371 36.5578 71.6725 36.5007 72.0756 36.5007C72.6424 36.5007 72.951 36.6467 73.0014 36.9451C73.0644 37.1927 72.8566 37.4276 72.3716 37.6498C71.9874 37.8212 71.6158 37.9482 71.2442 38.0244C71.0238 38.1133 70.8034 38.1577 70.5766 38.1577C70.098 38.1577 69.613 38.0244 69.1154 37.745C68.6368 38.9894 68.2967 39.9734 68.1014 40.7035C68.8383 41.0146 69.5752 41.1669 70.2995 41.1669C71.0993 41.1669 71.8426 40.9765 72.5354 40.5892C73.9021 39.8718 74.8908 38.9703 75.5081 37.8911C76.0119 37.0594 76.1882 36.3039 76.0434 35.6183C75.993 35.4341 75.9048 35.2183 75.7851 34.9834C75.4765 34.3358 74.7523 34.0184 73.606 34.0184C73.1777 34.0184 72.6487 34.0692 72.0189 34.1644C71.6158 34.2279 71.3009 34.2597 71.0741 34.2597C70.5703 34.2597 70.2743 34.1581 70.1861 33.9613C70.0728 33.6375 70.1547 33.301 70.4255 32.9582C70.8538 32.5138 71.3072 32.2852 71.7732 32.2852C72.17 32.2852 72.4157 32.5392 72.5101 33.0471L75.3884 32.0948C75.3443 31.5551 75.2814 31.1234 75.2184 30.7997ZM32.3216 38.1704C31.9437 38.7418 31.3706 38.983 30.7282 39.0783C29.0088 39.3258 27.3397 39.7512 25.7148 40.3734C25.2991 40.5321 24.8331 40.5829 24.3859 40.6464C23.9954 40.7035 23.7561 40.5257 23.6554 40.1194C23.5609 39.7385 23.4349 39.3576 23.2649 39.0021C23.0822 38.6275 23.057 38.2783 23.2081 37.8974C23.29 37.6942 23.4034 37.4784 23.4097 37.2689C23.4097 37.0594 23.353 36.7927 23.2144 36.6404C22.8554 36.2468 22.7043 35.6627 23.0192 35.2373C23.3027 34.8564 23.2396 34.5009 23.12 34.1073C23.0129 33.7581 22.9058 33.4026 22.824 33.0407C22.6791 32.4122 22.5594 31.7773 22.4083 31.0346C22.3705 31.1171 22.3327 31.206 22.3012 31.2885C22.2949 30.9012 22.2256 30.5457 22.1123 30.2156C22.1815 29.8728 22.1627 29.5426 22.0367 29.1744C21.8918 28.7618 21.8351 28.311 21.7029 27.7142C21.3628 27.6381 20.8652 27.492 20.3614 27.4032C19.2529 27.2063 18.1696 26.8508 17.0108 27.0286C16.4313 27.1175 15.8393 27.0921 15.2536 27.1492C15.1276 27.1619 14.9639 27.2762 14.9072 27.3905C14.6994 27.8158 14.4915 28.2412 14.353 28.6919C13.7609 30.5902 13.2004 32.5074 12.6084 34.4057C12.3816 35.1231 12.0289 35.8024 11.8588 36.5325C11.6636 37.3514 11.3298 38.0561 10.7945 38.6846C10.637 38.8687 10.5174 39.11 10.4607 39.3385C10.278 40.1448 10.2214 40.9955 9.95687 41.7637C9.54119 42.9445 8.9995 44.0746 8.49565 45.2174C8.36339 45.5157 8.25633 45.7951 8.3445 46.1379C8.46417 46.6267 8.37599 47.0711 7.94771 47.414C7.86584 47.4775 7.85328 47.6425 7.83439 47.7631C7.78401 48.1123 7.85958 48.5694 7.67063 48.7853C7.39351 49.0964 7.58243 49.2678 7.72099 49.4265C8.0233 49.7884 8.35707 50.1248 8.70977 50.4296C9.16323 50.8295 9.52223 51.2549 9.57261 51.9088C9.59151 52.2008 9.5223 52.3341 9.25148 52.4357C8.03593 52.8865 6.11493 52.6579 5.17021 51.2993C5.05684 51.1343 4.8994 50.9628 4.71676 50.8867C3.78463 50.493 3.76578 49.763 3.97992 48.944C4.00511 48.8615 4.03659 48.7726 4.04289 48.6837C4.06808 48.3091 4.18771 47.9092 4.08694 47.5727C3.898 46.9124 3.87911 46.4617 4.41446 46.1189C4.98129 45.7633 5.06315 45.2745 5.10093 44.7031C5.12613 44.3349 5.16391 43.9667 5.17021 43.5921C5.21429 41.2495 5.8504 39.0782 6.97777 37.0403C7.05965 36.8943 7.07225 36.7102 7.13523 36.5452C7.27379 36.1515 7.41868 35.7579 7.56354 35.3643C7.66431 35.0977 7.84694 34.8374 7.86584 34.5644C7.9792 32.7487 8.08629 30.9266 8.12408 29.1046C8.13668 28.6538 7.90997 28.1967 7.75882 27.7523C7.69583 27.5746 7.46908 27.4476 7.41869 27.2698C7.18566 26.4255 6.9337 25.5811 7.15414 24.6859C7.21082 24.4574 7.17936 24.2098 7.18566 24.0765C6.7133 24.0574 6.33537 24.0701 5.96378 24.0193C5.02535 23.8924 4.2885 23.3591 3.55792 22.8004C2.95959 22.3433 2.80215 21.7465 2.85883 21.0355C2.87143 20.9085 2.89028 20.7371 2.821 20.6609C2.31085 20.0578 2.41791 19.3277 2.65094 18.7373C3.1359 17.5311 3.28712 16.1725 4.21295 15.1567C4.42709 14.9218 4.50896 14.5599 4.67901 14.2806C5.66152 12.6871 5.989 10.6682 7.72099 9.55721C7.99181 9.3858 8.20597 9.29692 8.52717 9.36675C8.92396 9.44928 9.33329 9.46833 9.74267 9.48103C9.84974 9.48103 10.0513 9.39215 10.0639 9.30961C10.1584 8.83982 10.5426 8.76998 10.889 8.7065C11.2417 8.63666 11.607 8.65571 12.0541 8.62396C12.073 8.21765 12.0667 7.80499 12.1108 7.39868C12.1486 6.99872 12.7217 6.52257 13.0807 6.60511C13.509 6.70668 13.4208 7.0876 13.4334 7.40503C13.4334 7.46852 13.4397 7.53835 13.446 7.64628C13.5657 7.5701 13.6413 7.532 13.7105 7.48122C14.6175 6.76382 15.6126 6.21149 16.7525 6.04643C17.3886 5.9512 17.7477 5.60203 17.9618 5.09414C18.3334 4.21803 18.642 3.31018 18.9506 2.40233C19.1899 1.69763 19.6308 1.20244 20.2984 0.916751C20.6385 0.777082 20.9786 0.631064 21.325 0.523137C22.6791 0.110478 23.9136 0.516789 24.7512 1.65954C25.1102 2.14838 25.4314 2.66262 25.7652 3.16416C25.9857 3.48794 25.9163 3.75458 25.6518 4.03392C25.4818 4.21168 25.3495 4.44658 25.2424 4.67513C25.0472 5.08144 24.9591 5.58298 24.6694 5.90676C24.2978 6.32577 24.1277 6.75112 24.0836 7.29076C24.0206 8.0018 23.8254 8.09068 23.246 7.73516C23.0066 7.93197 22.7736 8.14147 22.5217 8.33193C22.3768 8.43986 22.1438 8.47795 22.0556 8.61762C21.7911 9.01758 21.4636 9.03028 21.1046 8.83347C20.8275 8.6811 20.5755 8.47795 20.374 8.33828C20.0402 8.52874 19.7505 8.6811 19.4734 8.85886C19.2403 9.01123 19.0703 9.1509 19.1269 9.52547C19.2214 10.1857 19.2403 10.865 19.2151 11.538C19.1962 11.9633 18.8561 12.3062 19.1836 12.8204C19.4292 13.2077 19.3474 13.7981 19.4229 14.2933C19.4733 14.6361 19.3096 14.7631 19.0703 14.8012C18.9947 14.4964 18.9254 14.2171 18.8246 13.8298C18.7113 14.6107 18.6609 15.2583 18.5097 15.8741C18.4279 16.2042 18.5098 16.3502 18.768 16.4581C20.0969 17.0041 21.4069 17.5946 22.7547 18.0707C23.4916 18.331 24.2852 18.4707 25.0661 18.5278C25.696 18.5786 26.3446 18.4262 27.05 18.3564L27.0689 18.2992C27.176 18.2675 27.2767 18.2231 27.3712 18.1596L27.4846 18.1532L27.5161 18.185L27.4909 18.1532C27.5728 18.2548 27.661 18.3564 27.7492 18.4453L27.7869 18.4707C27.7554 18.5278 27.7239 18.5913 27.6987 18.6548C27.8436 18.6484 27.9444 18.6357 28.0389 18.6484L28.1459 18.6611H28.1522L28.2593 18.6929L28.2908 18.7246C28.3223 18.8008 28.2971 18.9278 28.2593 19.0103C28.0262 19.4801 27.8121 19.9562 27.5287 20.3943C27.3649 20.6482 27.0941 20.826 26.8737 21.0355C26.7981 21.1053 26.6974 21.1625 26.6281 21.2323C26.5399 21.2323 26.4454 21.226 26.3572 21.226C26.2627 21.1498 26.1557 21.0926 26.036 21.0609L25.9416 21.0355L25.973 20.9593C24.3481 20.3245 22.7106 19.8229 20.9534 19.7721C19.8135 19.734 18.705 19.4103 17.6532 18.9087C17.0927 18.6421 17.0549 18.6611 16.8785 19.2769C16.6707 20.0261 16.5006 20.7816 16.3306 21.4736C19.2278 22.1402 22.043 22.7877 24.9275 23.4543V23.448L24.9717 23.4924C25.0598 23.5559 25.148 23.6194 25.2424 23.6702C25.2991 23.7717 25.3684 23.867 25.4503 23.9495C25.444 24.032 25.444 24.1082 25.4629 24.1781C25.6204 24.8383 25.8471 25.4795 25.9667 26.1461C26.4328 28.8062 26.8485 31.479 27.3335 34.139C27.472 34.8882 27.5539 35.5675 26.9619 36.1579C27.1508 36.323 27.3649 36.4309 27.4468 36.6023C27.7428 37.2372 28.316 37.2498 28.8576 37.2689C29.3678 37.2879 29.922 37.307 30.3817 37.1292C31.2572 36.7927 31.8492 37.0149 32.2964 37.7895C32.3279 37.9291 32.3279 38.0498 32.3216 38.1704ZM22.8113 59.9652H2.12822C1.43543 59.9652 0.868591 59.3938 0.868591 58.6955V53.8769C0.868591 53.1785 1.43543 52.6071 2.12822 52.6071H22.8113C23.5041 52.6071 24.071 53.1785 24.071 53.8769V58.6955C24.071 59.4001 23.5104 59.9652 22.8113 59.9652ZM39.3377 48.3853H18.6546C17.9618 48.3853 17.395 47.8139 17.395 47.1156V42.297C17.395 41.5923 17.9618 41.0273 18.6546 41.0273H39.3377C40.0305 41.0273 40.5973 41.5923 40.5973 42.297V47.1156C40.5973 47.8203 40.0305 48.3853 39.3377 48.3853ZM55.8641 36.8054H35.1809C34.4881 36.8054 33.9213 36.2341 33.9213 35.5357V30.7171C33.9213 30.0188 34.4881 29.4474 35.1809 29.4474H55.8641C56.5569 29.4474 57.1237 30.0188 57.1237 30.7171V35.5357C57.1237 36.2341 56.5569 36.8054 55.8641 36.8054Z" fill="#C9CCCF"/>
</svg>
