<svg width="28" height="28" viewBox="0 0 28 28" fill="none" xmlns="http://www.w3.org/2000/svg">
  <path d="M16.3334 26.2499L13.0667 22.1666H7.00008C6.69066 22.1666 6.39392 22.0437 6.17512 21.8249C5.95633 21.6061 5.83341 21.3093 5.83341 20.9999V8.28675C5.83341 7.97733 5.95633 7.68059 6.17512 7.46179C6.39392 7.243 6.69066 7.12009 7.00008 7.12009H25.6667C25.9762 7.12009 26.2729 7.243 26.4917 7.46179C26.7105 7.68059 26.8334 7.97733 26.8334 8.28675V20.9999C26.8334 21.3093 26.7105 21.6061 26.4917 21.8249C26.2729 22.0437 25.9762 22.1666 25.6667 22.1666H19.6001L16.3334 26.2499ZM18.4789 19.8333H24.5001V9.45342H8.16675V19.8333H14.1879L16.3334 22.5143L18.4789 19.8333ZM2.33341 2.33325H22.1667V4.66659H3.50008V17.4999H1.16675V3.49992C1.16675 3.1905 1.28966 2.89375 1.50846 2.67496C1.72725 2.45617 2.024 2.33325 2.33341 2.33325Z" fill="#FDB913"/>
</svg>
