<svg width="117" height="55" viewBox="0 0 117 55" fill="none" xmlns="http://www.w3.org/2000/svg">
  <path d="M54.9369 49.6032L54.9779 47.7371L58.6531 47.1312L58.455 45.7195L58.2979 44.3286L56.6515 44.6453L54.9847 44.8932L55.1418 42.8963L57.2322 42.6484C57.4986 42.6209 57.8675 42.5864 58.3456 42.5589L59.5001 42.4694L59.0083 38.813L51.0158 39.7563C51.0431 41.3745 51.0705 43.7502 51.0841 46.8901L51.1524 52.5435C51.1524 53.2459 51.1592 53.7485 51.1729 54.0446C52.9422 53.6521 54.5407 53.3423 55.9821 53.1012C57.5123 52.8602 58.8102 52.7156 59.8759 52.6537L59.4113 48.9766L54.9369 49.6032Z" fill="#C9CCCF"/>
  <path d="M50.196 41.347C49.8681 39.598 48.5702 38.7234 46.3023 38.7234C44.7106 38.7234 42.6817 39.054 40.202 39.7081C40.4684 42.1182 40.4957 46.9521 40.2908 54.203L43.966 53.2596C43.8498 51.6139 43.7952 49.9682 43.8089 48.3224L47.6617 53.9758C48.8639 52.9567 49.9638 51.9926 50.9543 51.0837C48.9049 48.6323 47.689 47.1036 47.2996 46.5045C49.3967 45.1618 50.3599 43.4403 50.196 41.347ZM45.2981 44.246C44.8814 44.5627 44.3827 44.8588 43.8089 45.1411L43.8772 43.702C43.8772 43.2682 43.8977 42.8068 43.9455 42.311C44.615 42.1458 45.1478 42.0769 45.5508 42.1113C46.0222 42.1251 46.2954 42.3041 46.35 42.6484C46.432 43.096 46.0836 43.6331 45.2981 44.246Z" fill="#C9CCCF"/>
  <path d="M40.0448 42.6484L39.3958 38.8336L33.6781 39.3776C33.6781 39.0057 33.6781 38.627 33.6781 38.2552C33.6576 34.7502 33.603 31.2522 33.5688 27.7473C33.5415 25.0273 33.4869 22.3074 33.5279 19.5874C33.5483 18.2653 33.2136 16.9432 33.644 15.6074C33.7533 15.2769 33.8079 15.0909 34.0948 14.9463C34.7028 14.6296 34.9556 14.2302 34.7643 13.5691C34.6277 13.094 34.3134 12.6533 33.9924 12.2608C33.5688 11.7444 33.0565 11.7306 32.5305 12.1713C32.2982 12.3641 31.9362 12.674 31.7585 12.6051C31.0276 12.3228 30.3035 11.9716 29.6614 11.524C29.2788 11.2624 28.9714 11.0007 28.4249 11.166C28.097 10.4705 27.8306 9.75434 27.448 9.10706C26.8947 8.18435 26.2457 7.31672 25.6514 6.40778C25.5421 6.24252 25.4738 6.02217 25.4738 5.82936C25.5011 4.95485 25.5626 4.08722 25.6036 3.21271L25.6104 3.10254C25.9042 2.01456 25.2484 1.29154 24.5926 0.630489C24.1076 0.141588 23.4381 0.0658431 22.7277 0.141588C21.3068 0.293079 19.9406 0.472113 19.5238 2.18671C19.3394 2.11096 19.1891 1.9939 19.032 1.98702C18.0278 1.93881 16.9826 1.72535 16.0331 1.93193C14.8786 2.18671 13.7856 2.76513 12.6995 3.27468C12.194 3.50881 11.6406 3.81179 11.3059 4.23871C10.6637 5.07191 10.1446 6.0084 9.6049 6.92422C9.29066 7.45444 9.01742 8.0122 9.18137 8.68014C9.20869 8.78342 9.1199 8.92114 9.06525 9.03132C8.9013 9.36184 8.72368 9.68548 8.54607 10.0229C8.51191 9.95403 8.4709 9.88517 8.34794 9.65794C8.26596 10.078 8.2455 10.3672 8.16352 10.6357C7.99957 11.1591 7.90394 11.7375 7.61019 12.1851C7.21398 12.7841 6.55819 13.218 6.20296 13.8377C5.86824 14.4299 5.28072 14.8706 5.19192 15.6487C5.13727 16.1445 4.80936 16.599 4.59076 17.0879C4.28336 17.1429 3.92134 17.1498 3.60027 17.2807C3.44315 17.3426 3.38165 17.6318 3.27918 17.8178C3.49095 17.8591 3.72321 17.9761 3.91448 17.9279C4.16724 17.866 4.38584 17.6732 4.69325 17.4941C4.76839 17.7627 4.87086 17.9555 4.86403 18.1414C4.83671 19.0917 4.61811 19.9799 3.96914 20.7236C3.34067 21.4466 2.72588 22.1697 2.15206 22.934C1.72852 23.4986 1.38694 24.1253 1.02489 24.7312C0.970237 24.8207 1.03853 24.9791 1.0522 25.165C2.28182 23.8154 3.42949 22.5484 4.62495 21.2332C4.76841 21.4604 4.91185 21.6808 5.11678 22.0113C5.19876 21.667 5.25343 21.4053 5.31491 21.1368C6.81095 22.7068 7.12519 22.9202 8.60073 23.3816C7.74683 25.2614 6.55135 27.0656 7.2618 29.2897C7.63751 29.1451 7.73999 28.8766 7.61019 28.4634C7.52822 28.2017 7.5487 27.8988 7.46672 27.6371C7.23446 26.8727 7.49406 26.253 7.94492 25.6608C8.43677 25.0204 8.92862 24.3869 9.35899 23.7052C9.59125 23.3334 9.80984 23.1475 10.1651 23.2714C10.3222 23.5193 10.452 23.7259 10.5818 23.9256L10.7457 23.8361C10.6842 23.595 10.6228 23.354 10.5613 23.0993C10.7457 23.0166 10.9097 22.9409 11.1761 22.8238C11.258 23.1199 11.3878 23.3678 11.381 23.6157C11.3742 24.5866 11.3127 25.5575 11.3127 26.5353C11.3127 26.7281 11.4767 26.9141 11.5655 27.1069C11.6543 26.921 11.7841 26.735 11.825 26.5422C11.907 26.1015 11.9344 25.6608 12.0027 25.0618C12.5013 25.9018 12.8634 26.6042 13.3074 27.2446C13.5875 27.6509 13.6831 28.0158 13.5738 28.4978C13.3621 29.4412 13.082 30.3915 13.0478 31.3486C13.0273 31.9546 12.8907 32.5812 12.6107 32.9324C12.0232 33.676 11.463 34.406 10.9848 35.2392C10.1719 36.6645 9.18821 37.9935 8.25233 39.3432C7.99274 39.715 7.62386 39.9973 7.30962 40.3278C7.01588 40.6377 6.68797 40.92 6.44888 41.2643C6.23711 41.5604 6.09366 41.8496 5.72477 42.0424C5.4037 42.2146 5.21244 42.6484 4.96652 42.972C4.81623 43.1717 4.70693 43.4472 4.502 43.5436C3.6276 43.9705 2.73953 44.3768 1.8378 44.7348C1.14102 45.0103 0.744789 45.5956 0.963388 46.2704C1.33227 47.4135 1.91978 48.4395 2.91031 49.1487C3.29969 49.4241 3.53878 49.7478 3.71639 50.1678C4.46099 51.8755 5.52666 53.356 6.96122 54.5404C7.63751 55.0982 8.05421 55.1188 8.57338 54.7607C9.20185 54.3269 9.44096 53.7072 9.1882 52.9429C9.03792 52.4884 8.79199 52.0615 8.54607 51.6414C8.06105 50.822 7.73313 49.9475 8.09518 49.0248C8.42308 48.1778 8.84662 47.3515 9.33847 46.5871C9.72102 45.995 9.85083 45.4097 9.8235 44.7348C9.81667 44.5351 9.89865 44.2666 10.0421 44.1289C10.6501 43.5091 11.2102 42.8688 11.4493 42.0011C11.504 41.7946 11.6611 41.6017 11.8182 41.4503C12.3306 40.9269 12.8361 40.3898 13.3894 39.9078C14.4892 38.9576 15.6164 38.0417 16.6752 37.1534C17.0373 37.7801 17.3993 38.4204 17.7614 39.0608L17.7819 39.2261C17.8024 39.8183 17.7955 40.4174 17.8502 41.0027C17.9936 42.5658 18.1439 44.1289 18.3489 45.6851C18.3898 45.995 18.383 46.1878 18.1918 46.4357C17.7614 46.9865 17.8365 47.1587 18.4718 47.3584C18.424 47.6132 18.3352 47.8335 18.3557 48.0401C18.3898 48.5428 18.4309 49.0454 18.547 49.5343C18.7178 50.278 18.9227 51.0079 19.1618 51.7309C19.2233 51.9031 19.4555 52.0821 19.6468 52.1441C20.6168 52.4333 21.6962 52.0683 22.2495 51.1869C22.8711 50.1747 23.807 49.6238 24.8112 49.1143C25.2484 48.8939 25.6856 48.6047 26.034 48.2604C26.4165 47.8817 26.2868 47.3997 25.8905 47.0347C25.5217 46.6904 25.1254 46.5321 24.4696 46.7455C24.4696 44.7762 24.497 42.9307 24.4628 41.0853C24.4082 38.0899 24.333 35.0945 24.2442 32.0992C24.1212 28.1811 24.012 24.2561 23.8002 20.3449C23.766 19.6563 24.3125 19.1054 24.0256 18.4237L24.1008 18.286C24.2032 18.0932 24.3057 17.9004 24.3945 17.6938C24.6131 17.1774 24.1827 16.4681 25.0093 16.0687C24.7429 15.993 24.5926 15.9792 24.4833 15.9104C24.3604 15.8346 24.1759 15.6831 24.1895 15.6005C24.3193 14.9739 24.4969 14.3541 24.6609 13.7206C25.262 13.9616 25.7266 14.2233 26.2184 14.3404C27.2841 14.5951 28.3635 14.7742 29.436 14.9876C29.7639 15.0496 30.0986 15.084 30.406 15.208C31.1096 15.4972 31.3897 15.4352 31.7722 14.7535C31.9498 14.4368 32.2094 14.3886 32.3938 14.5883C32.551 14.7604 32.5578 15.084 32.592 15.3457C32.6125 15.5247 32.5305 15.7176 32.5646 15.8897C32.6193 16.2202 32.7969 16.537 32.8037 16.8606C32.8721 21.5224 32.8789 26.191 32.995 30.8528C33.0633 33.7242 32.995 36.5957 33.1453 39.4671L29.4837 39.8183L29.2174 43.6538L30.973 43.4541C31.3897 43.3921 31.8952 43.337 32.4895 43.275L32.4963 45.2169C32.4553 45.2375 32.4144 45.2582 32.3802 45.2857C32.4212 45.3064 32.4553 45.3339 32.4963 45.3546L32.5168 54.3614L36.8615 53.4662C36.3696 48.1089 36.1852 44.5971 36.3082 42.917C36.8752 42.8274 38.1116 42.7517 40.0448 42.6484ZM24.0188 40.6653C24.0871 42.5313 24.1622 44.3905 24.2101 46.2566C24.2169 46.415 24.0461 46.6147 23.9095 46.7318C23.6977 46.9177 23.4381 47.0485 23.0419 47.2964C23.2058 46.6836 23.3357 46.1671 23.4928 45.6507C23.9232 44.2184 23.7797 42.7586 23.7045 41.2988C23.5816 38.9231 23.5133 36.5475 23.3835 34.1787C23.3288 33.1114 23.1171 32.0716 22.5842 31.1145C22.1743 30.3846 21.8191 29.6271 21.3888 28.7939C22.3451 27.4581 22.3315 25.7572 22.5911 24.1322C22.6252 23.8911 22.6594 23.6433 22.7413 23.416C23.1375 22.3349 22.9804 21.2814 22.5979 20.2691C22.8302 19.9455 23.0282 19.6838 23.2537 19.3671C23.2878 19.9662 23.3288 20.5102 23.3425 21.061C23.4586 24.7519 23.5679 28.4496 23.6909 32.1405C23.7933 34.9844 23.9095 37.8214 24.0188 40.6653Z" fill="#C9CCCF"/>
  <path d="M94.4145 39.2812V47.0278C94.1344 46.5803 93.868 45.9605 93.6152 45.1618C93.1985 43.8328 92.775 42.2421 92.3446 40.4036C92.1943 39.6737 92.085 39.0746 92.0099 38.6064L87.9112 39.3018L87.9316 54.2925L91.6478 53.3698C91.5317 51.8136 91.4702 50.278 91.4702 48.77C91.5317 48.887 91.723 49.2038 92.0509 49.7133L93.9636 52.6536C94.2778 53.0737 94.4418 53.3147 94.4555 53.3698L98.1717 52.4746C97.8438 48.6736 97.9667 44.0531 98.5269 38.6064L94.4145 39.2812Z" fill="#C9CCCF"/>
  <path d="M82.0773 40.5413L78.5797 38.9025C77.6438 39.8183 76.5508 40.7892 75.3075 41.8221C75.3349 41.044 75.41 40.1144 75.533 39.0402L71.4137 39.6875L71.4889 52.1234L67.0008 43.998L71.12 40.5413L67.6224 38.9025C66.6865 39.8183 65.5935 40.7892 64.3503 41.8221C64.3776 41.044 64.4527 40.1144 64.5757 39.0402L60.4565 39.6875L60.5453 53.7829L64.2205 52.8602C64.0838 50.8082 64.0428 48.7011 64.0838 46.5321L67.4448 54.0515L71.4889 52.151L71.5025 53.7829L75.1777 52.8602C75.0411 50.8082 75.0001 48.7011 75.0411 46.5321L78.4021 54.0515L82.453 52.1441L77.9581 43.998L82.0773 40.5413Z" fill="#C9CCCF"/>
  <path d="M108.111 45.4992L104.73 46.1051L104.593 49.0454C105.262 48.8664 105.816 48.7287 106.26 48.6391L108.063 48.3017C107.886 49.0179 107.544 49.5894 107.039 50.0094C106.506 50.4708 105.891 50.7187 105.187 50.7531C104.354 50.8013 103.705 50.5947 103.227 50.1472C102.824 49.7753 102.557 49.2244 102.427 48.5083C102.222 47.1793 102.489 45.9054 103.227 44.6935C103.882 43.6193 104.627 42.9307 105.474 42.6277C106.437 42.311 107.284 42.5933 108.015 43.4609L110.242 41.0784C109.71 40.3003 109.095 39.715 108.391 39.3294C107.694 38.9575 106.902 38.7716 106.007 38.7716C104.996 38.7716 104.067 38.9988 103.227 39.4464C102.38 39.894 101.608 40.5826 100.911 41.5122C100.392 42.2283 99.9477 43.0202 99.572 43.8947C99.2714 44.6866 99.0664 45.5542 98.9503 46.4976C98.9025 47.0691 98.8889 47.5718 98.9025 48.0263C98.9299 48.5496 98.9845 49.0248 99.0596 49.4379C99.1758 49.8993 99.3124 50.3469 99.4627 50.76C99.5993 51.0286 99.8247 51.4348 100.153 51.9719C100.672 52.7018 101.28 53.2596 101.977 53.6314C102.721 53.9895 103.514 54.1685 104.361 54.1685C105.665 54.1685 106.82 53.8724 107.81 53.2734C108.821 52.6881 109.669 51.8067 110.352 50.6223C110.618 50.1885 110.837 49.7615 111.001 49.3415C111.178 48.9077 111.335 48.4463 111.465 47.9506C111.568 47.4272 111.622 46.9039 111.622 46.3806C111.65 45.8572 111.609 45.389 111.486 44.9689L108.111 45.4992Z" fill="#C9CCCF"/>
  <path d="M86.7772 39.0609L82.6785 39.715L82.6989 53.8105L84.5912 53.3836L86.463 52.8878C86.3127 51.0355 86.2649 48.9146 86.3059 46.539C86.3537 44.2115 86.5108 41.7188 86.7772 39.0609Z" fill="#C9CCCF"/>
  <path d="M90.7734 28.8146C90.91 29.0831 91.1355 29.4894 91.4634 30.0265C91.9825 30.7564 92.5905 31.3142 93.2873 31.686C94.0319 32.0441 94.8243 32.2231 95.6714 32.2231C96.9761 32.2231 98.1306 31.927 99.1211 31.3279C100.132 30.7426 100.979 29.8612 101.662 28.6769C101.929 28.243 102.147 27.8161 102.311 27.3961C102.489 26.9623 102.646 26.5009 102.776 26.0051C102.878 25.4818 102.933 24.9585 102.933 24.4351C102.96 23.9118 102.919 23.4436 102.796 23.0235L99.4149 23.5606L96.0334 24.1666L95.8968 27.1069C96.5663 26.9278 97.1196 26.7901 97.5636 26.7006L99.3671 26.3632C99.1895 27.0793 98.8479 27.6509 98.3424 28.0709C97.8096 28.5323 97.1947 28.7801 96.4911 28.8146C95.6577 28.8628 95.0088 28.6562 94.5306 28.2086C94.1275 27.8368 93.8611 27.2859 93.7313 26.5698C93.5264 25.2408 93.7928 23.9669 94.5306 22.755C95.1864 21.6808 95.9309 20.9922 96.778 20.6892C97.7412 20.3724 98.5883 20.6548 99.3192 21.5224L101.546 19.1399C101.013 18.3617 100.399 17.7764 99.695 17.3908C98.9982 17.019 98.2058 16.8331 97.3109 16.8331C96.2999 16.8331 95.3708 17.0603 94.5306 17.5079C93.6835 17.9555 92.9116 18.6441 92.2148 19.5737C91.6956 20.2898 91.2516 21.0817 90.8759 21.9562C90.5753 22.7481 90.3704 23.6157 90.2542 24.5591C90.2064 25.1306 90.1927 25.6333 90.2064 26.0878C90.2337 26.6111 90.2884 27.0862 90.3636 27.4994C90.4933 27.9538 90.6231 28.3945 90.7734 28.8146Z" fill="#C9CCCF"/>
  <path d="M82.9585 31.4381C82.8424 29.8819 82.7809 28.3463 82.7809 26.8383C82.8424 26.9554 83.0337 27.2721 83.3616 27.7817L85.2743 30.722C85.5886 31.142 85.7525 31.383 85.7662 31.4381L89.4824 30.543C89.1545 26.7419 89.2774 22.1215 89.8376 16.6747L85.7183 17.3495V25.0893C85.4383 24.6417 85.1719 24.022 84.9191 23.2232C84.5024 21.8942 84.0789 20.3036 83.6485 18.465C83.4982 17.7351 83.3889 17.1361 83.3138 16.6678L79.215 17.3633L79.2355 32.354L82.9585 31.4381Z" fill="#C9CCCF"/>
  <path d="M106.246 32.6776C108.965 28.3808 112.503 23.5675 116.869 18.224L112.975 17.3013L102.489 32.1336L106.246 32.6776Z" fill="#C9CCCF"/>
  <path d="M50.5171 31.1902C50.401 29.9163 50.319 28.5047 50.2712 26.9485C50.8655 26.8452 51.535 26.7144 52.2727 26.5698L52.2932 32.1336L56.3919 31.1902C56.064 27.3272 56.1528 22.631 56.6584 17.0947L52.2249 17.742L52.2659 23.5331L50.3053 23.8705C50.3532 21.97 50.5034 19.7114 50.7699 17.0947L46.3637 17.742L46.4525 32.1267L50.5171 31.1902Z" fill="#C9CCCF"/>
  <path d="M59.5821 31.4381L61.4539 30.9423C61.3037 29.09 61.2558 26.9692 61.2968 24.5935C61.3378 22.273 61.4949 19.7803 61.7613 17.1223L57.6626 17.7764L57.6831 31.8719L59.5821 31.4381Z" fill="#C9CCCF"/>
  <path d="M66.4816 30.9217C66.345 28.8697 66.304 26.7626 66.345 24.5935L69.7059 32.1129L73.7568 30.2055L69.2619 22.0595L73.3811 18.6027L69.8835 16.9639C68.9477 17.8797 67.8547 18.8506 66.6114 19.8835C66.6388 19.1054 66.7139 18.1758 66.8369 17.1016L62.7177 17.7489L62.8065 31.8444L66.4816 30.9217Z" fill="#C9CCCF"/>
  <path d="M75.9019 31.4381L77.7736 30.9423C77.6234 29.09 77.5755 26.9692 77.6165 24.5935C77.6575 22.273 77.8146 19.7803 78.0811 17.1223L73.9823 17.7764L74.0028 31.8719L75.9019 31.4381Z" fill="#C9CCCF"/>
</svg>
