<svg width="44" height="50" viewBox="0 0 44 50" fill="none" xmlns="http://www.w3.org/2000/svg">
  <path d="M42.3232 11.4247L23.3376 0.383562C22.9024 0.109589 22.3856 0 21.8688 0C21.352 0 20.8624 0.136986 20.4 0.383562L1.4688 11.4247C0.544 11.9452 0 12.9315 0 13.9726V36.0274C0 37.0685 0.544 38.0548 1.4688 38.5753L20.4272 49.6164C20.8896 49.863 21.3792 50 21.896 50C22.4128 50 22.9024 49.863 23.3648 49.6164L42.3232 38.5753C43.2208 38.0548 43.792 37.0685 43.792 36.0274V13.9726C43.792 12.9315 43.2208 11.9452 42.3232 11.4247ZM22.712 48.4931C22.4672 48.6301 22.1952 48.7123 21.896 48.7123C21.5968 48.7123 21.3248 48.6301 21.08 48.4931L17.7888 46.5753C18.0064 45.9178 18.1968 45.2055 18.4688 44.5753C19.2576 42.7945 19.176 41.0411 18.5776 39.2055C17.5712 36.1096 16.728 32.9863 15.8576 29.863C15.7216 29.3973 15.7216 28.7945 15.8304 28.3288C16.9184 23.6986 17.9792 19.0685 19.176 14.4658C19.5024 13.2329 20.2096 12.1096 20.7536 10.9589C20.8896 10.9863 21.0256 10.9863 21.1616 11.0137C24.0448 17.8082 26.928 24.6301 29.8112 31.4521C30.2464 31.3151 30.5728 31.2055 31.0352 31.0685C31.3616 32.7671 31.7152 34.4658 32.0416 36.137C32.4224 38.2466 32.7488 40.3562 33.1568 42.4658L22.712 48.4931ZM42.4864 36.0274C42.4864 36.6027 42.16 37.1507 41.6704 37.4521L37.5904 39.8082C36.7472 39.1507 35.8496 38.0274 35.8768 37.4521C36.0944 33.589 36.312 29.6986 36.5568 25.8356C36.5568 25.7808 36.6384 25.726 36.8288 25.3973C37.5632 26.6301 38.2432 27.726 38.896 28.8767C40.12 31.0137 41.2896 33.1507 42.4864 35.2877V36.0274ZM42.4864 31.726C41.7792 30.4932 41.0992 29.3425 40.4464 28.1644C39.4128 26.3288 38.352 24.4932 37.3728 22.6301C36.9104 21.7534 36.5296 21.7534 35.904 22.4658C34.3536 24.2466 32.7216 25.9726 31.144 27.726C30.9808 27.9178 30.7904 28.0548 30.4096 28.3836C27.3088 21.0685 24.2624 13.9178 21.08 6.41096C20.2912 7.91781 19.6656 9.06849 19.0672 10.274C17.272 13.9178 15.504 17.589 13.6816 21.2055C13.5184 21.5342 13.1376 21.8082 12.784 21.9452C10.8528 22.6849 8.8944 23.3425 6.9904 24.137C6.4464 24.3562 5.8752 24.9041 5.6032 25.4521C4.488 27.726 3.5088 30.0548 2.3936 32.3014C2.1216 32.8493 1.6864 33.3425 1.2784 33.8356V13.9726C1.2784 13.3973 1.6048 12.8493 2.0944 12.5479L21.08 1.50685C21.3248 1.36986 21.5968 1.28767 21.896 1.28767C22.168 1.28767 22.4672 1.36986 22.712 1.50685L41.6704 12.5479C42.1872 12.8493 42.4864 13.3699 42.4864 13.9726V31.726Z" fill="#FDB913"/>
  <path d="M42.4864 35.3151V36.0549C42.4864 36.6302 42.16 37.1782 41.6704 37.4795L37.5904 39.8357C36.7472 39.1782 35.8496 38.0549 35.8768 37.4795C36.0944 33.6165 36.312 29.7261 36.5568 25.8631C36.5568 25.8083 36.6384 25.7535 36.8288 25.4247C37.5632 26.6576 38.2432 27.7535 38.896 28.9042C40.12 31.0138 41.2896 33.1508 42.4864 35.3151Z" fill="black"/>
  <path d="M33.1296 42.4384L22.712 48.4932C22.4672 48.6302 22.1952 48.7124 21.896 48.7124C21.5968 48.7124 21.3248 48.6302 21.08 48.4932L17.7888 46.5754C18.0064 45.9178 18.1968 45.2055 18.4688 44.5754C19.2576 42.7945 19.176 41.0411 18.5776 39.2055C17.5712 36.1096 16.728 32.9863 15.8576 29.863C15.7216 29.3973 15.7216 28.7945 15.8304 28.3288C16.9184 23.6987 17.9792 19.0685 19.176 14.4658C19.5024 13.2329 20.2096 12.1096 20.7536 10.9589C20.8896 10.9863 21.0256 10.9863 21.1616 11.0137C24.0448 17.8082 26.928 24.6302 29.8112 31.4521C30.2464 31.3151 30.5728 31.2055 31.0352 31.0685C31.3616 32.7671 31.7152 34.4658 32.0416 36.137C32.3952 38.1918 32.7216 40.3288 33.1296 42.4384Z" fill="black"/>
  <path d="M42.4864 13.9725V31.7533C41.7792 30.5204 41.0992 29.3698 40.4464 28.1917C39.4128 26.3561 38.352 24.5204 37.3728 22.6574C36.9104 21.7807 36.5296 21.7807 35.904 22.493C34.3536 24.2739 32.7216 25.9999 31.144 27.7533C30.9808 27.9451 30.7904 28.0821 30.4096 28.4109C27.3088 21.0958 24.2624 13.9451 21.08 6.43825C20.2912 7.9451 19.6656 9.09578 19.0672 10.3013C17.272 13.9451 15.504 17.6163 13.6816 21.2328C13.5184 21.5615 13.1376 21.8355 12.784 21.9725C10.8528 22.7122 8.89438 23.3698 6.99038 24.1643C6.44638 24.3835 5.87518 24.9314 5.60318 25.4793C4.48798 27.7533 3.50878 30.0821 2.39358 32.3287C2.12158 32.8766 1.68638 33.3698 1.27838 33.8629V13.9725C1.27838 13.3972 1.60478 12.8492 2.09438 12.5478L21.08 1.50675C21.3248 1.36976 21.5968 1.28757 21.896 1.28757C22.168 1.28757 22.4672 1.36976 22.712 1.50675L41.6704 12.5478C42.1872 12.8492 42.4864 13.3698 42.4864 13.9725Z" fill="black"/>
</svg>
