<svg width="28" height="28" viewBox="0 0 28 28" fill="none" xmlns="http://www.w3.org/2000/svg">
  <path d="M4.66658 17.5H6.99992V23.3334H20.9999V4.66671H6.99992V10.5H4.66658V3.50004C4.66658 3.19062 4.7895 2.89388 5.00829 2.67508C5.22709 2.45629 5.52383 2.33337 5.83325 2.33337H22.1666C22.476 2.33337 22.7727 2.45629 22.9915 2.67508C23.2103 2.89388 23.3332 3.19062 23.3332 3.50004V24.5C23.3332 24.8095 23.2103 25.1062 22.9915 25.325C22.7727 25.5438 22.476 25.6667 22.1666 25.6667H5.83325C5.52383 25.6667 5.22709 25.5438 5.00829 25.325C4.7895 25.1062 4.66658 24.8095 4.66658 24.5V17.5ZM11.6666 12.8334V9.33337L17.4999 14L11.6666 18.6667V15.1667H2.33325V12.8334H11.6666Z" fill="#FDB913"/>
</svg>
