<svg width="28" height="28" viewBox="0 0 28 28" fill="none" xmlns="http://www.w3.org/2000/svg">
  <path d="M20.9999 11.6666C20.9999 9.81007 20.2624 8.02959 18.9497 6.71684C17.6369 5.40408 15.8564 4.66659 13.9999 4.66659C12.1434 4.66659 10.3629 5.40408 9.05017 6.71684C7.73742 8.02959 6.99992 9.81007 6.99992 11.6666V20.9999H20.9999V11.6666ZM23.3333 21.7781L23.7999 22.3999C23.8649 22.4866 23.9045 22.5896 23.9142 22.6975C23.924 22.8054 23.9034 22.9139 23.855 23.0108C23.8066 23.1077 23.7321 23.1892 23.6399 23.2461C23.5478 23.3031 23.4416 23.3333 23.3333 23.3333H4.66659C4.55825 23.3333 4.45206 23.3031 4.35991 23.2461C4.26776 23.1892 4.19328 23.1077 4.14484 23.0108C4.09639 22.9139 4.07588 22.8054 4.08561 22.6975C4.09534 22.5896 4.13492 22.4866 4.19992 22.3999L4.66659 21.7781V11.6666C4.66659 9.19123 5.64992 6.81726 7.40026 5.06692C9.1506 3.31658 11.5246 2.33325 13.9999 2.33325C16.4753 2.33325 18.8492 3.31658 20.5996 5.06692C22.3499 6.81726 23.3333 9.19123 23.3333 11.6666V21.7781ZM11.0833 24.4999H16.9166C16.9166 25.2735 16.6093 26.0153 16.0623 26.5623C15.5153 27.1093 14.7735 27.4166 13.9999 27.4166C13.2264 27.4166 12.4845 27.1093 11.9375 26.5623C11.3905 26.0153 11.0833 25.2735 11.0833 24.4999Z" fill="#FDB913"/>
</svg>
