<svg width="48" height="48" viewBox="0 0 48 48" fill="none" xmlns="http://www.w3.org/2000/svg">
  <path d="M19.6598 17.58L15.9998 18.912V26H11.9998V16.1H12.0298L22.5658 12.264C23.0538 12.078 23.5858 11.984 24.1298 12.002C25.2168 12.0291 26.2683 12.3942 27.1383 13.0466C28.0082 13.6989 28.6532 14.6061 28.9838 15.642C29.3558 16.808 29.6958 17.596 30.0038 18.006C30.9346 19.2472 32.1419 20.2545 33.5299 20.9478C34.9178 21.641 36.4483 22.0013 37.9998 22V26C35.9344 26.0022 33.8941 25.5466 32.026 24.6657C30.1578 23.7849 28.5082 22.5009 27.1958 20.906L25.8018 28.818L29.9998 32.34V46H25.9998V34.204L21.4598 30.396L20.0058 38.65L6.21777 36.22L6.91377 32.28L16.7618 34.016L19.6598 17.58ZM26.9998 11C25.9389 11 24.9215 10.5786 24.1713 9.82843C23.4212 9.07828 22.9998 8.06087 22.9998 7C22.9998 5.93913 23.4212 4.92172 24.1713 4.17157C24.9215 3.42143 25.9389 3 26.9998 3C28.0606 3 29.0781 3.42143 29.8282 4.17157C30.5783 4.92172 30.9998 5.93913 30.9998 7C30.9998 8.06087 30.5783 9.07828 29.8282 9.82843C29.0781 10.5786 28.0606 11 26.9998 11Z" fill="#121212"/>
</svg>
