<svg width="102" height="56" viewBox="0 0 102 56" fill="none" xmlns="http://www.w3.org/2000/svg">
  <path d="M92.3514 55.3391C93.0881 55.6934 93.8722 55.8705 94.7103 55.8705C96.0013 55.8705 97.1436 55.5776 98.1236 54.9848C99.124 54.4057 99.9621 53.5336 100.638 52.3617C100.902 51.9325 101.118 51.5101 101.28 51.0945C101.456 50.6652 101.611 50.2087 101.74 49.7182C101.841 49.2004 101.895 48.6826 101.895 48.1648C101.922 47.647 101.882 47.1837 101.76 46.7681L98.4143 47.2995L95.0685 47.8991L94.9334 50.8083C95.5957 50.6312 96.1432 50.4949 96.5826 50.4063L98.367 50.0725C98.1912 50.7811 97.8533 51.3466 97.3531 51.7622C96.8259 52.2187 96.2176 52.4639 95.5214 52.498C94.6968 52.5457 94.0547 52.3413 93.5815 51.8984C93.1827 51.5305 92.9191 50.9855 92.7907 50.2769C92.5879 48.9619 92.8516 47.7015 93.5815 46.5023C94.2304 45.4395 94.9671 44.7582 95.8053 44.4584C96.7583 44.145 97.5964 44.4243 98.3196 45.2828L100.523 42.9254C99.9959 42.1555 99.3876 41.5764 98.6914 41.1948C98.002 40.8269 97.2179 40.643 96.3325 40.643C95.3321 40.643 94.4129 40.8678 93.5815 41.3107C92.7434 41.7535 91.9796 42.4348 91.2902 43.3546C90.7765 44.0632 90.3371 44.8467 89.9654 45.712C89.668 46.4955 89.4652 47.354 89.3503 48.2874C89.303 48.8529 89.2895 49.3503 89.303 49.7999C89.33 50.3178 89.3841 50.7879 89.4585 51.1967C89.5734 51.6532 89.7086 52.096 89.8573 52.5048C89.9924 52.7705 90.2155 53.1725 90.5399 53.7039C91.0604 54.4193 91.6619 54.9644 92.3514 55.3391ZM78.4546 56L82.1316 55.087C82.0167 53.5472 81.9559 52.0279 81.9559 50.5358C82.0167 50.6516 82.2059 50.965 82.5304 51.4692L84.4229 54.3784C84.7338 54.7941 84.8961 55.0325 84.9096 55.087L88.5865 54.2013C88.2621 50.4404 88.3838 45.8687 88.938 40.4794L84.8623 41.1471V48.8052C84.5851 48.3624 84.3215 47.7492 84.0715 46.9588C83.6592 45.6439 83.2401 44.07 82.8142 42.2509C82.6655 41.5287 82.5574 40.9359 82.483 40.4726L78.4276 41.1608L78.4546 56ZM73.2771 55.5163L75.1494 55.0938L77.0014 54.6033C76.8527 52.7705 76.8054 50.672 76.846 48.3215C76.8865 46.0254 77.042 43.559 77.3056 40.9291L73.2501 41.5764L73.2771 55.5163ZM61.7326 56L65.4095 55.087C65.2946 53.5472 65.2338 52.0279 65.2338 50.5358C65.2947 50.6516 65.4839 50.965 65.8083 51.4692L67.7009 54.3784C68.0118 54.7941 68.174 55.0325 68.1876 55.087L71.8645 54.2013C71.5401 50.4404 71.6617 45.8687 72.216 40.4794L68.1402 41.1471V48.8052C67.8631 48.3624 67.5995 47.7492 67.3494 46.9588C66.9371 45.6439 66.518 44.07 66.0922 42.2509C65.9435 41.5287 65.8354 40.9359 65.761 40.4726L61.7055 41.1608L61.7326 56ZM50.3232 56L54.0002 55.087C53.8853 53.5472 53.8244 52.0279 53.8244 50.5358C53.8853 50.6516 54.0745 50.965 54.399 51.4692L56.2915 54.3784C56.6024 54.7941 56.7647 55.0325 56.7782 55.087L60.4551 54.2013C60.1307 50.4404 60.2523 45.8687 60.8066 40.4794L56.7309 41.1471V48.8052C56.4537 48.3624 56.1901 47.7492 55.94 46.9588C55.5277 45.6439 55.1086 44.07 54.6828 42.2509C54.5341 41.5287 54.426 40.9359 54.3516 40.4726L50.2962 41.1608L50.3232 56ZM38.292 50.0316C38.0419 51.8848 38.2379 53.3088 38.8868 54.3171C39.6641 55.4754 41.07 55.9387 43.0977 55.7138C45.2877 55.4618 46.8491 55.0393 47.7886 54.4466C49.0525 53.6494 49.627 52.4503 49.5054 50.8492L49.1539 45.896L48.7551 40.9904L44.7267 40.7452L45.673 49.9635C45.673 50.6584 45.4972 51.2103 45.1457 51.6055C44.7199 52.0824 44.1792 52.314 43.5168 52.314C42.5638 52.314 42.0839 51.7894 42.0839 50.7402C42.0839 50.3723 42.1379 49.9362 42.2393 49.432C42.3407 48.8665 42.3948 48.4918 42.3948 48.301L43.0099 44.8127L43.7128 41.3515L39.6168 41.0177L38.292 50.0316ZM34.196 40.5885C32.6211 40.5885 30.6136 40.9155 28.1601 41.5627C28.4237 43.9474 28.4507 48.7303 28.248 55.9046L31.8844 54.9712C31.7695 53.3428 31.7154 51.7145 31.7289 50.0861L35.5411 55.6798C36.7307 54.6714 37.8188 53.7176 38.7989 52.8182C36.7712 50.3927 35.5681 48.8802 35.1828 48.2874C37.2511 46.952 38.2109 45.2555 38.0487 43.1775C37.7242 41.4605 36.44 40.5885 34.196 40.5885ZM31.7897 45.5212C31.7897 45.092 31.81 44.6355 31.8573 44.145C32.5197 43.9814 33.0469 43.9133 33.4457 43.9474C33.9121 43.961 34.1824 44.1381 34.2365 44.4788C34.3244 44.9217 33.9797 45.4463 33.2024 46.0527C32.7901 46.3661 32.2967 46.659 31.7289 46.9384L31.7897 45.5212ZM92.6488 34.184C95.8526 33.4141 98.563 32.9644 100.78 32.8282L100.381 29.1422L96.1702 29.6736C96.1297 26.5532 96.2852 23.1874 96.6569 19.59L92.6285 20.2373L92.6488 34.184ZM87.5997 34.1568L89.472 33.7343L91.324 33.2438C91.1753 31.411 91.128 29.3125 91.1685 26.962C91.2091 24.6659 91.3645 22.1995 91.6281 19.5696L87.5727 20.2169L87.5997 34.1568ZM80.3336 29.1218L81.2123 23.8143L82.1181 29.1013L80.3336 29.1218ZM79.6037 34.5179L80.0633 32.0106L82.6859 31.7244L83.213 34.2113L87.2212 33.2778C85.5787 27.9499 84.4567 23.2896 83.8754 19.3107L78.6101 20.0465C77.9071 24.5773 76.8595 29.1013 75.4806 33.6117L79.6037 34.5179ZM71.4995 19.2358C69.9246 19.2358 67.9172 19.5628 65.4636 20.2101C65.7272 22.5947 65.7543 27.3776 65.5515 34.5519L69.1879 33.6185C69.073 31.9901 69.0189 30.3618 69.0324 28.7334L72.8446 34.3271C74.0342 33.3187 75.1224 32.3649 76.1024 31.4655C74.0747 29.04 72.8716 27.5275 72.4863 26.9347C74.5546 25.5993 75.5144 23.9028 75.3522 21.8248C75.0278 20.101 73.7435 19.2358 71.4995 19.2358ZM69.1 24.1685C69.1 23.7393 69.1203 23.2828 69.1676 22.7923C69.83 22.6288 70.3572 22.5606 70.756 22.5947C71.2224 22.6083 71.4927 22.7855 71.5468 23.1261C71.6347 23.569 71.29 24.0936 70.5127 24.7C70.1004 25.0134 69.607 25.3064 69.0392 25.5857L69.1 24.1685ZM64.6728 19.3516L54.8924 20.285L54.6288 24.08L56.3659 23.8824C56.7782 23.8211 57.2783 23.7666 57.8664 23.7052L57.8867 34.6746L62.1855 33.7888C61.6988 28.4881 61.5163 25.0134 61.638 23.351C62.1787 23.3033 63.4089 23.2351 65.3149 23.1261L64.6728 19.3516ZM41.5499 11.0803C41.5837 11.4005 41.4147 11.5232 41.1511 11.5845C41.0497 11.6049 40.9551 11.7071 40.8875 11.7957C40.6104 12.1772 40.313 12.2454 39.9547 11.9456C39.6438 11.6867 39.3599 11.4005 39.0625 11.1212C38.488 10.5966 38.1028 10.6238 37.6026 11.2302C37.3795 11.5027 37.3525 11.8366 37.5147 12.1432C37.8459 12.7496 37.954 13.39 37.9202 14.0713C37.8932 14.6436 38.0757 15.1546 38.3393 15.6588C38.7381 16.4423 38.8733 17.3076 38.8057 18.1933C38.7922 18.35 38.7651 18.5067 38.7584 18.6634C38.7448 18.9428 38.8192 19.0109 39.0558 18.9087C40.0696 18.4795 41.0903 18.0503 42.0906 17.5938C42.4961 17.4098 42.8747 17.1577 43.2464 16.9124C43.5911 16.6808 43.7263 16.3129 43.7128 15.8836C43.706 15.6316 43.6993 15.3795 43.6587 15.1342C43.5776 14.6232 43.7128 14.1735 43.9967 13.7715C44.1859 13.5058 44.3887 13.2537 44.5982 13.0016C44.6523 12.9403 44.7605 12.9335 44.8416 12.8994C44.8754 13.0016 44.9565 13.1175 44.9362 13.1924C44.8618 13.4445 44.7402 13.6762 44.6185 13.9623C44.8281 13.8192 44.997 13.6966 45.1795 13.574C45.2741 13.5126 45.3688 13.4445 45.4702 13.39C45.6729 13.281 45.8284 13.3423 45.9095 13.5671C45.9703 13.7375 46.1326 13.8192 46.2137 13.9419C46.4773 14.3438 46.991 14.5687 46.9842 15.1614L47.0045 15.2977C46.9977 15.4612 47.0315 15.6588 46.9639 15.7951C46.5449 16.6263 45.9568 17.2804 45.2268 17.8254C44.7402 18.1865 44.3279 18.6634 43.8885 19.0995C43.0301 19.958 42.192 20.8505 41.3133 21.6885C40.6509 22.3222 39.8533 22.7105 39.0084 22.9967C38.6975 23.1057 38.3799 23.2079 38.069 23.3305C37.7986 23.4327 37.5688 23.385 37.3863 23.1534C37.0551 22.7309 36.7374 22.3017 36.3994 21.8793C35.8452 21.1912 35.2977 20.5098 34.8786 19.7127C34.4596 18.9087 34.2636 18.0366 34.0878 17.1509C34.0676 17.0419 34.0338 16.9397 33.9932 16.8034C33.5133 17.0964 33.0604 17.3962 32.5873 17.6551C32.1885 17.8799 31.783 18.0843 31.3572 18.2547C30.3636 18.6498 29.5187 19.2971 28.7143 19.9988C28.1398 20.503 27.6261 21.0821 26.9435 21.4432C26.8353 21.4978 26.7542 21.6 26.6663 21.6749C27.6126 22.4312 28.5521 23.1602 29.4714 23.9165C30.9381 25.1224 32.2764 26.4782 33.4119 28.0453C34.1622 29.0741 34.6421 30.2187 34.5812 31.5473C34.5677 31.8948 34.4866 32.249 34.3785 32.5693C34.223 33.0394 33.7837 33.1893 33.4052 33.3869C32.513 33.8502 31.5734 34.1704 30.6136 34.4293C29.8431 34.6405 29.1199 35.0152 28.3629 35.2809C27.2003 35.6965 25.9836 35.8192 24.7738 35.9759C23.5031 36.1394 22.2324 36.3302 20.9617 36.5073C20.671 36.5482 20.4615 36.6913 20.3466 36.9911C20.2181 37.3454 20.0762 37.6928 19.9613 38.0539C19.718 38.7693 19.5084 39.4915 19.2516 40.2001C18.9947 40.9019 18.9001 41.6241 18.9204 42.3735C18.9272 42.6052 18.9272 42.8368 18.9204 43.0685C18.9069 43.5386 18.6635 43.743 18.2445 43.5795C17.4131 43.2524 16.8183 42.6461 16.575 41.7126C16.3316 40.7656 16.5074 39.8254 16.6764 38.8988C16.7778 38.3401 16.7575 37.795 16.6493 37.1886C16.3857 37.5634 16.1356 37.8904 15.9261 38.2447C15.5544 38.8783 15.0474 39.3621 14.5134 39.8254C13.1008 41.0449 11.7017 42.2781 10.2687 43.4636C9.42385 44.1586 8.51135 44.765 7.66646 45.4531C6.99055 46.005 6.36874 46.6182 5.71311 47.2041C5.46302 47.4289 5.32781 47.7355 5.34809 48.0626C5.40216 49.1459 5.47654 50.236 5.58469 51.3193C5.632 51.803 5.99022 52.1369 6.28762 52.4707C6.40928 52.607 6.53771 52.7296 6.67289 52.8523C7.17307 53.302 7.02435 53.7993 6.49038 54.0787C6.00373 54.3308 5.47654 54.3103 4.94933 54.2558C3.67861 54.1332 2.96891 53.2611 2.50253 52.1028C2.33356 51.6804 2.23214 51.2239 2.13075 50.7674C1.97529 50.0384 1.63735 49.4048 1.33994 48.7439C1.10338 48.2193 0.927652 47.6333 0.846543 47.0542C0.71812 46.2026 1.20479 45.5281 2.08347 45.1738C2.25245 45.1056 2.43492 45.0307 2.61066 45.0307C3.2325 45.0239 3.69889 44.6696 4.18554 44.3221C5.3008 43.5181 6.13892 42.4417 6.88242 41.2698C7.34204 40.5408 7.75433 39.7777 8.17339 39.0214C8.80199 37.8904 9.66716 37.0319 10.7148 36.3642C11.3096 35.9827 11.8909 35.5807 12.4925 35.206C13.1211 34.8108 13.3914 34.1499 13.6889 33.4959C13.9051 33.0189 14.0268 32.5148 14.0809 31.9765C14.189 30.9886 14.554 30.0824 14.9934 29.2103C15.5949 28.018 16.2235 26.8461 16.8318 25.6606C16.8926 25.538 16.9062 25.3813 16.9062 25.2382C16.8994 24.3184 16.8656 23.3986 16.8791 22.4789C16.8926 21.4978 17.3117 20.6802 17.8322 19.9171C18.3324 19.1812 18.9542 18.5953 19.5963 18.0026C20.4547 17.2122 21.2523 16.3401 22.0499 15.4748C23.4558 13.9419 24.6792 12.2386 25.7809 10.4399C26.2405 9.69041 26.4974 8.84556 26.7812 8.00072C25.6728 7.33302 24.5913 6.66533 23.4963 6.01807C23.1178 5.79323 22.7866 5.52752 22.5162 5.15279C22.0972 4.58048 21.5024 4.45102 20.8873 4.61454C19.8261 4.90751 18.792 5.28905 17.7376 5.58884C16.5412 5.9295 15.4192 6.46093 14.331 7.08775C14.1485 7.19676 14.0065 7.43522 13.8984 7.64643C13.3914 8.63435 13.1887 9.74491 12.7696 10.7737L12.7358 10.8487C12.6614 10.9577 12.6547 11.2029 12.4722 11.1144C12.3438 11.0531 12.2153 10.8691 12.1951 10.7192C12.168 10.4876 12.2289 10.2423 12.2559 10.0038C12.2627 9.91524 12.2762 9.82667 12.2897 9.7381L12.2356 9.67678C11.8977 9.88799 11.5462 10.0788 11.215 10.3036C11.0055 10.4467 10.823 10.6443 10.627 10.8078C10.3633 11.0326 9.78207 10.9509 9.61985 10.6374C9.35625 10.1265 9.06563 9.61546 9.01156 9.01589C8.94397 8.33457 9.07235 7.74863 9.64688 7.33984C9.95779 7.12181 10.2282 6.84247 10.5458 6.63807C10.823 6.46093 11.1271 6.29741 11.4381 6.20884C12.3573 5.93631 13.1076 5.37081 13.8511 4.77125C14.7433 4.04904 15.6625 3.36091 16.575 2.67277C17.6023 1.89606 18.7041 1.2488 19.8532 0.690115C20.4344 0.410772 21.0022 0.34264 21.624 0.485718C22.8745 0.765061 24.1452 0.962644 25.3889 1.26924C26.3554 1.5077 27.3152 1.8143 28.2344 2.20265C28.8427 2.46156 29.3903 2.90442 29.9513 3.27915C30.1743 3.42904 30.3974 3.49717 30.6677 3.49717C31.391 3.49036 32.1142 3.52442 32.7157 4.0286C33.2429 4.47146 33.7228 4.98246 34.2365 5.45257C34.4055 5.60246 34.5948 5.74554 34.7975 5.82049C35.149 5.94994 35.4329 6.16115 35.683 6.4473C36.102 6.93104 36.2507 6.95148 36.7374 6.54269C36.8929 6.41324 37.028 6.22928 37.1227 6.03851C37.4674 5.33675 37.758 4.5941 38.1433 3.91278C38.6502 3.01343 39.4411 2.56376 40.4347 2.48881C41.9825 2.37299 42.9896 3.24508 43.7196 4.58047C43.9223 4.9552 44.0575 5.37762 44.1792 5.78642C44.3346 6.30422 44.2265 6.82203 44.044 7.31258C43.8953 7.70094 43.7331 8.07567 43.5709 8.4504C43.5438 8.51853 43.5033 8.6071 43.456 8.62754C42.9625 8.79106 42.9964 9.24073 42.9626 9.64953C42.9423 9.8403 42.9355 10.0379 42.922 10.2355C42.9085 10.4126 42.8341 10.5216 42.6584 10.4944C42.388 10.4535 42.2461 10.5761 42.165 10.8487C42.1379 10.9372 42.0028 11.0122 41.9014 11.0462C41.7865 11.0871 41.6783 11.0735 41.5499 11.0803ZM23.1448 28.7198C22.692 29.4965 22.2864 30.2732 21.8133 31.0022C21.3401 31.7244 20.8062 32.4058 20.306 33.0939C20.3533 33.0939 20.4344 33.0939 20.5155 33.0871C21.8606 32.9712 23.0773 32.4603 24.2128 31.7108C24.909 31.2543 25.6119 30.8319 26.4501 30.7161C26.9435 30.6479 27.4301 30.5117 27.9235 30.4027C26.2676 30.0347 24.6116 29.6873 23.1448 28.7198Z" fill="#C9CCCF"/>
</svg>
