<svg width="92" height="56" viewBox="0 0 92 56" fill="none" xmlns="http://www.w3.org/2000/svg">
  <path d="M81.7554 55.3266C82.4984 55.6839 83.2891 55.8626 84.1344 55.8626C85.4363 55.8626 86.5883 55.5671 87.5767 54.9693C88.5856 54.3853 89.4308 53.5058 90.1125 52.3239C90.3783 51.891 90.5965 51.465 90.7601 51.0459C90.9373 50.613 91.0941 50.1526 91.2236 49.6579C91.3258 49.1357 91.3804 48.6135 91.3804 48.0913C91.4076 47.5691 91.3667 47.1019 91.244 46.6827L87.8698 47.2187L84.4956 47.8233L84.3593 50.7573C85.0273 50.5787 85.5795 50.4412 86.0226 50.3519L87.8221 50.0152C87.6449 50.7298 87.3041 51.3001 86.7996 51.7193C86.268 52.1796 85.6545 52.427 84.9524 52.4614C84.1207 52.5095 83.4732 52.3033 82.996 51.8567C82.5938 51.4856 82.328 50.936 82.1985 50.2214C81.994 48.8952 82.2598 47.6241 82.996 46.4147C83.6504 45.3428 84.3934 44.6557 85.2386 44.3534C86.1998 44.0373 87.045 44.319 87.7744 45.1848L89.9966 42.8074C89.4649 42.0309 88.8514 41.4469 88.1493 41.0621C87.454 40.6911 86.6633 40.5056 85.7703 40.5056C84.7615 40.5056 83.8344 40.7323 82.996 41.1789C82.1507 41.6255 81.3805 42.3127 80.6852 43.2403C80.1671 43.9549 79.7241 44.7451 79.3492 45.6177C79.0492 46.4079 78.8447 47.2736 78.7288 48.215C78.6811 48.7853 78.6675 49.2869 78.6811 49.7404C78.7084 50.2626 78.7629 50.7367 78.8379 51.149C78.9538 51.6093 79.0901 52.056 79.2401 52.4682C79.3764 52.7362 79.6014 53.1416 79.9286 53.6775C80.4534 54.399 81.0601 54.9556 81.7554 55.3266ZM67.7406 56L71.4488 55.0793C71.3329 53.5264 71.2715 51.9941 71.2715 50.4893C71.3329 50.6061 71.5237 50.9222 71.8509 51.4307L73.7596 54.3647C74.0731 54.7838 74.2367 55.0243 74.2504 55.0793L77.9586 54.186C77.6314 50.3931 77.7541 45.7826 78.313 40.3475L74.2026 41.0209V48.7441C73.9232 48.2974 73.6573 47.679 73.4051 46.882C72.9893 45.5559 72.5667 43.9686 72.1372 42.134C71.9873 41.4057 71.8782 40.8079 71.8032 40.3406L67.7133 41.0346L67.7406 56ZM62.5191 55.5053L64.4073 55.0793L66.275 54.5845C66.125 52.7362 66.0773 50.6199 66.1182 48.2493C66.1591 45.9338 66.3159 43.4464 66.5817 40.7941L62.4918 41.4469L62.5191 55.5053ZM50.5901 56L51.7898 48.1188L52.676 55.8007L55.9206 55.5328L56.8068 48.5654L58.2315 55.9313L62.1646 55.1274C60.6241 50.0977 59.5743 45.2947 59.0085 40.7254L55.4776 41.014L54.4755 47.9539L53.3644 40.7186L49.6562 41.4813C49.0223 46.5109 48.0543 51.0871 46.766 55.2098L50.5901 56ZM35.8118 56L37.0115 48.1188L37.8977 55.8007L41.1424 55.5328L42.0285 48.5654L43.4532 55.9313L47.3863 55.1274C45.8458 50.0977 44.796 45.2947 44.2303 40.7254L40.6993 41.014L39.6973 47.9539L38.5862 40.7186L34.8779 41.4813C34.244 46.5109 33.2761 51.0871 31.9877 55.2098L35.8118 56ZM27.6115 55.5053L29.4997 55.0793L31.3674 54.5845C31.2175 52.7362 31.1697 50.6199 31.2106 48.2493C31.2515 45.9338 31.4083 43.4464 31.6742 40.7941L27.5842 41.4469L27.6115 55.5053ZM23.4398 40.6155L22.2401 48.4555L21.2857 40.4575L18.0206 40.7254L17.1958 48.002L15.9756 41.1721L12.0425 42.0035C13.4671 46.6003 14.4556 51.1971 15.0213 55.7733L18.6409 55.5465L19.5066 49.3419L20.3519 55.8351L24.3736 54.9831C25.0076 50.029 25.9755 45.5009 27.2639 41.4125L23.4398 40.6155ZM11.1086 43.3227C10.6928 41.3988 9.71804 40.4712 8.1775 40.5468C6.60969 40.6361 4.95327 41.6736 3.22187 43.6594C1.54499 45.6039 0.761091 47.2943 0.863339 48.7441C0.876972 49.4793 1.26552 50.0152 2.01534 50.3588C2.35616 50.5855 2.82651 50.6955 3.44 50.6955C3.93079 50.6955 4.57836 50.5993 5.39635 50.4069C6.19388 50.2557 6.84146 50.1801 7.33225 50.1801C8.01391 50.1801 8.382 50.3588 8.44335 50.7161C8.51833 51.0184 8.26612 51.3001 7.68671 51.5681C7.23 51.7742 6.77329 51.9254 6.33022 52.0147C6.06437 52.1178 5.79852 52.1728 5.53268 52.1728C4.95327 52.1728 4.36705 52.0079 3.77401 51.678C3.1946 53.1691 2.78561 54.3578 2.55384 55.2373C3.44 55.6083 4.32615 55.7939 5.19867 55.7939C6.1598 55.7939 7.05959 55.5602 7.88439 55.0999C9.52718 54.2341 10.7201 53.1485 11.4631 51.8498C12.0698 50.8466 12.2879 49.9396 12.1107 49.1151C12.0493 48.8884 11.9471 48.6341 11.7971 48.3524C11.429 47.576 10.5497 47.1843 9.17272 47.1843C8.65466 47.1843 8.02072 47.2462 7.26408 47.363C6.77329 47.4385 6.39838 47.4729 6.13254 47.4729C5.52586 47.4729 5.1714 47.3561 5.06915 47.1156C4.93282 46.7308 5.03507 46.3254 5.35545 45.9063C5.87351 45.3703 6.41201 45.1024 6.97779 45.1024C7.45495 45.1024 7.74806 45.4116 7.86394 46.0231L11.3268 44.8825C11.2586 44.2297 11.1836 43.7075 11.1086 43.3227ZM33.576 30.1095C30.4404 30.0751 27.2979 29.8072 24.3123 28.5772C20.9108 27.1687 18.6614 24.7157 17.3594 21.177C17.9729 20.8747 18.5182 20.9159 19.084 21.3419C19.602 21.7404 20.1542 22.1046 20.7131 22.4413C25.7438 25.4715 26.2686 25.4646 30.8562 21.8847C32.2877 20.7647 33.8759 20.0295 35.5801 19.5898C36.8411 19.2668 37.9181 18.5591 39.1247 18.1674C39.9086 17.9132 39.3155 17.6933 39.261 17.4048C38.1363 11.3169 40.1949 5.96429 42.9965 0.762826C43.3373 0.13068 43.794 -0.0823263 44.4348 0.0276121C45.3345 0.185649 46.2616 0.274974 47.1205 0.577304C55.1027 3.40822 62.7781 6.87128 69.4515 12.2308C71.6601 14.0035 72.4099 16.7589 73.3506 19.3287C73.4937 19.7135 73.1597 19.9471 72.9143 20.1326C72.4303 20.4968 71.8918 20.4418 71.4692 20.057C70.4944 19.1775 69.5878 18.2224 68.6131 17.3429C68.1768 16.9513 67.9655 16.1198 66.9907 16.429C67.1066 17.549 68.4631 19.1157 67.0657 19.6585C66.0705 20.0433 65.4434 18.2155 64.9185 17.1986C64.0937 15.5976 62.485 14.3746 62.5532 12.3064C62.56 12.0659 62.0487 11.7361 61.7215 11.5711C58.9404 10.1626 56.1388 8.67152 53.0236 8.34857C51.3331 8.1768 49.6017 8.41729 47.9589 7.75766C47.3591 7.51717 47.3045 7.95692 47.2568 8.34857C47.0114 10.5061 46.8819 12.698 45.5527 14.5601C45.4641 14.6838 45.3209 14.8487 45.5459 15.0479C47.768 16.9994 47.1205 19.4867 46.691 21.8779C46.5138 22.8811 46.4865 23.8361 47.4 24.3103C48.1566 24.7019 48.5179 23.685 49.07 23.3277C49.9016 22.7849 50.4606 22.029 50.8355 21.0808C51.2513 20.0295 51.7421 19.15 53.2826 19.4043C54.3051 19.576 55.2935 18.6622 56.4183 18.4973C59.2062 18.0987 61.517 18.7652 63.0371 21.2457C63.5143 22.029 63.9778 22.084 64.7754 22.0015C68.1086 21.6786 71.4419 21.5687 74.7071 22.5787C75.9477 22.9635 77.1474 23.4239 78.5039 24.7157C78.2517 24.6744 78.0063 24.6469 77.7541 24.6126C77.5564 24.537 77.3314 24.5026 77.0929 24.5233C69.3084 23.6094 62.2532 25.6707 55.1436 27.0587C47.993 28.4604 40.9038 30.1851 33.576 30.1095ZM14.6873 24.0079C16.2142 25.6914 17.8775 27.1618 19.6702 28.4055C21.4425 29.6698 23.358 30.6592 25.328 31.3875C27.3048 32.1159 29.3565 32.535 31.422 32.6656C32.4649 32.7205 33.4737 32.7137 34.578 32.645C35.6619 32.6106 36.7457 32.5213 37.8159 32.4182C39.9699 32.2189 42.0967 31.8891 44.2234 31.4494C46.3502 31.0096 48.4838 30.4531 50.6719 29.924C51.7626 29.656 52.8805 29.4293 53.9984 29.2163C55.1027 28.9895 56.2069 28.7765 57.3249 28.6047C59.5402 28.2199 61.8647 28.0001 64.1073 28.2474C62.9962 28.4467 61.8988 28.6528 60.8354 28.9552C59.772 29.2575 58.7154 29.6079 57.6589 29.9652L54.496 31.0646L51.3945 32.2808C49.3154 33.0985 47.175 33.8955 44.9528 34.507C42.7374 35.1392 40.4403 35.5446 38.1431 35.7782C35.8323 35.9843 33.576 36.1011 31.1425 35.8607C28.7567 35.5789 26.4118 34.9124 24.285 33.8337C20.0315 31.683 16.5755 28.1718 14.6873 24.0079Z" fill="#C9CCCF"/>
</svg>
