<svg width="28" height="28" viewBox="0 0 28 28" fill="none" xmlns="http://www.w3.org/2000/svg">
  <path d="M13.9999 25.6666C7.55642 25.6666 2.33325 20.4434 2.33325 13.9999C2.33325 7.55642 7.55642 2.33325 13.9999 2.33325C20.4434 2.33325 25.6666 7.55642 25.6666 13.9999C25.6666 20.4434 20.4434 25.6666 13.9999 25.6666ZM8.18175 21.2986C9.83323 22.6189 11.8855 23.3366 13.9999 23.3333C16.2983 23.3333 18.4018 22.5026 20.0281 21.1259C19.2683 20.3463 18.3598 19.7269 17.3565 19.3045C16.3531 18.8821 15.2752 18.6652 14.1866 18.6666C13.0579 18.6653 11.9413 18.8986 10.9076 19.3517C9.87392 19.8048 8.94566 20.4678 8.18175 21.2986ZM6.55192 19.6233C7.53245 18.5827 8.7157 17.7539 10.0287 17.1881C11.3418 16.6223 12.7568 16.3313 14.1866 16.3333C15.5652 16.3315 16.9305 16.602 18.2043 17.1294C19.478 17.6567 20.6351 18.4305 21.6089 19.4063C22.6077 18.0006 23.1975 16.3457 23.3129 14.6252C23.4283 12.9046 23.0649 11.1858 22.2628 9.65928C21.4608 8.13278 20.2515 6.85831 18.7692 5.97727C17.2869 5.09623 15.5895 4.64306 13.8653 4.66805C12.1411 4.69303 10.4575 5.19518 9.00136 6.1188C7.5452 7.04242 6.37337 8.35139 5.61589 9.90049C4.85841 11.4496 4.5449 13.1782 4.71012 14.8947C4.87535 16.6111 5.51285 18.2483 6.55192 19.6244V19.6233ZM13.9999 15.1666C12.7622 15.1666 11.5753 14.6749 10.7001 13.7998C9.82492 12.9246 9.33325 11.7376 9.33325 10.4999C9.33325 9.26224 9.82492 8.07526 10.7001 7.20009C11.5753 6.32492 12.7622 5.83325 13.9999 5.83325C15.2376 5.83325 16.4246 6.32492 17.2998 7.20009C18.1749 8.07526 18.6666 9.26224 18.6666 10.4999C18.6666 11.7376 18.1749 12.9246 17.2998 13.7998C16.4246 14.6749 15.2376 15.1666 13.9999 15.1666ZM13.9999 12.8333C14.6188 12.8333 15.2122 12.5874 15.6498 12.1498C16.0874 11.7122 16.3333 11.1188 16.3333 10.4999C16.3333 9.88108 16.0874 9.28759 15.6498 8.85C15.2122 8.41242 14.6188 8.16659 13.9999 8.16659C13.3811 8.16659 12.7876 8.41242 12.35 8.85C11.9124 9.28759 11.6666 9.88108 11.6666 10.4999C11.6666 11.1188 11.9124 11.7122 12.35 12.1498C12.7876 12.5874 13.3811 12.8333 13.9999 12.8333Z" fill="#FDB913"/>
</svg>
