<svg width="111" height="55" viewBox="0 0 111 55" fill="none" xmlns="http://www.w3.org/2000/svg">
  <path d="M100.506 52.2454C101.25 52.6029 102.041 52.7817 102.887 52.7817C104.19 52.7817 105.342 52.486 106.331 51.8879C107.341 51.3034 108.187 50.4234 108.869 49.2408C109.135 48.8076 109.353 48.3813 109.517 47.9619C109.694 47.5288 109.851 47.0681 109.98 46.5731C110.083 46.0505 110.137 45.528 110.137 45.0055C110.165 44.4829 110.124 44.0154 110.001 43.596L106.625 44.1323L103.248 44.7373L103.112 47.6732C103.78 47.4944 104.333 47.3569 104.776 47.2675L106.577 46.9306C106.4 47.6457 106.058 48.2163 105.554 48.6357C105.022 49.0964 104.408 49.3439 103.705 49.3783C102.873 49.4264 102.225 49.2202 101.748 48.7732C101.345 48.402 101.079 47.8519 100.95 47.1369C100.745 45.8099 101.011 44.5379 101.748 43.3278C102.403 42.2552 103.146 41.5677 103.992 41.2652C104.954 40.9489 105.799 41.2308 106.529 42.0971L108.753 39.7182C108.221 38.9412 107.607 38.3568 106.904 37.9718C106.209 37.6005 105.417 37.4149 104.524 37.4149C103.514 37.4149 102.587 37.6418 101.748 38.0887C100.902 38.5356 100.131 39.2231 99.4354 40.1513C98.917 40.8664 98.4737 41.6571 98.0985 42.5303C97.7984 43.3209 97.5938 44.1873 97.4778 45.1292C97.4301 45.6999 97.4165 46.2018 97.4301 46.6556C97.4574 47.1781 97.5119 47.6525 97.587 48.0651C97.7029 48.5257 97.8393 48.9726 97.9894 49.3852C98.1258 49.6533 98.3509 50.059 98.6783 50.5953C99.2035 51.3172 99.8106 51.8741 100.506 52.2454ZM86.4757 52.9192L90.1863 51.9979C90.0704 50.444 90.009 48.9108 90.009 47.405C90.0704 47.5219 90.2613 47.8382 90.5887 48.347L92.4986 51.2828C92.8124 51.7022 92.9761 51.9429 92.9897 51.9979L96.7002 51.104C96.3728 47.3088 96.4956 42.6953 97.0549 37.2567L92.9419 37.9305V45.6586C92.6622 45.2117 92.3963 44.5929 92.1439 43.7954C91.7278 42.4684 91.305 40.8801 90.8752 39.0444C90.7252 38.3156 90.616 37.7174 90.5409 37.2499L86.4484 37.9443L86.4757 52.9192ZM81.2509 52.4242L83.1403 51.9979L85.0092 51.5028C84.8591 49.6533 84.8114 47.5356 84.8523 45.1636C84.8932 42.8465 85.0502 40.3576 85.3162 37.7036L81.2236 38.3568L81.2509 52.4242ZM70.0715 52.4035L73.7411 51.4822C73.6047 49.4333 73.5637 47.3294 73.6047 45.1636L76.9606 52.6717L81.0053 50.7671L76.5172 42.6334L80.6302 39.1819L77.1379 37.5455C76.2035 38.4599 75.1121 39.4294 73.8707 40.4607C73.898 39.6838 73.973 38.7556 74.0958 37.683L69.9828 38.3293L70.0715 52.4035ZM61.5317 52.4448C64.7648 51.6678 67.4999 51.2141 69.7372 51.0765L69.3348 47.3569L65.0854 47.8932C65.0444 44.7442 65.2013 41.3477 65.5765 37.7174L61.5112 38.3706L61.5317 52.4448ZM54.4653 47.3363L55.3519 41.9802L56.2659 47.3156L54.4653 47.3363ZM53.7286 52.7817L54.1924 50.2515L56.8389 49.9627L57.371 52.4723L61.4157 51.5303C59.7582 46.1537 58.626 41.4508 58.0394 37.4355L52.7259 38.1781C52.0165 42.7503 50.9593 47.3156 49.5678 51.8672L53.7286 52.7817ZM46.3756 37.5249L45.1752 45.3699L44.2203 37.3667L40.953 37.6349L40.1277 44.9161L38.9068 38.0818L34.9711 38.9137C36.3966 43.5135 37.3857 48.1132 37.9518 52.6923L41.5737 52.4654L42.44 46.2568L43.2858 52.7542L47.3101 51.9016C47.9445 46.9444 48.9131 42.4134 50.2022 38.3224L46.3756 37.5249ZM0.900715 47.46C1.28269 47.3569 1.65096 47.1987 2.03975 47.1575C3.30162 47.0337 4.37934 46.6693 5.04779 45.6036C5.91405 44.2285 6.88266 42.8947 7.65342 41.4714C8.49921 39.9038 9.5837 38.5562 11.0297 37.4011C11.6095 36.9405 12.0665 36.2873 12.3871 35.641C13.4034 33.6196 14.3379 31.5569 15.2791 29.508C15.3815 29.2811 15.4429 28.9855 15.3746 28.7586C15.1564 28.0366 14.8767 27.3353 14.6039 26.5928C14.5084 26.6478 14.3447 26.744 14.1742 26.8472C14.0787 26.799 13.9832 26.7509 13.8877 26.7028C14.181 26.0634 14.297 25.2177 14.8154 24.8258C15.593 24.2345 15.8794 23.5469 16.0363 22.7356C16.3091 21.3605 15.8044 20.0816 15.4156 18.789C15.361 18.6172 15.1222 18.459 14.9244 18.3696C14.2287 18.0465 13.4989 17.7852 12.81 17.4552C11.3026 16.7264 9.76788 16.032 8.31503 15.2138C6.7394 14.3268 6.71891 13.4811 8.1172 12.3329C8.39003 12.106 8.71747 11.9341 9.00395 11.7279C10.4841 10.6759 11.9301 9.59646 13.4444 8.59263C13.9969 8.22135 14.6653 7.96008 15.3201 7.77444C16.0499 7.57505 16.8343 7.50629 17.5914 7.40316C18.56 7.26565 18.9761 6.87375 18.8533 5.97305C18.7646 5.31988 18.4986 4.67358 18.2667 4.04103C17.7278 2.58341 18.0962 1.29081 19.0784 0.101345C19.2762 0.163225 19.4604 0.273233 19.6377 0.259482C20.7291 0.197602 21.8341 0.163225 22.9118 0.025714C23.9144 -0.104921 24.3305 0.35574 24.5147 1.11892C24.8216 2.42528 25.0944 3.74538 25.34 4.86609C25.0535 5.27175 24.7806 5.55364 24.6374 5.87679C24.3305 6.5781 24.2077 7.32753 23.1505 7.54755C22.5434 7.67818 22.1955 9.43832 22.673 9.91961C23.8735 11.1366 24.7466 12.4636 24.5965 14.2306C24.8625 14.1756 25.0399 14.1893 25.0944 14.1137C25.7151 13.323 26.4041 12.5598 26.8952 11.7072C27.816 10.1121 28.157 10.0159 29.5075 11.2535C30.1487 11.8379 30.1556 12.4773 29.4735 12.9998C28.8391 13.488 27.8433 13.8112 27.5909 14.4162C27.1816 15.3994 26.4723 16.087 25.7833 16.8433C25.2104 17.4827 24.576 18.0877 24.0781 18.7684C23.7098 19.2772 23.3619 19.8685 23.2937 20.4529C23.1505 21.663 23.1573 22.8869 23.1778 24.1107C23.1846 24.5851 23.2801 25.142 23.5666 25.5064C25.4764 27.9816 27.5568 30.3537 29.3643 32.8908C30.4829 34.4584 31.2265 36.246 29.6577 38.0474C29.5008 38.2331 29.4257 38.4943 29.3711 38.7281C28.6959 41.6777 28.0274 44.6342 27.3658 47.5906C27.2157 48.2713 27.584 48.7526 28.1434 49.1445C28.2661 49.2339 28.4571 49.3027 28.5049 49.4195C29.1188 50.7672 30.3397 51.4547 31.7585 51.9497C32.12 52.0735 32.4542 52.2591 32.8908 52.4585C31.9495 53.5242 30.7421 53.593 29.603 53.4074C27.6932 53.0979 25.8107 52.6304 23.9349 52.1766C22.6117 51.8535 22.4956 51.4547 23.1982 50.3409C23.6484 49.6258 24.2691 48.9383 24.4465 48.1682C24.7943 46.6075 25.0535 44.9986 25.0535 43.4103C25.0535 41.272 25.2172 39.1956 26.1721 37.2224C26.4108 36.7342 26.2949 36.3973 25.8311 36.1291C24.0713 35.0978 22.3047 34.0665 20.5653 33.042C18.3144 35.6822 16.3227 38.6387 13.0487 40.5364C12.885 40.6326 12.7554 40.7908 12.6258 40.9283C11.3298 42.3377 9.95888 43.6922 8.75841 45.1705C7.48972 46.7312 5.76403 48.1476 6.11189 50.4027C6.13236 50.5403 6.00953 50.6915 5.97542 50.8428C5.69577 52.0185 5.54573 53.1805 6.34378 54.2668C6.44609 54.4112 6.48024 54.7206 6.38475 54.8306C6.26879 54.9612 5.93454 55.0369 5.76402 54.9818C5.39569 54.8581 4.97962 54.7 4.74771 54.4318C4.08609 53.6686 3.43124 52.8848 2.91967 52.0322C2.16938 50.7809 1.54185 49.4745 0.866577 48.1888C0.900682 47.9482 0.900715 47.7007 0.900715 47.46ZM14.8289 16.2589L14.9995 16.0801C14.7403 14.9594 14.4743 13.8387 14.2015 12.6836C13.3216 13.0549 12.5099 13.3918 11.3913 13.8593C12.6327 14.7256 13.7308 15.4957 14.8289 16.2589Z" fill="#C9CCCF"/>
</svg>
