<svg width="21" height="15" viewBox="0 0 21 15" fill="none" xmlns="http://www.w3.org/2000/svg">
<path d="M16.0237 5.24941L15.8323 5.17741L14.2109 1.98578C13.9063 1.38598 13.4522 0.884373 12.8971 0.534598C12.342 0.184823 11.7068 3.62362e-05 11.0594 3.12421e-09H6.97657C6.22682 -3.21205e-05 5.49607 0.247662 4.88789 0.70798C4.2797 1.1683 3.82492 1.81789 3.588 2.56471L2.81515 4.99893C2.16765 5.28546 1.61505 5.76615 1.22651 6.38082C0.83798 6.99549 0.630783 7.71683 0.630859 8.45454V10.1239C0.630859 11.1887 1.23515 12.1036 2.10229 12.5161C2.21458 13.1916 2.54392 13.8063 3.03545 14.2578C3.52697 14.7094 4.15101 14.9705 4.80362 14.9976C5.45623 15.0248 6.09801 14.8164 6.62207 14.4072C7.14612 13.998 7.5208 13.4126 7.68372 12.7486H13.578C13.7409 13.4126 14.1156 13.998 14.6397 14.4072C15.1637 14.8164 15.8055 15.0248 16.4581 14.9976C17.1107 14.9705 17.7347 14.7094 18.2263 14.2578C18.7178 13.8063 19.0471 13.1916 19.1594 12.5161C19.5979 12.3083 19.97 11.972 20.231 11.5477C20.492 11.1234 20.6309 10.629 20.6309 10.1239V9.61541C20.6308 8.84138 20.4025 8.08636 19.9774 7.45395C19.5523 6.82155 18.9512 6.34277 18.2566 6.08331L16.0994 5.2779V5.24941H16.0237ZM6.97657 1.49983H8.488V5.24941H4.24086L4.94229 3.03866C5.0845 2.59037 5.35754 2.20048 5.72268 1.92427C6.08782 1.64806 6.52653 1.49956 6.97657 1.49983ZM9.91657 1.49983H11.0594C11.4479 1.49969 11.8291 1.61042 12.1623 1.82018C12.4954 2.02994 12.768 2.33084 12.9509 2.6907L14.2509 5.24941H9.91657V1.49983ZM15.778 6.74924L17.778 7.49615C18.1947 7.65188 18.5553 7.93917 18.8103 8.3186C19.0653 8.69804 19.2022 9.15103 19.2023 9.61541V10.1239C19.2023 10.3863 19.1166 10.6278 18.9737 10.8198C18.7397 10.2431 18.3395 9.75793 17.8294 9.43233C17.3193 9.10673 16.7248 8.95708 16.1295 9.00441C15.5341 9.05173 14.9679 9.29366 14.5103 9.6962C14.0527 10.0987 13.7266 10.6417 13.578 11.2487H7.68372C7.53509 10.6417 7.20906 10.0987 6.75143 9.6962C6.29381 9.29366 5.72757 9.05173 5.13226 9.00441C4.53695 8.95708 3.94247 9.10673 3.43233 9.43233C2.92218 9.75793 2.52201 10.2431 2.288 10.8198C2.13933 10.6215 2.05879 10.3762 2.05943 10.1239V8.45454C2.05943 7.77962 2.34515 7.16469 2.80229 6.74924H15.778ZM3.488 11.9986C3.488 11.6009 3.63851 11.2194 3.90642 10.9381C4.17433 10.6568 4.53769 10.4988 4.91657 10.4988C5.29545 10.4988 5.65882 10.6568 5.92673 10.9381C6.19464 11.2194 6.34515 11.6009 6.34515 11.9986C6.34515 12.3964 6.19464 12.7779 5.92673 13.0592C5.65882 13.3405 5.29545 13.4985 4.91657 13.4985C4.53769 13.4985 4.17433 13.3405 3.90642 13.0592C3.63851 12.7779 3.488 12.3964 3.488 11.9986ZM16.3451 10.4988C16.724 10.4988 17.0874 10.6568 17.3553 10.9381C17.6232 11.2194 17.7737 11.6009 17.7737 11.9986C17.7737 12.3964 17.6232 12.7779 17.3553 13.0592C17.0874 13.3405 16.724 13.4985 16.3451 13.4985C15.9663 13.4985 15.6029 13.3405 15.335 13.0592C15.0671 12.7779 14.9166 12.3964 14.9166 11.9986C14.9166 11.6009 15.0671 11.2194 15.335 10.9381C15.6029 10.6568 15.9663 10.4988 16.3451 10.4988Z" fill="#FDB913"/>
</svg>
