<svg width="74" height="77" viewBox="0 0 74 77" fill="none" xmlns="http://www.w3.org/2000/svg">
<path d="M13.6048 61.6499C18.3518 61.4369 27.6466 61.9196 36.5009 67.4423C36.5009 67.4423 36.5293 67.4423 36.5435 67.4565C36.6146 67.4991 36.6999 67.5275 36.7851 67.5559C36.8278 67.5559 36.8562 67.5843 36.8988 67.5985C37.0125 67.6269 37.1262 67.6411 37.2399 67.6411C37.2399 67.6411 37.2542 67.6411 37.2684 67.6411C37.2684 67.6411 37.2826 67.6411 37.2968 67.6411C37.4105 67.6411 37.5242 67.6269 37.6379 67.5985C37.6805 67.5985 37.7089 67.5701 37.7516 67.5559C37.8369 67.5275 37.9079 67.4991 37.9932 67.4565C37.9932 67.4565 38.0216 67.4565 38.0358 67.4423C46.8759 61.9196 56.185 61.4369 60.9177 61.6499C62.2536 61.7209 63.5185 61.2382 64.485 60.3154C65.4372 59.3926 65.9773 58.1574 65.9773 56.8371V19.6549C65.9773 17 63.817 14.8279 61.1451 14.8279H54.9911C54.2095 14.8279 53.5699 15.4667 53.5699 16.2476C53.5699 17.0284 54.2095 17.6673 54.9911 17.6673H61.1451C62.2394 17.6673 63.1348 18.5617 63.1348 19.6549V56.8371C63.1348 57.3766 62.9216 57.8877 62.5237 58.271C62.1257 58.6543 61.6141 58.8531 61.0456 58.8247C56.0997 58.6117 46.549 59.0944 37.2826 64.6029C28.0161 59.0944 18.4655 58.6117 13.5196 58.8247C12.9369 58.8531 12.4394 58.6543 12.0415 58.271C11.6435 57.8877 11.4304 57.3908 11.4304 56.8371V19.6549C11.4304 18.5617 12.3257 17.6673 13.4201 17.6673H19.574C20.3557 17.6673 20.9953 17.0284 20.9953 16.2476C20.9953 15.4667 20.3557 14.8279 19.574 14.8279H13.4201C10.7624 14.8279 8.58789 16.9858 8.58789 19.6549V56.8371C8.58789 58.1716 9.11375 59.4067 10.0802 60.3154C11.0466 61.2382 12.3257 61.7209 13.6475 61.6499H13.6048Z" fill="#FDB913" stroke="#FDB913" stroke-width="0.5"/>
<path d="M72.1043 20.0667C71.3226 20.0667 70.6831 20.7055 70.6831 21.4864V65.043C70.6831 65.5967 70.4699 66.1078 70.0719 66.4769C69.674 66.8603 69.1623 67.0448 68.5938 67.0164C62.0988 66.6757 49.5067 67.0448 37.2699 73.2206C23.157 66.1078 8.66044 66.7041 3.84247 67.1584V21.4864C3.84247 20.7055 3.20291 20.0667 2.42123 20.0667C1.63955 20.0667 1 20.7055 1 21.4864V68.7627C1 69.1744 1.18477 69.5719 1.49744 69.8416C1.81011 70.1114 2.22226 70.2392 2.63442 70.1682C2.80497 70.1398 20.3714 67.5985 36.6019 76.06C36.6587 76.0884 36.7298 76.1026 36.7866 76.131C36.8293 76.131 36.8577 76.1594 36.9003 76.1735C37.014 76.2019 37.142 76.2161 37.2556 76.2161C37.3693 76.2161 37.4973 76.2019 37.611 76.1735C37.6536 76.1735 37.682 76.1452 37.7247 76.131C37.7815 76.1026 37.8526 76.0884 37.9094 76.06C49.7625 69.8842 62.1272 69.5151 68.4233 69.8558C69.745 69.941 71.0526 69.4441 72.0048 68.5355C72.9712 67.6127 73.5113 66.3776 73.5113 65.043V21.4864C73.5113 20.7055 72.8717 20.0667 72.0901 20.0667H72.1043Z" fill="#FDB913" stroke="#FDB913" stroke-width="0.5"/>
<path d="M21.9766 16.6026C21.9766 19.4562 22.744 22.2105 24.2505 24.6524C24.9611 25.8165 25.5439 26.7819 26.0555 27.8183L29.3243 34.3632C29.3243 34.3632 29.2959 34.4483 29.2959 34.4909V41.6747C29.2959 42.2851 29.6796 42.8246 30.2624 43.0234L32.181 43.6765C33.9007 44.2585 35.7057 44.5567 37.5106 44.5567C39.3156 44.5567 41.1206 44.2585 42.8403 43.6765L44.7589 43.0234C45.3274 42.8246 45.7254 42.2851 45.7254 41.6747V34.5619C45.7254 34.5619 45.7538 34.5335 45.7538 34.5051L49.0937 27.8183C49.648 26.7109 50.3159 25.6178 50.8986 24.6524C52.3909 22.1963 53.1584 19.4562 53.1726 16.6026C53.1726 16.5884 53.1726 16.56 53.1726 16.5458C53.1726 16.4748 53.1726 16.4038 53.1726 16.3329C53.1726 15.9211 53.1442 15.5236 53.1016 15.1119C53.1016 15.0125 53.1016 14.9273 53.0731 14.828C53.0731 14.757 53.0731 14.686 53.0589 14.615C52.9452 13.6212 52.7178 12.6558 52.4052 11.733C52.4052 11.7046 52.3909 11.6904 52.3767 11.662C52.2204 11.2077 52.0498 10.7676 51.8651 10.3275C51.8225 10.2281 51.7798 10.1429 51.7372 10.0435C51.5666 9.68862 51.3961 9.33369 51.1971 8.99296C51.1261 8.86519 51.0692 8.73741 50.9981 8.62384C50.7992 8.2973 50.586 7.97077 50.3728 7.65843C50.1738 7.37449 49.9464 7.09055 49.7332 6.80661C49.6053 6.65044 49.4916 6.49427 49.3495 6.33811C49.1505 6.11095 48.9373 5.8838 48.7242 5.67084C48.6105 5.54307 48.4826 5.42949 48.3689 5.31592C48.2409 5.18814 48.113 5.04617 47.9709 4.9184C47.8714 4.83321 47.7719 4.76223 47.6867 4.69124C47.5588 4.57767 47.4166 4.47829 47.2745 4.36471C46.9618 4.10916 46.635 3.88201 46.3081 3.65486C46.0096 3.4561 45.7254 3.25734 45.4127 3.08697C45.2848 3.01599 45.1427 2.945 45.0147 2.87402C44.6736 2.68945 44.3183 2.50489 43.963 2.34872C43.8778 2.30613 43.7925 2.27774 43.7072 2.23515C42.3428 1.65307 40.879 1.24135 39.3582 1.07099C39.2872 1.07099 39.2019 1.07099 39.1308 1.07099C39.0171 1.07099 38.9034 1.07099 38.7897 1.05679C38.3918 1.02839 37.9796 1 37.5817 1C37.1838 1 36.7716 1.02839 36.3594 1.05679C36.2457 1.05679 36.132 1.05679 36.0183 1.07099C35.9473 1.07099 35.862 1.07099 35.7909 1.07099C34.2702 1.24135 32.8064 1.65307 31.442 2.23515C31.3567 2.26354 31.2856 2.30613 31.2004 2.33453C30.8308 2.50489 30.4755 2.67526 30.1202 2.87402C29.9923 2.945 29.8644 3.00179 29.7365 3.07278C29.4096 3.25734 29.1112 3.4561 28.7985 3.66905C28.4858 3.88201 28.1731 4.10916 27.8747 4.35051C27.7326 4.46409 27.5904 4.56347 27.4625 4.69124C27.363 4.77643 27.2636 4.84741 27.1783 4.9184C27.0362 5.04617 26.9225 5.18814 26.7803 5.31592C26.6524 5.42949 26.5387 5.55727 26.425 5.67084C26.2118 5.8838 25.9987 6.11095 25.7997 6.33811C25.6718 6.49427 25.5439 6.65044 25.4159 6.80661C25.1885 7.09055 24.9754 7.3603 24.7764 7.65843C24.5632 7.97077 24.35 8.2973 24.151 8.62384C24.08 8.75161 24.0089 8.86519 23.9521 8.99296C23.7673 9.33369 23.5826 9.68862 23.412 10.0435C23.3694 10.1429 23.3267 10.2281 23.2841 10.3275C23.0993 10.7676 22.9146 11.2077 22.7725 11.662C22.7725 11.6904 22.7582 11.7046 22.744 11.733C22.4456 12.6558 22.2182 13.6212 22.0903 14.615C22.0903 14.686 22.0903 14.757 22.076 14.828C22.076 14.9273 22.0761 15.0125 22.0476 15.1119C22.005 15.5236 21.9908 15.9353 21.9766 16.3329C21.9766 16.4038 21.9766 16.4748 21.9766 16.5458C21.9766 16.56 21.9766 16.5884 21.9766 16.6026ZM42.8687 40.6525L41.9165 40.979C39.074 41.9444 35.9331 41.9444 33.0906 40.979L32.1384 40.6525V35.9106H42.8687V40.6525ZM48.4683 23.1759C47.843 24.1838 47.1466 25.3338 46.5355 26.5548L43.2808 33.0712H31.8399L28.5853 26.5548C28.0168 25.419 27.3772 24.3542 26.6524 23.1759C25.3875 21.1031 24.7622 18.7748 24.8048 16.3471C24.8048 16.0205 24.8332 15.7082 24.8617 15.3817C24.8617 15.2965 24.8617 15.1971 24.8759 15.1119C25.018 13.82 25.3591 12.5564 25.885 11.3781C25.8992 11.3355 25.9134 11.3071 25.9276 11.2645C26.0839 10.9096 26.2687 10.5688 26.4534 10.2423C26.4819 10.1997 26.5103 10.1429 26.5387 10.1003C26.7519 9.74541 26.9793 9.39048 27.2209 9.04975C27.2778 8.97876 27.3346 8.90778 27.3915 8.8226C27.5762 8.58125 27.761 8.35409 27.9457 8.12694C28.0737 7.98497 28.2016 7.843 28.3437 7.70103C28.4858 7.55906 28.6279 7.40289 28.7843 7.26092C28.9264 7.11895 29.0827 6.97697 29.2391 6.8492C29.3954 6.70723 29.5659 6.57946 29.7365 6.45168C29.9923 6.25292 30.2624 6.05416 30.5324 5.8838C30.7172 5.75603 30.9019 5.62825 31.1009 5.51468C31.2856 5.4011 31.4704 5.31592 31.6694 5.21654C31.8399 5.13135 32.0105 5.04617 32.181 4.96099C32.3658 4.87581 32.5505 4.79062 32.7495 4.71964C32.9485 4.63446 33.1475 4.56347 33.3464 4.49248C33.517 4.4357 33.6875 4.37891 33.8581 4.32212C34.1565 4.23694 34.4692 4.15175 34.7819 4.08077C34.8529 4.06657 34.9382 4.03818 35.0093 4.02398C35.393 3.953 35.7909 3.89621 36.1889 3.85362C36.4447 3.82522 36.7005 3.82522 36.9564 3.81102C37.1553 3.81102 37.3543 3.78263 37.5675 3.78263C37.7665 3.78263 37.9654 3.79683 38.1644 3.81102C38.4202 3.81102 38.6903 3.82522 38.9461 3.85362C39.344 3.89621 39.7278 3.953 40.1115 4.02398C40.211 4.03818 40.3105 4.08077 40.41 4.09497C40.6942 4.16595 40.9784 4.23694 41.2627 4.30792C41.4475 4.36471 41.6322 4.4357 41.817 4.49248C42.0017 4.56347 42.1865 4.62026 42.3713 4.70544C42.5702 4.79062 42.7692 4.87581 42.9682 4.96099C43.1245 5.03197 43.2808 5.11716 43.4372 5.18814C43.6361 5.28752 43.8351 5.4011 44.0341 5.51468C44.1904 5.61405 44.3468 5.71343 44.4889 5.81281C44.8016 6.01157 45.1 6.22453 45.3985 6.45168C45.5548 6.57946 45.7254 6.70723 45.8817 6.835C46.038 6.96278 46.1944 7.10475 46.3365 7.24672C46.4928 7.38869 46.635 7.53066 46.7771 7.68683C46.905 7.8288 47.0471 7.97077 47.175 8.11274C47.374 8.3399 47.5588 8.56705 47.7293 8.7942C47.7862 8.86519 47.843 8.93617 47.8998 9.02136C48.1415 9.36209 48.3689 9.70282 48.582 10.0719C48.6105 10.1145 48.6389 10.1713 48.6673 10.2281C48.8521 10.5688 49.0368 10.9096 49.1932 11.2503C49.2074 11.2929 49.2216 11.3213 49.2358 11.3639C49.7617 12.5422 50.1028 13.8058 50.2449 15.0977C50.2449 15.1829 50.2449 15.2823 50.2733 15.3675C50.3017 15.6798 50.316 16.0063 50.3302 16.3187C50.3728 18.7322 49.7475 21.0747 48.4826 23.1475L48.4683 23.1759Z" fill="#FDB913" stroke="#FDB913" stroke-width="0.5"/>
</svg>
