<svg width="21" height="20" viewBox="0 0 21 20" fill="none" xmlns="http://www.w3.org/2000/svg">
<g clip-path="url(#clip0_4650_1391)">
<path d="M19.6505 0.339635C19.5098 0.406041 19.3301 0.554479 19.1153 0.777135C18.9395 0.960729 16.9005 3.39823 14.5919 6.1912C12.2794 8.98417 10.3653 11.2732 10.3419 11.2771C10.3184 11.281 9.73639 10.6248 9.04889 9.8162C7.70124 8.23417 7.54499 8.06229 7.29889 7.89823C6.53327 7.3826 5.45514 7.6326 4.95514 8.4451C4.64264 8.95682 4.66608 9.71854 5.01764 10.2303C5.08405 10.3279 6.08405 11.5115 7.24421 12.8592C9.02936 14.9412 9.38092 15.3279 9.56842 15.4412C9.91999 15.6521 10.1544 15.7146 10.5489 15.6951C10.9512 15.6756 11.2989 15.5349 11.584 15.2693C11.7169 15.1521 12.92 13.3084 16.0372 8.46073C18.3848 4.80448 20.338 1.7576 20.377 1.68338C20.584 1.27323 20.6583 0.745885 20.5333 0.507604C20.3809 0.214635 20.0411 0.148229 19.6505 0.339635Z" fill="#018556"/>
</g>
<defs>
<clipPath id="clip0_4650_1391">
<rect width="20" height="20" fill="white" transform="translate(0.630859)"/>
</clipPath>
</defs>
</svg>
