<svg width="18" height="17" viewBox="0 0 18 17" fill="none" xmlns="http://www.w3.org/2000/svg">
<path fill-rule="evenodd" clip-rule="evenodd" d="M9.13086 0C4.43654 0 0.630859 3.80568 0.630859 8.5C0.630859 13.1943 4.43654 17 9.13086 17C13.8252 17 17.6309 13.1943 17.6309 8.5C17.6309 3.80568 13.8252 0 9.13086 0ZM2.17631 8.5C2.17631 7.58672 2.3562 6.68237 2.7057 5.83861C3.0552 4.99485 3.56746 4.22818 4.21325 3.58239C4.85904 2.9366 5.62571 2.42434 6.46947 2.07484C7.31323 1.72534 8.21758 1.54545 9.13086 1.54545C10.0441 1.54545 10.9485 1.72534 11.7922 2.07484C12.636 2.42434 13.4027 2.9366 14.0485 3.58239C14.6943 4.22818 15.2065 4.99485 15.556 5.83861C15.9055 6.68237 16.0854 7.58672 16.0854 8.5C16.0854 10.3445 15.3527 12.1134 14.0485 13.4176C12.7442 14.7218 10.9753 15.4545 9.13086 15.4545C7.2864 15.4545 5.51748 14.7218 4.21325 13.4176C2.90902 12.1134 2.17631 10.3445 2.17631 8.5ZM9.90359 4.63636C9.90359 4.43142 9.82217 4.23488 9.67726 4.08996C9.53234 3.94505 9.3358 3.86364 9.13086 3.86364C8.92592 3.86364 8.72937 3.94505 8.58446 4.08996C8.43954 4.23488 8.35813 4.43142 8.35813 4.63636V8.5C8.35813 8.61996 8.38606 8.73828 8.43971 8.84557C8.49336 8.95287 8.57125 9.0462 8.66722 9.11818L11.7581 11.4364C11.9221 11.5593 12.1282 11.6121 12.331 11.5831C12.5339 11.5542 12.717 11.4458 12.8399 11.2818C12.9629 11.1179 13.0157 10.9118 12.9867 10.7089C12.9577 10.506 12.8494 10.323 12.6854 10.2L9.90359 8.11364V4.63636Z" fill="#FDB913"/>
</svg>
