<svg width="24" height="15" viewBox="0 0 24 15" fill="none" xmlns="http://www.w3.org/2000/svg">
<path d="M19.0438 8.75509C19.2455 8.64586 19.3211 8.38961 19.2119 8.18377C19.1027 7.97792 18.8464 7.90651 18.6406 8.01573L13.3307 10.9143C12.94 10.4985 12.3939 10.238 11.7805 10.238C10.6043 10.238 9.64648 11.1958 9.64648 12.372C9.64648 13.5483 10.6043 14.5061 11.7805 14.5061C12.9568 14.5061 13.9146 13.5483 13.9146 12.372C13.9146 12.1116 13.86 11.8637 13.7759 11.6327L19.0438 8.75509ZM11.7805 13.6659C11.0664 13.6659 10.4867 13.0862 10.4867 12.372C10.4867 11.6579 11.0664 11.0782 11.7805 11.0782C12.4947 11.0782 13.0744 11.6579 13.0744 12.372C13.0744 13.0862 12.4947 13.6659 11.7805 13.6659Z" fill="#FDB913" stroke="#FDB913" stroke-width="0.5"/>
<path d="M19.7947 3.86949C19.7947 3.86949 19.7821 3.86109 19.7779 3.85689C17.7867 1.86147 15.0351 0.630615 11.9979 0.630615C11.9265 0.630615 11.8593 0.630615 11.7879 0.634816C11.7879 0.634816 11.7795 0.634816 11.7753 0.634816C11.7711 0.634816 11.7669 0.634816 11.7627 0.634816C8.82204 0.697829 6.16288 1.91188 4.22207 3.85269C4.21367 3.86109 4.20527 3.86109 4.20107 3.86949C4.19687 3.87789 4.19267 3.8863 4.18847 3.8905C2.21825 5.88171 1 8.61649 1 11.6327C1 11.8638 1.18904 12.0528 1.42009 12.0528H5.01604C5.24709 12.0528 5.43613 11.8638 5.43613 11.6327C5.43613 8.01576 8.38094 5.07094 11.9979 5.07094C13.9933 5.07094 15.8585 5.96573 17.1104 7.52006C17.2574 7.70069 17.5179 7.7301 17.7027 7.58307C17.8833 7.43604 17.9127 7.17138 17.7657 6.99075C17.6691 6.87312 17.5641 6.7639 17.4632 6.65468L19.4713 4.75168C21.0508 6.46564 22.0506 8.72151 22.1514 11.2084H19.3872C19.3662 10.8514 19.32 10.4985 19.2528 10.1498C19.2066 9.92296 18.9882 9.77593 18.7571 9.82214C18.5303 9.86835 18.3832 10.091 18.4294 10.3178C18.5177 10.7463 18.5597 11.1916 18.5597 11.6285C18.5597 11.8596 18.7487 12.0486 18.9798 12.0486H22.5799C22.811 12.0486 23 11.8596 23 11.6285C23 8.60808 21.7775 5.87331 19.8031 3.8821C19.7989 3.87789 19.7989 3.86949 19.7947 3.86529V3.86949ZM11.3636 1.4918V4.26017C9.75043 4.3988 8.28852 5.05834 7.13748 6.06655L5.12526 4.15935C6.78881 2.62603 8.96487 1.63883 11.3636 1.4918ZM4.60855 11.2126H1.84858C1.9494 8.72571 2.94921 6.46984 4.52874 4.75588L6.53256 6.65468C5.42352 7.87293 4.70938 9.46086 4.60855 11.2126ZM16.8667 6.07075C15.577 4.94072 13.9429 4.28958 12.2037 4.24337V1.47499C14.7747 1.5254 17.1146 2.53361 18.8789 4.15935L16.8667 6.06655V6.07075Z" fill="#FDB913" stroke="#FDB913" stroke-width="0.5"/>
</svg>
