<svg width="22" height="20" viewBox="0 0 22 20" fill="none" xmlns="http://www.w3.org/2000/svg">
<path d="M14.7542 18.9999H1.93977C1.63845 18.9999 1.45224 18.6713 1.60121 18.405L4.80397 12.7359L8.00673 7.06678C8.15569 6.80391 8.5281 6.80391 8.68046 7.06678L10.3969 10.1002L11.8866 12.7359L15.0894 18.405C15.2383 18.6679 15.0521 18.9999 14.7542 18.9999Z" stroke="#FDB913" stroke-width="1.75" stroke-linecap="round" stroke-linejoin="round"/>
<path d="M20.1639 19.0001H14.7537C15.0517 19.0001 15.2379 18.6715 15.0889 18.4052L11.8861 12.7361L10.3965 10.1004L12.096 7.77949C12.2518 7.56504 12.5633 7.56504 12.719 7.77949L16.67 13.1753L20.472 18.3637C20.6616 18.6231 20.4821 18.9966 20.1605 18.9966L20.1639 19.0001Z" stroke="#FDB913" stroke-width="1.75" stroke-linecap="round" stroke-linejoin="round"/>
<path d="M5.14844 12.1308L6.86493 11.1312C7.17979 10.9478 7.5759 11.0136 7.81966 11.2833L8.12775 11.6292C8.38505 11.9163 8.80825 11.9647 9.12311 11.7434C9.35671 11.5774 9.6648 11.5566 9.91872 11.6915L11.8891 12.7361" stroke="#FDB913" stroke-width="1.75" stroke-linecap="round" stroke-linejoin="round"/>
<path d="M12 12.9332L13.1579 12.2968C13.4253 12.1515 13.7368 12.1203 14.0246 12.2137L16.5705 13.0335" stroke="#FDB913" stroke-width="1.75" stroke-linecap="round" stroke-linejoin="round"/>
<path d="M8.34323 6.68985V1.48078C8.34323 1.21445 8.55314 1 8.81382 1H13.1541C13.2252 1 13.2591 1.08993 13.2049 1.13836L11.9489 2.29362C11.7593 2.46656 11.7661 2.77094 11.9624 2.93351L13.188 3.96772C13.2455 4.01614 13.2117 4.10953 13.1372 4.10953H8.33984" stroke="#FDB913" stroke-width="1.75" stroke-linecap="round" stroke-linejoin="round"/>
</svg>
