<svg width="34" height="32" viewBox="0 0 34 32" fill="none" xmlns="http://www.w3.org/2000/svg">
<path d="M33.1889 0.619519L33.1656 0.607668C32.8682 0.3939 32.4987 0.28351 32.1218 0.295838C22.0435 0.29485 11.9646 0.294356 1.88518 0.294356C1.50827 0.282239 1.13876 0.392895 0.841424 0.606927L0.817338 0.618778C0.240866 0.967642 0 1.47946 0 2.09497C0 4.70911 0 7.3225 0 9.93516C0 16.5673 0 23.1994 0 29.8315C0 30.4633 0.226414 30.987 0.81814 31.344L0.841424 31.3566C1.17141 31.5981 1.55519 31.6699 1.96546 31.6699C7.21901 31.6699 12.4726 31.6726 17.7261 31.6781C18.0802 31.6781 18.1685 31.5981 18.1669 31.2729C18.1516 28.6583 18.1581 26.0437 18.1581 23.4298C18.1581 22.2328 18.1581 21.0364 18.1581 19.8404C18.1581 19.6552 18.1677 19.5182 17.8762 19.5219C16.5667 19.5411 15.2572 19.5382 13.9477 19.5426C13.702 19.5649 13.7149 19.4123 13.7149 19.2582C13.7149 17.8679 13.7213 16.4769 13.7101 15.0866C13.7101 14.8444 13.7839 14.7726 14.0473 14.7756C15.2741 14.7867 16.5017 14.7815 17.7285 14.7756C17.8554 14.7756 17.9951 14.8237 18.1099 14.7289C18.1902 13.5149 18.1436 12.3002 18.1324 11.0854C18.1324 11.0292 18.1324 10.9729 18.1364 10.9173C18.1797 10.8307 18.1902 10.7331 18.1661 10.6403C18.2062 10.3596 18.2408 10.0789 18.2865 9.79961C18.688 7.35534 20.5474 5.58806 23.1841 5.16216C24.9561 4.87626 26.7257 5.08809 28.496 5.18438C28.7289 5.19697 28.7216 5.33919 28.7208 5.49547C28.716 6.8139 28.716 8.13232 28.7136 9.45075C27.7108 9.45519 26.7064 9.44112 25.7052 9.46704C24.2102 9.50704 23.5518 10.0826 23.4828 11.4558C23.4322 12.4528 23.4756 13.4557 23.4515 14.4526C23.4443 14.7489 23.5623 14.7933 23.8457 14.7911C25.2764 14.7785 26.708 14.7911 28.1387 14.78C28.4599 14.78 28.5362 14.8541 28.4896 15.1503C28.2865 16.468 28.093 17.7879 27.9404 19.1116C27.8987 19.4745 27.7606 19.5389 27.4025 19.533C26.1982 19.5123 24.9938 19.533 23.7895 19.5197C23.5262 19.5197 23.4515 19.5863 23.4523 19.8285C23.4598 23.6653 23.4598 27.5023 23.4523 31.3396C23.4523 31.5951 23.5254 31.6729 23.8096 31.6721C26.5779 31.6625 29.3495 31.6677 32.1146 31.6655C32.4915 31.6776 32.861 31.5669 33.1584 31.3529L33.1825 31.3418C33.7573 30.9922 33.999 30.4848 33.9998 29.8656C33.9998 27.7206 33.9998 25.5758 33.9998 23.4312C33.9998 16.33 33.9998 9.22928 33.9998 2.12904C34.0078 1.49946 33.7782 0.978012 33.1889 0.619519Z" fill="white"/>
</svg>
