<svg width="85" height="81" viewBox="0 0 85 81" fill="none" xmlns="http://www.w3.org/2000/svg">
<path d="M82.134 68.221L74.2453 60.487C73.752 60.0033 73.0676 59.755 72.3716 59.8073L66.1428 60.2773L60.2071 54.4576C71.5512 42.7283 77.3013 30.3465 79.7646 23.8355C82.8807 15.5985 84.9727 5.58319 81.4989 2.17709C78.0245 -1.22901 67.8088 0.82209 59.4071 3.87725C52.7659 6.29225 40.1366 11.9296 28.1724 23.0513L22.2366 17.2319L22.7157 11.1252C22.7692 10.443 22.516 9.77192 22.0225 9.28819L14.1338 1.55396C12.5802 0.0308403 10.0525 0.0308403 8.49911 1.55396L2.86441 7.07819C1.31082 8.60132 1.31082 11.0794 2.86441 12.6024L10.753 20.3363C11.2464 20.8201 11.9309 21.0684 12.6267 21.0159L18.8556 20.5462L24.7914 26.3655C13.4474 38.095 7.69729 50.4766 5.23399 56.9876C2.11758 65.225 0.0256213 75.2403 3.49982 78.6463C6.97405 82.0523 17.1897 80.0013 25.5916 76.9463C32.2329 74.531 44.8622 68.894 56.8261 57.7723L62.7619 63.5916L62.2828 69.6983C62.2294 70.3806 62.4827 71.0516 62.9761 71.5353L70.8647 79.2693C72.4182 80.7926 74.9457 80.7926 76.4992 79.2693L82.134 73.7453C83.6875 72.222 83.6875 69.744 82.134 68.221ZM52.6418 47.0406L55.4593 44.2786C59.541 40.2766 60.0476 34.0773 56.9795 29.5298L64.115 22.5341C66.784 24.6898 69.8611 26.2538 73.2029 27.1513C70.2653 33.528 65.1378 42.515 56.8227 51.1396L52.6418 47.0406ZM32.9201 49.803C30.1239 47.0616 30.1238 42.6006 32.9201 39.8593L35.7376 37.097L45.8802 47.0406L43.0629 49.803C40.2664 52.5443 35.7166 52.5443 32.9201 49.803ZM39.1183 33.7826L41.9358 31.0204C44.7323 28.2788 49.2822 28.279 52.0784 31.0204C54.8749 33.762 54.8749 38.2226 52.0784 40.9643L49.2611 43.7263L39.1183 33.7826ZM72.7334 5.27865C76.2225 4.85819 77.7661 5.27585 78.1145 5.49459C78.3376 5.83615 78.7636 7.34975 78.3349 10.7705C77.9051 14.1996 76.7845 18.3227 75.0947 22.6944C75.0841 22.7212 75.0729 22.7501 75.0624 22.7769C71.5152 21.9363 68.3134 20.1862 65.7212 17.6449C63.1291 15.1037 61.3424 11.9652 60.4849 8.48772C60.5131 8.47725 60.543 8.46569 60.5709 8.45539C65.03 6.79865 69.2358 5.70005 72.7334 5.27865ZM56.0261 10.3094C56.9414 13.5859 58.535 16.6035 60.7338 19.2201L53.5989 26.2152C48.9602 23.2074 42.6369 23.704 38.5549 27.7059L35.7376 30.468L31.5567 26.369C40.3545 18.2163 49.5216 13.1893 56.0261 10.3094ZM6.80877 9.84039L11.3166 5.42099L17.8643 11.8404L17.5422 15.9441L13.3564 16.2599L6.80877 9.84039ZM32.3567 33.7826L29.5393 36.5446C25.4576 40.5463 24.9511 46.746 28.0191 51.2933L20.8832 58.2893C18.2141 56.1336 15.1361 54.5716 11.7944 53.6743C14.7316 47.2976 19.8594 38.3093 28.1757 29.6835L32.3567 33.7826ZM12.2653 75.5446C8.77611 75.965 7.23241 75.5473 6.88384 75.3286C6.66074 74.987 6.23472 73.4736 6.66359 70.053C7.09359 66.624 8.21399 62.5006 9.90386 58.129C9.91454 58.1013 9.92647 58.0716 9.93715 58.044C13.4839 58.885 16.6849 60.637 19.277 63.1786C21.8691 65.72 23.6563 68.8583 24.5144 72.3353C24.486 72.346 24.4557 72.3576 24.4275 72.368C19.9685 74.0246 15.7629 75.1233 12.2653 75.5446ZM28.975 70.5126C28.0595 67.2363 26.4658 64.2176 24.2669 61.6013L31.3998 54.608C36.0385 57.616 42.3619 57.1193 46.4436 53.1176L49.2611 50.3553L53.4418 54.4543C44.6453 62.606 35.4792 67.6326 28.975 70.5126ZM73.682 75.4023L67.1342 68.9833L67.4562 64.8793L71.642 64.564L78.1897 70.983L73.682 75.4023Z" fill="#FDB913"/>
</svg>
