<svg width="35" height="32" viewBox="0 0 35 32" fill="none" xmlns="http://www.w3.org/2000/svg">
<path d="M22.3077 7.35061C20.6361 7.33957 18.9637 7.35061 17.2921 7.35061V7.3565C15.5398 7.3565 13.7868 7.32925 12.0354 7.36313C9.82624 7.40659 8.16672 8.80447 7.96683 10.8092C7.87012 11.7777 7.88059 12.758 7.88624 13.7324C7.89671 16.143 7.84835 18.5572 7.98053 20.9634C8.09095 22.991 9.73919 24.4095 11.979 24.4522C15.5028 24.515 19.0271 24.515 22.5519 24.4522C24.94 24.4102 26.6882 22.7774 26.7261 20.5929C26.7798 17.4829 26.7798 14.3717 26.7261 11.2592C26.685 8.912 24.8804 7.36534 22.3077 7.35061ZM17.2115 21.2786C13.8876 21.241 11.3084 18.8194 11.3592 15.7828C11.3705 15.0707 11.5354 14.3676 11.8444 13.7137C12.1535 13.0599 12.6005 12.4681 13.1601 11.9724C13.7197 11.4766 14.3808 11.0865 15.1055 10.8245C15.8302 10.5624 16.6044 10.4335 17.3837 10.4452C18.163 10.4569 18.9322 10.6089 19.6471 10.8925C20.3621 11.1761 21.0088 11.5857 21.5503 12.098C22.0918 12.6102 22.5174 13.2151 22.8028 13.8778C23.0882 14.5405 23.2278 15.2482 23.2136 15.9603C23.1733 18.9343 20.4862 21.3154 17.2115 21.2786ZM23.4385 11.5207C22.6784 11.5104 22.1231 10.9764 22.1408 10.2731C22.1492 10.0347 22.2344 9.80382 22.386 9.6096C22.5375 9.41537 22.7484 9.26642 22.9924 9.18149C23.2363 9.09656 23.5022 9.07944 23.7568 9.13228C24.0113 9.18512 24.2431 9.30556 24.4229 9.47845C24.6027 9.65134 24.7226 9.86896 24.7674 10.1039C24.8122 10.3389 24.78 10.5808 24.6747 10.799C24.5695 11.0173 24.396 11.2023 24.176 11.3307C23.9561 11.4591 23.6995 11.5252 23.4385 11.5207Z" fill="white"/>
<path d="M33.5279 0.617676L33.5045 0.605892C33.2059 0.393333 32.835 0.283566 32.4567 0.295824C22.3395 0.294842 12.2217 0.294351 2.10339 0.294351C1.72502 0.282302 1.35409 0.392333 1.05561 0.605156L1.03143 0.61694C0.452733 0.963833 0.210938 1.47276 0.210938 2.08479C0.210938 4.68416 0.210938 7.28279 0.210938 9.88069C0.210938 16.4753 0.210938 23.07 0.210938 29.6647C0.210938 30.2929 0.438225 30.8136 1.03224 31.1686L1.05561 31.1811C1.38687 31.4212 1.77213 31.4927 2.18399 31.4927H32.4559C32.8343 31.5047 33.2052 31.3947 33.5037 31.1818L33.5279 31.1708C34.105 30.8232 34.3476 30.3187 34.3484 29.7029C34.3484 27.57 34.3484 25.4374 34.3484 23.3049C34.3484 16.2438 34.3484 9.18322 34.3484 2.12309C34.35 1.49264 34.1195 0.974144 33.5279 0.617676ZM28.7903 20.3383C28.7903 23.8183 26.3135 26.234 22.5037 26.3776C20.7547 26.4447 19.0008 26.3894 17.2494 26.3894V26.4108C15.6987 26.4108 14.1488 26.4145 12.5981 26.4108C9.46122 26.4012 7.15771 25.0519 6.20585 22.5743C5.94195 21.8623 5.80348 21.1165 5.7956 20.3648C5.74885 17.438 5.77223 14.5089 5.77223 11.5842C5.77223 7.86708 8.41747 5.40863 12.4812 5.38507C15.6826 5.36592 18.8848 5.37255 22.087 5.38507C25.2891 5.39759 27.7143 7.01127 28.5276 9.70613C28.6975 10.3107 28.7815 10.9328 28.7774 11.557C28.8048 14.4846 28.7879 17.4114 28.7903 20.3383Z" fill="white"/>
<path d="M17.263 12.3853C15.1916 12.3853 13.4498 13.9783 13.4571 15.8696C13.4643 17.761 15.2028 19.3481 17.271 19.3555C19.3787 19.3636 21.0931 17.7846 21.0931 15.8343C21.0931 13.9371 19.3707 12.386 17.263 12.3853Z" fill="white"/>
</svg>
