<svg width="71" height="70" viewBox="0 0 71 70" fill="none" xmlns="http://www.w3.org/2000/svg">
<path d="M64.2449 5.64245H54.6657V2.41971C54.6657 1.63887 54.0262 1 53.2445 1C52.4628 1 51.8233 1.63887 51.8233 2.41971V5.64245H37.2556V2.41971C37.2556 1.63887 36.6161 1 35.8344 1C35.0527 1 34.4132 1.63887 34.4132 2.41971V5.64245H19.8455V2.41971C19.8455 1.63887 19.206 1 18.4243 1C17.6426 1 17.0031 1.63887 17.0031 2.41971V5.64245H7.42397C3.8851 5.64245 1 8.51026 1 12.0453V63.2258C1 66.7609 3.8851 69.6287 7.40976 69.6287H64.2306C67.7695 69.6287 70.6404 66.7609 70.6404 63.2258V12.0453C70.6404 8.51026 67.7553 5.64245 64.2306 5.64245H64.2449ZM7.40976 8.48187H16.9889V12.741C16.9889 13.5218 17.6284 14.1607 18.4101 14.1607C19.1918 14.1607 19.8313 13.5218 19.8313 12.741V8.48187H34.399V12.741C34.399 13.5218 35.0385 14.1607 35.8202 14.1607C36.6019 14.1607 37.2414 13.5218 37.2414 12.741V8.48187H51.8091V12.741C51.8091 13.5218 52.4486 14.1607 53.2303 14.1607C54.012 14.1607 54.6515 13.5218 54.6515 12.741V8.48187H64.2306C66.2062 8.48187 67.7979 10.0861 67.7979 12.0453V20.4784H3.98459C3.98459 20.4784 3.89931 20.5068 3.84247 20.5068V12.0595C3.84247 10.0861 5.44846 8.49606 7.40976 8.49606V8.48187ZM64.2306 66.8035H7.40976C5.43425 66.8035 3.84247 65.1992 3.84247 63.24V23.2894C3.84247 23.2894 3.92774 23.3178 3.98459 23.3178H67.8121V63.24C67.8121 65.2134 66.2062 66.8035 64.2449 66.8035H64.2306Z" fill="#FDB913" stroke="#FDB913" stroke-width="0.5"/>
<path d="M58.6031 27.7047L35.0391 55.0483C34.8543 55.2613 34.6269 55.3749 34.3711 55.3891C34.1153 55.3891 33.8879 55.3039 33.7884 55.2187L22.4612 41.9018C21.9495 41.3056 21.0541 41.2346 20.4572 41.7457C19.8603 42.2568 19.7892 43.1512 20.3009 43.7475L31.7134 57.1637C32.4382 57.8594 33.362 58.2427 34.3427 58.2427C34.3995 58.2427 34.4564 58.2427 34.499 58.2427C35.5507 58.2001 36.5029 57.7316 37.1993 56.9224L60.7634 29.5504C61.275 28.9541 61.204 28.0597 60.6071 27.5486C60.0101 27.0375 59.1148 27.1085 58.6031 27.7047Z" fill="#FDB913" stroke="#FDB913" stroke-width="0.5"/>
</svg>
