<svg width="25" height="25" viewBox="0 0 25 25" fill="none" xmlns="http://www.w3.org/2000/svg">
<g clip-path="url(#clip0_2834_5498)">
<path d="M13.5744 4.9681C13.2969 4.9681 13.0716 4.74283 13.0716 4.46528V2.7758C13.0716 2.2217 12.6201 1.77017 12.066 1.77017C11.5119 1.77017 11.0603 2.2217 11.0603 2.7758V4.46528C11.0603 4.74283 10.8351 4.9681 10.5575 4.9681C10.28 4.9681 10.0547 4.74384 10.0547 4.46528V2.7758C10.0547 1.66658 10.9567 0.764526 12.066 0.764526C13.1752 0.764526 14.0772 1.66658 14.0772 2.7758V4.46528C14.0772 4.74384 13.852 4.9681 13.5744 4.9681Z" fill="white"/>
<path d="M12.0666 24.8999C10.1257 24.8999 8.54688 23.321 8.54688 21.3801C8.54688 21.1026 8.77214 20.8773 9.04969 20.8773C9.32725 20.8773 9.55251 21.1026 9.55251 21.3801C9.55251 22.7659 10.6808 23.8942 12.0666 23.8942C13.4524 23.8942 14.5807 22.7659 14.5807 21.3801C14.5807 21.1026 14.806 20.8773 15.0835 20.8773C15.3611 20.8773 15.5864 21.1026 15.5864 21.3801C15.5864 23.321 14.0075 24.8999 12.0666 24.8999Z" fill="white"/>
<path d="M20.616 21.8829H3.52018C2.68851 21.8829 2.01172 21.2061 2.01172 20.3745C2.01172 19.933 2.2038 19.5157 2.53968 19.228C4.12457 17.8885 5.02864 15.9396 5.02864 13.876V10.8209C5.02864 6.93914 8.18634 3.78143 12.0681 3.78143C15.9499 3.78143 19.1076 6.93914 19.1076 10.8209V13.876C19.1076 15.9406 20.0116 17.8885 21.5885 19.221C21.9324 19.5157 22.1245 19.933 22.1245 20.3745C22.1245 21.2061 21.4487 21.8829 20.616 21.8829ZM12.0681 4.78707C8.74045 4.78707 6.03427 7.49325 6.03427 10.8209V13.876C6.03427 16.2373 5.00048 18.4648 3.19737 19.9893C3.08172 20.0879 3.01736 20.2277 3.01736 20.3745C3.01736 20.652 3.24262 20.8773 3.52018 20.8773H20.616C20.8936 20.8773 21.1189 20.652 21.1189 20.3745C21.1189 20.2277 21.0545 20.0879 20.9429 19.9923C19.1367 18.4648 18.1019 16.2363 18.1019 13.876V10.8209C18.1019 7.49325 15.3958 4.78707 12.0681 4.78707Z" fill="white"/>
</g>
<defs>
<clipPath id="clip0_2834_5498">
<rect width="24.1353" height="24.1353" fill="white" transform="translate(0 0.764526)"/>
</clipPath>
</defs>
</svg>
