<svg width="21" height="15" viewBox="0 0 21 15" fill="none" xmlns="http://www.w3.org/2000/svg">
<path d="M14.8763 8.55937C16.1218 9.43125 16.9945 10.6125 16.9945 12.1875V15H20.6309V12.1875C20.6309 10.1438 17.3854 8.93437 14.8763 8.55937ZM13.3581 7.5C15.3672 7.5 16.9945 5.82188 16.9945 3.75C16.9945 1.67812 15.3672 0 13.3581 0C12.9309 0 12.5309 0.0937498 12.149 0.225C12.9313 1.2227 13.3581 2.46694 13.3581 3.75C13.3581 5.03306 12.9313 6.2773 12.149 7.275C12.5309 7.40625 12.9309 7.5 13.3581 7.5ZM7.90359 7.5C9.91268 7.5 11.54 5.82188 11.54 3.75C11.54 1.67812 9.91268 0 7.90359 0C5.8945 0 4.26722 1.67812 4.26722 3.75C4.26722 5.82188 5.8945 7.5 7.90359 7.5ZM7.90359 1.875C8.90359 1.875 9.72177 2.71875 9.72177 3.75C9.72177 4.78125 8.90359 5.625 7.90359 5.625C6.90359 5.625 6.0854 4.78125 6.0854 3.75C6.0854 2.71875 6.90359 1.875 7.90359 1.875ZM7.90359 8.4375C5.47631 8.4375 0.630859 9.69375 0.630859 12.1875V15H15.1763V12.1875C15.1763 9.69375 10.3309 8.4375 7.90359 8.4375ZM13.3581 13.125H2.44904V12.1969C2.63086 11.5219 5.44904 10.3125 7.90359 10.3125C10.3581 10.3125 13.1763 11.5219 13.3581 12.1875V13.125Z" fill="#FDB913"/>
</svg>
