<svg width="18" height="21" viewBox="0 0 18 21" fill="none" xmlns="http://www.w3.org/2000/svg">
<path d="M7.8439 4.48352C7.8439 2.50223 6.21693 0.905111 4.24677 1.00439C2.48422 1.09504 1.05215 2.58856 1.00131 4.38855C0.980123 5.17848 1.21739 5.90797 1.63261 6.49934L4.15356 10.1123C4.28491 10.3022 4.56031 10.3022 4.69165 10.1123L7.21261 6.49934C7.61087 5.92956 7.8439 5.2346 7.8439 4.48352Z" stroke="#FDB913" stroke-width="1.2" stroke-linecap="round" stroke-linejoin="round"/>
<path d="M4.42068 5.88218C5.21394 5.88218 5.85699 5.22703 5.85699 4.41887C5.85699 3.61071 5.21394 2.95557 4.42068 2.95557C3.62743 2.95557 2.98438 3.61071 2.98438 4.41887C2.98438 5.22703 3.62743 5.88218 4.42068 5.88218Z" stroke="#FDB913" stroke-width="1.2" stroke-linecap="round" stroke-linejoin="round"/>
<path d="M17.0447 11.5189C17.0447 9.53332 15.4178 7.94052 13.4519 8.0398C11.6893 8.13045 10.2572 9.62397 10.2064 11.424C10.1852 12.2139 10.4225 12.9434 10.8377 13.5348L13.3586 17.1477C13.49 17.3376 13.7654 17.3376 13.8967 17.1477L16.4177 13.5348C16.816 12.965 17.049 12.27 17.049 11.5189H17.0447Z" stroke="#FDB913" stroke-width="1.2" stroke-linecap="round" stroke-linejoin="round"/>
<path d="M13.6258 12.9176C14.419 12.9176 15.0621 12.2624 15.0621 11.4543C15.0621 10.6461 14.419 9.99097 13.6258 9.99097C12.8325 9.99097 12.1895 10.6461 12.1895 11.4543C12.1895 12.2624 12.8325 12.9176 13.6258 12.9176Z" stroke="#FDB913" stroke-width="1.2" stroke-linecap="round" stroke-linejoin="round"/>
<path d="M4.42188 12.4202C4.42188 12.4202 4.47695 14.2331 6.54033 14.4921C10.2052 14.9497 9.04434 20 13.6244 20" stroke="#FDB913" stroke-width="1.2" stroke-linecap="round" stroke-linejoin="round"/>
</svg>
