<svg width="105" height="73" viewBox="0 0 105 73" fill="none" xmlns="http://www.w3.org/2000/svg">
<path d="M96.6774 9.9803L26.0848 1.06452C23.9387 0.794778 21.8069 1.37686 20.0872 2.69719C18.3675 4.03171 17.2731 5.94832 17.0031 8.09208L16.1361 14.9351H9.11525C4.63837 14.9351 1 18.5695 1 23.0416V63.6737C1 68.1458 4.63837 71.7802 9.11525 71.7802H80.2764C83.8863 71.7802 86.942 69.4235 87.9937 66.1724L89.5428 66.3711C89.8839 66.4137 90.225 66.4279 90.5661 66.4279C94.5882 66.4279 98.0986 63.4323 98.6245 59.3294L103.727 19.0096C104.281 14.566 101.126 10.5056 96.6916 9.9377L96.6774 9.9803ZM85.5491 63.0348V63.7021C85.5491 64.4687 85.3786 65.1786 85.0943 65.8317C84.27 67.6773 82.4224 68.9692 80.2764 68.9692H9.11525C6.20172 68.9692 3.84247 66.5983 3.84247 63.7021V38.985H85.5634V63.0348H85.5491ZM85.5491 36.1455H3.82826V30.0834H85.5491V36.1455ZM85.5491 27.244H3.82826V23.07C3.82826 20.1596 6.20173 17.8029 9.10104 17.8029H80.2622C83.1757 17.8029 85.5349 20.1738 85.5349 23.07V27.244H85.5491ZM100.898 18.6973L95.7962 59.017C95.4267 61.8991 92.7974 63.9576 89.8981 63.5885L88.3916 63.4039V23.0842C88.3916 18.6121 84.7533 14.9777 80.2764 14.9777H19.007L19.8313 8.4896C20.0019 7.09829 20.7125 5.84894 21.8353 4.98292C22.9438 4.1169 24.3367 3.73358 25.7295 3.91814L96.3221 12.8339C99.2072 13.203 101.268 15.8437 100.898 18.7257V18.6973Z" fill="#FDB913" stroke="#FDB913" stroke-width="0.5"/>
<path d="M11.8568 53.4233C11.0751 53.4233 10.4355 54.0622 10.4355 54.843C10.4355 55.6239 11.0751 56.2628 11.8568 56.2628H36.8989C37.6806 56.2628 38.3202 55.6239 38.3202 54.843C38.3202 54.0622 37.6806 53.4233 36.8989 53.4233H11.8568Z" fill="#FDB913"/>
<path d="M27.1919 59.7837H11.8568C11.0751 59.7837 10.4355 60.4226 10.4355 61.2034C10.4355 61.9842 11.0751 62.6231 11.8568 62.6231H27.1919C27.9736 62.6231 28.6131 61.9842 28.6131 61.2034C28.6131 60.4226 27.9736 59.7837 27.1919 59.7837Z" fill="#FDB913"/>
<path d="M66.7761 63.2336H74.9482C75.9431 63.2336 76.8243 62.7367 77.3643 61.9984C77.7197 61.5015 77.947 60.9053 77.947 60.238V52.458C77.947 50.7969 76.5969 49.4624 74.9482 49.4624H66.7761C65.1133 49.4624 63.7773 50.8111 63.7773 52.458V60.238C63.7773 60.238 63.7773 60.2664 63.7773 60.2806C63.8058 61.9133 65.1417 63.2336 66.7761 63.2336ZM66.6198 52.458C66.6198 52.3728 66.6909 52.3018 66.7761 52.3018H74.9482C75.0335 52.3018 75.1046 52.3728 75.1046 52.458V60.238C75.1046 60.3232 75.0335 60.3942 74.9482 60.3942H66.7761C66.6909 60.3942 66.6198 60.3232 66.6198 60.238V52.458Z" fill="#FDB913"/>
</svg>
