<svg width="76" height="77" viewBox="0 0 76 77" fill="none" xmlns="http://www.w3.org/2000/svg">
<path d="M75.1031 45.5876C72.9713 42.7198 68.9491 41.9815 65.9361 43.9123L65.4529 44.2247L65.6235 43.9123C65.8366 43.5432 65.8651 43.1031 65.7087 42.7056C65.5524 42.3081 65.2255 42.0099 64.8276 41.868L63.9606 41.584C60.4928 40.4624 56.6981 41.797 54.7084 44.8351L48.6113 54.1626H47.588C48.4123 53.112 49.0519 51.8343 49.464 50.3294C49.7199 49.4066 49.5209 48.427 48.9382 47.6746C48.3555 46.9079 47.4601 46.4678 46.4937 46.4678H30.7038C28.1029 46.4678 25.6158 47.4474 23.7113 49.2079L19.206 53.3818C18.6517 53.8929 17.9269 54.1768 17.1736 54.1768H16.8894V53.9355C16.8894 51.2238 14.6865 49.0233 11.9719 49.0233H2.42123C1.63955 49.0233 1 49.6622 1 50.443C1 51.2238 1.63955 51.8627 2.42123 51.8627H11.9719C13.1231 51.8627 14.0469 52.7997 14.0469 53.9355V70.9294C14.0469 72.0794 13.1089 73.0022 11.9719 73.0022H6.81284C6.03116 73.0022 5.3916 73.641 5.3916 74.4219C5.3916 75.2027 6.03116 75.8416 6.81284 75.8416H11.9719C14.189 75.8416 16.0366 74.3651 16.662 72.3491H24.4788C26.9943 72.3491 29.4815 71.9232 31.855 71.0714L56.6271 62.1556C57.2808 61.9142 57.9062 61.6019 58.4889 61.1902L74.3783 50.1023C75.0889 49.6054 75.5579 48.8671 75.6858 48.0153C75.8279 47.1635 75.6147 46.3116 75.1031 45.616V45.5876ZM57.0961 46.3968C58.233 44.6648 60.2796 43.7846 62.2694 44.0969L60.3791 47.4758L53.5003 51.8911L57.0961 46.3968ZM72.7439 47.7597L56.8544 58.8477C56.4849 59.1032 56.087 59.3162 55.6606 59.4723L30.8885 68.3881C28.8277 69.1264 26.6674 69.5097 24.4788 69.5097H16.8894V57.0304H17.1736C18.6517 57.0304 20.0445 56.4768 21.1389 55.483L25.6442 51.309C27.0228 50.0313 28.8277 49.3214 30.718 49.3214H46.5079C46.6073 49.3214 46.6642 49.364 46.6926 49.4066C46.7353 49.4634 46.7495 49.5202 46.7353 49.5912C46.2663 51.2948 45.2288 53.4386 42.8837 54.1768H29.9221C29.1404 54.1768 28.5009 54.8157 28.5009 55.5965C28.5009 56.3774 29.1404 57.0163 29.9221 57.0163H43.1254H50.3594C50.6295 57.0163 50.8995 56.9311 51.1269 56.7891L67.471 46.3116C69.2334 45.1901 71.5784 45.616 72.8149 47.2912C72.886 47.3906 72.886 47.4758 72.8718 47.5468C72.8718 47.6036 72.8291 47.703 72.7296 47.7597H72.7439Z" fill="#FDB913" stroke="#FDB913" stroke-width="0.5"/>
<path d="M28.6693 32.8244C31.8529 35.5787 35.8324 36.9558 40.5366 36.9558C40.7072 36.9558 40.8919 36.9416 41.0625 36.9416C40.9914 41.3853 41.7163 44.5228 41.7305 44.5938C41.8868 45.2469 42.4695 45.6728 43.1091 45.6728C43.2228 45.6728 43.3364 45.6728 43.4501 45.6302C44.2176 45.4456 44.6866 44.679 44.5019 43.9124C44.374 43.3871 42.4127 34.8262 45.8805 26.2086C65.6072 22.347 64.8255 2.55623 64.8255 2.34327C64.8113 1.94576 64.6265 1.59083 64.3281 1.33528C64.0296 1.07973 63.6316 0.966157 63.2479 1.00875C55.957 1.87477 50.5279 4.6432 47.1311 9.24306C42.4837 15.5324 43.2085 23.0852 43.4644 24.8315C43.0522 25.8395 42.7111 26.8475 42.4127 27.8554C40.2666 23.1562 35.1501 17.7329 23.0554 15.8873C22.6291 15.8305 22.2027 15.9583 21.8758 16.2422C21.5632 16.5262 21.3926 16.9521 21.421 17.378C21.4495 17.7755 22.1317 27.1456 28.6836 32.8102L28.6693 32.8244ZM49.4193 10.9183C52.0913 7.32645 56.2981 5.02653 61.9688 4.07532C61.7414 8.23507 59.9222 19.323 47.5291 22.9007C49.2772 19.9193 51.807 17.0657 55.4454 14.6805C56.0991 14.2546 56.2839 13.3744 55.8575 12.7072C55.4312 12.0541 54.55 11.8695 53.8962 12.2954C50.5705 14.4818 48.0976 17.0373 46.2358 19.7205C46.4916 17.0799 47.2875 13.8003 49.4336 10.9183H49.4193ZM41.0767 34.1022C36.8556 34.2157 33.3025 33.0516 30.5596 30.6807C26.509 27.1882 25.031 21.8217 24.5193 19.0249C39.3996 21.9637 41.0056 30.8794 41.0909 34.1022H41.0767Z" fill="#FDB913" stroke="#FDB913" stroke-width="0.5"/>
</svg>
