<svg width="35" height="32" viewBox="0 0 35 32" fill="none" xmlns="http://www.w3.org/2000/svg">
<path d="M34.1596 0.619633L34.1356 0.607038C33.8291 0.394046 33.449 0.28396 33.0614 0.29587C22.688 0.294883 12.3142 0.294389 1.94027 0.294389C1.55244 0.282057 1.17215 0.392476 0.866013 0.606297L0.842049 0.618892C0.247905 0.967104 0 1.47979 0 2.09546C0 4.70927 0 7.32357 0 9.93837C0 16.5722 0 23.2057 0 29.839C0 30.4703 0.23303 30.9948 0.842049 31.3519L0.86684 31.3638C1.20564 31.6068 1.60146 31.6771 2.02373 31.6771H33.0606C33.4484 31.6895 33.8287 31.5791 34.1348 31.3652L34.1588 31.3541C34.7504 31.0044 34.9992 30.4969 35 29.8776C35 27.732 35 25.5866 35 23.4416C35 16.3381 35 9.23528 35 2.13324C35.0016 1.49979 34.7653 0.977476 34.1596 0.619633ZM11.4152 21.928V10.0428L27.0133 15.9854L11.4152 21.928Z" fill="white"/>
</svg>
