<svg width="538" height="161" viewBox="0 0 538 161" fill="none" xmlns="http://www.w3.org/2000/svg">
<path d="M186.44 51.2L184.12 65.12H167.48V108H151.48V65.12H133.72V51.2H186.44ZM238.786 93.28L242.466 105.6C241.186 106.613 239.48 107.413 237.346 108C235.213 108.64 233.053 108.96 230.866 108.96C226.653 108.96 223.16 108.187 220.386 106.64C217.613 105.093 215.373 102.907 213.666 100.08L208.386 91.2C207.746 90.1333 207.133 89.3333 206.546 88.8C205.96 88.2667 205.24 87.92 204.386 87.76V108H188.706V51.2H207.906C216.653 51.2 223.106 52.8533 227.266 56.16C231.48 59.4667 233.586 64.0533 233.586 69.92C233.586 74.08 232.386 77.5467 229.986 80.32C227.586 83.04 224.413 84.96 220.466 86.08C222.493 86.72 224.093 87.92 225.266 89.68L226.706 91.84C228.04 93.92 230.093 94.96 232.866 94.96C233.88 94.96 234.866 94.8533 235.826 94.64C236.84 94.3733 237.826 93.92 238.786 93.28ZM207.746 64.08H204.386V75.36H208.466C211.933 75.36 214.333 74.9067 215.666 74C217.053 73.04 217.746 71.5733 217.746 69.6C217.746 67.4667 216.813 66.0267 214.946 65.28C213.133 64.48 210.733 64.08 207.746 64.08ZM242.271 108L267.311 51.2H280.591L304.751 108H288.591L284.591 97.84H262.591L258.431 108H242.271ZM268.031 84.64H279.311L273.791 70.72L268.031 84.64ZM306.753 108V51.2H322.753V108H306.753ZM332.378 108V51.2H348.378V94.08H372.058L371.098 108H332.378ZM394.858 108.8C387.711 108.8 382.138 107.28 378.138 104.24C374.138 101.2 371.871 96.7733 371.338 90.96L386.138 88.8C386.244 90.8267 387.124 92.48 388.778 93.76C390.484 94.9867 392.671 95.6 395.338 95.6C400.244 95.6 402.698 94.32 402.698 91.76C402.698 90.5867 402.004 89.6533 400.618 88.96C399.284 88.2133 397.071 87.4667 393.978 86.72C387.364 85.12 382.511 82.9867 379.418 80.32C376.324 77.6533 374.804 73.8933 374.858 69.04C374.911 65.36 375.871 62.1333 377.738 59.36C379.658 56.5333 382.324 54.3467 385.738 52.8C389.204 51.2 393.258 50.4 397.898 50.4C403.604 50.4 408.298 51.84 411.978 54.72C415.711 57.6 417.844 61.52 418.378 66.48L404.378 68.88C404.111 67.3333 403.284 66.08 401.898 65.12C400.564 64.1067 398.938 63.6 397.018 63.6C395.204 63.6 393.738 63.9733 392.618 64.72C391.551 65.4133 391.018 66.3733 391.018 67.6C391.018 68.72 391.551 69.7067 392.618 70.56C393.738 71.36 395.818 72.1333 398.858 72.88C403.231 73.9467 406.884 75.1733 409.818 76.56C412.804 77.8933 415.044 79.6267 416.538 81.76C418.084 83.8933 418.858 86.6933 418.858 90.16C418.858 93.84 417.844 97.0933 415.818 99.92C413.844 102.693 411.044 104.88 407.418 106.48C403.844 108.027 399.658 108.8 394.858 108.8Z" fill="#121212"/>
<path d="M202.232 35V10.15H209.232V35H202.232ZM229.298 10.15H236.018V35H229.788L220.163 21.63V35H213.443V10.15H219.673L229.298 23.485V10.15ZM248.571 35.35C245.444 35.35 243.006 34.685 241.256 33.355C239.506 32.025 238.514 30.0883 238.281 27.545L244.756 26.6C244.803 27.4867 245.188 28.21 245.911 28.77C246.658 29.3067 247.614 29.575 248.781 29.575C250.928 29.575 252.001 29.015 252.001 27.895C252.001 27.3817 251.698 26.9733 251.091 26.67C250.508 26.3433 249.539 26.0167 248.186 25.69C245.293 24.99 243.169 24.0567 241.816 22.89C240.463 21.7233 239.798 20.0783 239.821 17.955C239.844 16.345 240.264 14.9333 241.081 13.72C241.921 12.4833 243.088 11.5267 244.581 10.85C246.098 10.15 247.871 9.8 249.901 9.8C252.398 9.8 254.451 10.43 256.061 11.69C257.694 12.95 258.628 14.665 258.861 16.835L252.736 17.885C252.619 17.2083 252.258 16.66 251.651 16.24C251.068 15.7967 250.356 15.575 249.516 15.575C248.723 15.575 248.081 15.7383 247.591 16.065C247.124 16.3683 246.891 16.7883 246.891 17.325C246.891 17.815 247.124 18.2467 247.591 18.62C248.081 18.97 248.991 19.3083 250.321 19.635C252.234 20.1017 253.833 20.6383 255.116 21.245C256.423 21.8283 257.403 22.5867 258.056 23.52C258.733 24.4533 259.071 25.6783 259.071 27.195C259.071 28.805 258.628 30.2283 257.741 31.465C256.878 32.6783 255.653 33.635 254.066 34.335C252.503 35.0117 250.671 35.35 248.571 35.35ZM268.531 35H261.671V10.15H271.086C274.936 10.15 277.771 10.85 279.591 12.25C281.434 13.6267 282.356 15.645 282.356 18.305C282.356 20.0783 281.877 21.6067 280.921 22.89C279.964 24.1733 278.611 25.165 276.861 25.865C275.111 26.5417 273.022 26.88 270.596 26.88H268.531V35ZM271.296 15.785H268.531V21.21H270.946C272.392 21.21 273.489 20.9883 274.236 20.545C275.006 20.1017 275.391 19.3783 275.391 18.375C275.391 17.4883 275.064 16.835 274.411 16.415C273.757 15.995 272.719 15.785 271.296 15.785ZM284.674 35V10.15H291.674V35H284.674ZM317.795 28.56L319.405 33.95C318.845 34.3933 318.098 34.7433 317.165 35C316.231 35.28 315.286 35.42 314.33 35.42C312.486 35.42 310.958 35.0817 309.745 34.405C308.531 33.7283 307.551 32.7717 306.805 31.535L304.495 27.65C304.215 27.1833 303.946 26.8333 303.69 26.6C303.433 26.3667 303.118 26.215 302.745 26.145V35H295.885V10.15H304.285C308.111 10.15 310.935 10.8733 312.755 12.32C314.598 13.7667 315.52 15.7733 315.52 18.34C315.52 20.16 314.995 21.6767 313.945 22.89C312.895 24.08 311.506 24.92 309.78 25.41C310.666 25.69 311.366 26.215 311.88 26.985L312.51 27.93C313.093 28.84 313.991 29.295 315.205 29.295C315.648 29.295 316.08 29.2483 316.5 29.155C316.943 29.0383 317.375 28.84 317.795 28.56ZM304.215 15.785H302.745V20.72H304.53C306.046 20.72 307.096 20.5217 307.68 20.125C308.286 19.705 308.59 19.0633 308.59 18.2C308.59 17.2667 308.181 16.6367 307.365 16.31C306.571 15.96 305.521 15.785 304.215 15.785ZM338.282 16.135H327.047V19.53H337.372V25.515H327.047V29.015H338.562L338.142 35H320.152V10.15H338.282V16.135Z" fill="#121212"/>
<g clip-path="url(#clip0_4647_1080)">
<path d="M371.641 142.098C313.175 119.794 244.995 122.626 186.345 142.943C184.16 143.822 185.387 147.336 187.573 146.457C248.266 126.179 309.808 127.58 371.295 143.263C371.765 143.446 372.132 142.506 371.641 142.098Z" fill="#FDB913"/>
</g>
<defs>
<clipPath id="clip0_4647_1080">
<rect width="186.184" height="25.7272" fill="white" transform="translate(371.969 143.201) rotate(174.778)"/>
</clipPath>
</defs>
</svg>
